<svg width="113" height="113" viewBox="0 0 113 113" fill="none" xmlns="http://www.w3.org/2000/svg">
<path d="M0.956204 56.016C0.956204 25.0733 25.9535 0 56.7829 0C87.6109 0 112.599 25.0733 112.599 56.016C112.599 86.9493 87.6109 112.027 56.7829 112.027C25.9535 112.027 0.956204 86.9493 0.956204 56.016Z" fill="#EE2722"/>
<path d="M4.34957 56.016C4.34957 85.0293 27.8682 108.628 56.7829 108.628C85.6936 108.628 109.215 85.0293 109.215 56.016C109.215 27.0013 85.6936 3.40668 56.7829 3.40668C27.8682 3.40668 4.34957 27.0013 4.34957 56.016ZM6.70424 56.016C6.70424 28.2973 29.1669 5.75468 56.7829 5.75468C84.4042 5.75468 106.86 28.2973 106.86 56.016C106.86 83.732 84.4042 106.276 56.7829 106.276C29.1669 106.276 6.70424 83.732 6.70424 56.016Z" fill="white"/>
<path d="M28.1515 53.2674C24.5995 49.234 22.6369 43.9114 22.6369 38.2834C22.6369 26.4727 31.3462 16.8647 42.0462 16.8647C47.7289 16.8647 53.0489 19.59 56.7382 24.2807C60.4329 19.59 65.7742 16.8647 71.4769 16.8647C82.1809 16.8647 90.8929 26.4727 90.8929 38.2834C90.8929 43.9047 88.9275 49.2234 85.3755 53.2647L56.7875 84.8887L28.1515 53.2674Z" fill="#D8960A"/>
<path d="M71.4772 18.7504C65.3145 18.7504 59.8918 22.301 56.7385 27.6077C53.5878 22.301 48.2092 18.7504 42.0465 18.7504C32.3678 18.7504 24.5252 27.4997 24.5252 38.2824C24.5252 43.6344 26.4558 48.4864 29.5678 52.0197L56.7865 82.0757L83.9612 52.0197C87.0678 48.4864 89.0012 43.6344 89.0012 38.2824C89.0012 27.4997 81.1545 18.7504 71.4772 18.7504Z" fill="#6A2A08"/>
<path d="M13.4277 65.9782C13.4717 66.6902 13.5637 67.7876 14.0357 69.0876C15.0291 71.8182 17.0157 72.7342 18.7824 72.0996C20.3971 71.5102 20.9117 69.9116 20.0771 67.6342C19.8917 67.1009 19.6944 66.7769 19.5197 66.3716L19.6117 66.1222C20.2117 66.0436 21.0144 66.0609 21.4557 66.2116C22.2144 67.3462 23.7011 69.1622 25.5544 68.5022C26.6464 68.0996 27.1877 67.0729 26.7304 65.7742C26.3784 64.7969 25.6877 64.0982 25.0451 63.7262C24.5997 63.4516 24.4331 63.1396 24.7931 62.7662C25.0451 62.5062 25.4171 62.1609 25.8064 62.0929C27.0997 62.5609 28.5837 63.8662 29.2064 65.5782C30.5291 69.2356 28.3371 70.8716 27.2437 71.2716C26.4704 71.5529 25.7437 71.5556 25.1557 71.4129C24.5664 71.2169 23.8571 70.8929 22.7824 70.0916C23.0811 72.7996 21.9037 74.5076 19.9517 75.2062C16.6077 76.4209 13.5237 73.9209 12.1691 70.1729C11.6011 68.6089 11.6197 67.7129 11.7877 67.2902C12.0104 66.7529 12.6304 66.1502 13.3024 65.9462L13.4277 65.9782Z" fill="#6A2A08"/>
<path d="M28.8573 90.5121C28.3507 90.8588 27.492 91.1575 26.8853 91.0801C26.1147 90.8748 25.2373 90.2655 24.504 89.4935C22.204 87.0908 21.3773 83.5228 24.504 80.5295C26.3573 78.7495 28.4067 78.4215 30.008 78.6628C31.5293 78.8881 32.9253 79.6375 34.0187 80.7761C35.6067 82.4281 35.6773 83.9761 35.608 84.3241C35.2427 84.6615 34.6307 84.8881 34.1987 84.8655C33.7667 84.8655 33.5733 84.5055 33.448 84.0921C33.212 83.3428 32.816 82.6735 32.2947 82.1375C30.8493 80.6295 28.6987 80.8441 26.9613 82.5055C24.6547 84.7108 25.3853 87.2708 26.7133 88.6508C27.4187 89.3975 28.2453 89.9241 28.8267 90.2281L28.8573 90.5121Z" fill="#6A2A08"/>
<path d="M41.3456 85.8857C45.1149 87.8204 45.4976 91.527 44.0243 94.3724C42.8936 96.5777 41.1909 97.6377 39.6909 97.9764C38.3469 98.2844 36.8803 98.095 35.4483 97.3577C32.1696 95.6737 31.0429 92.2297 32.8029 88.803C33.7656 86.9497 35.3736 85.675 37.2149 85.303C38.5123 84.995 40.0096 85.199 41.3189 85.8617L41.3456 85.8857ZM40.3723 87.639C38.8563 86.8644 36.9456 87.7364 35.7523 90.0617C34.3549 92.7644 34.9723 94.8844 36.5403 95.6577C38.0736 96.4484 39.8883 95.5404 41.1509 93.0724C42.3509 90.751 42.0736 88.5164 40.3949 87.6537L40.3723 87.639Z" fill="#6A2A08"/>
<path d="M47.5162 91.6813C47.6202 91.08 47.4296 90.5853 46.9509 90.2906L47.0429 89.8346C47.2376 89.528 47.7496 89.0626 48.1416 88.8026C48.4189 88.7453 48.7109 88.7173 48.9869 88.764C50.2349 89.0013 50.5842 90.304 50.3389 91.9C51.4696 90.2386 52.8176 89.4666 54.1762 89.7106C54.8016 89.824 55.3189 90.2426 55.4829 90.564C55.4509 91.032 55.0922 92.0813 54.5322 92.628C54.2736 92.888 53.9349 93.0146 53.5762 92.8293C53.1576 92.5973 52.8576 92.5293 52.5962 92.488C52.0789 92.3866 51.1522 92.728 50.4669 93.8453C50.1936 94.2693 50.0629 94.596 49.9509 95.2066C49.6362 96.9573 49.1829 99.4386 48.9322 100.855C48.8589 101.292 48.7576 101.459 48.2402 101.423C47.3629 101.379 46.5749 101.275 45.7216 101.113C46.0256 99.832 46.3429 98.16 46.7136 96.14L47.5162 91.6813Z" fill="#6A2A08"/>
<path d="M67.222 100.598C67.1127 101.093 66.402 101.906 65.0713 102.03C63.9513 102.146 63.154 101.562 62.7673 100.618C62.186 101.414 60.938 102.419 59.518 102.563C57.6767 102.745 56.1247 101.614 55.9327 99.566C55.6527 96.6873 59.298 95.2926 61.0687 94.7646C61.566 94.6166 61.918 94.5153 62.1593 94.4406L62.0913 93.7366C61.9953 92.6593 61.2527 91.8113 59.9527 91.938C59.074 92.0193 58.082 92.718 57.5273 93.1553C56.826 93.6446 56.2927 93.5633 55.874 92.5286L55.6233 91.938C56.47 91.0206 58.502 89.7113 60.4433 89.514C62.938 89.2753 64.726 90.6126 65.0033 93.462C65.11 94.6393 65.2447 97.2646 65.43 99.0313C65.4647 99.4393 65.774 99.7433 66.354 99.6846C66.6247 99.6646 66.9033 99.5193 67.1033 99.4073L67.222 100.598ZM58.8033 98.814C58.8753 99.626 59.4087 100.19 60.282 100.098C61.2007 100.014 61.9647 99.3606 62.33 98.8753C62.454 98.7273 62.5007 98.45 62.454 97.9566L62.2833 96.1393C59.9713 96.7166 58.6953 97.7126 58.7953 98.7806L58.8033 98.814Z" fill="#6A2A08"/>
<path d="M79.0305 94.6578C79.1692 95.2432 79.1478 96.1592 78.8625 96.6965C78.3918 97.3472 77.5145 97.9458 76.5345 98.3645C73.4745 99.6685 69.8398 99.1818 68.1425 95.1885C67.1452 92.8298 67.5585 90.8018 68.3438 89.3912C69.1065 88.0405 70.2932 86.9992 71.7438 86.3818C73.8598 85.4832 75.3132 85.9512 75.6278 86.1432C75.8078 86.6178 75.8038 87.2498 75.6278 87.6538C75.4758 88.0552 75.0692 88.1085 74.6332 88.0885C73.8692 88.0405 73.0985 88.1698 72.4038 88.4685C70.4798 89.2752 69.9252 91.3872 70.8598 93.5858C72.1105 96.5298 74.7678 96.7498 76.5238 95.9992C77.4732 95.5898 78.2625 95.0125 78.7425 94.5752L79.0305 94.6578Z" fill="#6A2A08"/>
<path d="M78.9107 81.387C82.0174 78.5017 85.6361 79.3924 87.8241 81.7364C89.5014 83.5457 89.9241 85.507 89.7387 87.027C89.5774 88.3964 88.9001 89.7137 87.7227 90.8124C85.0281 93.3217 81.4067 93.2297 78.7801 90.4097C77.3521 88.879 76.7001 86.9297 76.9694 85.075C77.1227 83.7524 77.8161 82.415 78.8881 81.4084L78.9107 81.387ZM80.2454 82.8924C78.9987 84.0577 79.1681 86.143 80.9574 88.0684C83.0347 90.291 85.2267 90.423 86.4854 89.223C87.7494 88.0244 87.5081 86.0257 85.6187 83.9897C83.8361 82.0844 81.6387 81.595 80.2654 82.871L80.2454 82.8924Z" fill="#6A2A08"/>
<path d="M96.7466 73.4561C97.6546 73.9415 98.0253 75.3681 97.9746 75.7761C97.9533 76.0815 97.7306 76.9921 97.272 77.8935C96.7186 78.9668 95.756 80.4361 93.936 81.1015C92.2866 81.7148 90.444 81.3095 88.8706 80.4895C85.8386 78.9255 83.9813 75.5015 85.6426 72.2895C87.208 69.2641 89.884 69.2121 92.0493 70.2401C92.3573 70.3988 92.6986 70.6495 92.8546 70.7908C93.2093 71.0748 93.1 72.2668 92.8426 73.3068C92.6266 73.9961 91.372 76.5068 90.5573 77.9308C92.8546 79.0841 94.732 77.9508 95.6933 76.1135C96.3186 74.8921 96.472 73.9215 96.4973 73.5348L96.7466 73.4561ZM87.2186 73.4735C86.7213 74.4295 87.1666 75.9695 88.9106 77.0081C89.604 75.8188 90.5573 73.9175 90.7973 73.3508C90.9066 73.1241 90.7066 72.8775 90.456 72.7441C89.148 72.0481 87.88 72.1908 87.2346 73.4348L87.2186 73.4735Z" fill="#6A2A08"/>
<path d="M88.8144 63.0654C89.1797 61.4934 90.0504 60.7454 90.2917 60.5748C90.7744 60.6908 91.3037 60.9908 91.5397 61.2961C91.7957 61.5934 91.8131 61.8894 91.5477 62.2601C91.2277 62.6494 90.9797 63.1694 90.8731 63.6668C90.6957 64.4361 91.1664 65.0721 91.7957 65.2134C92.2344 65.3134 92.6264 65.1348 93.0557 64.6814C93.4544 64.3281 94.5144 63.0974 95.2624 62.4108C96.1344 61.6054 97.1424 61.3228 98.2584 61.5828C100.904 62.1948 101.677 64.7148 101.116 67.1281C100.8 68.5094 99.9291 69.8841 99.0957 70.3148C98.5037 70.1601 98.0251 69.7854 97.8077 69.4601C97.5811 69.1428 97.6957 68.8161 97.9637 68.5401C98.4144 68.0134 98.8731 67.3214 99.0704 66.4294C99.2877 65.5281 98.8637 64.7241 98.1144 64.5574C97.5651 64.4281 97.1424 64.6521 96.5331 65.3361C95.9864 65.9388 94.9891 66.9548 94.5971 67.2908C93.8144 68.0348 92.7464 68.3801 91.5611 68.0988C89.2091 67.5588 88.2997 65.2948 88.8091 63.0908L88.8144 63.0654Z" fill="#6A2A08"/>
<path d="M78.8625 77.1553L78.3358 77.5753C78.3905 77.8247 78.4425 78.106 78.3798 78.334C78.3505 78.4447 78.3065 78.5447 78.2118 78.6233C77.9531 78.8233 77.5358 78.93 77.2425 79.0527C76.7931 79.2007 76.0291 79.4113 75.6491 79.6993C74.9065 80.2967 75.2598 81.7567 75.6171 82.6127L76.2065 82.1433C76.0598 81.794 75.9731 81.3873 76.2771 81.146C76.7931 80.7353 77.8238 80.574 78.5105 80.2367C78.6358 80.1807 78.7478 80.1087 78.8505 80.0273C79.5305 79.494 79.2931 77.9247 78.8625 77.1553Z" fill="#733C19"/>
<path d="M78.1529 99.5655C77.8343 98.9721 77.0969 98.8961 76.1583 98.9801L76.4049 98.1468C75.9196 98.2428 75.4689 98.2561 75.0689 98.4641L74.6836 99.8935L74.8103 100.237C75.5969 99.9215 76.4583 99.8935 76.6649 100.293C76.7929 100.527 76.7063 100.92 75.6809 101.527C75.5329 101.623 75.5609 101.739 75.5969 101.797C75.6903 101.968 75.9249 102.191 76.2916 102.149C77.5289 101.644 78.6823 100.56 78.1529 99.5655Z" fill="#733C19"/>
<path d="M13.7493 65.1084C13.7867 65.8217 13.8853 66.9191 14.3587 68.2177C15.3467 70.9511 17.336 71.8657 19.104 71.2337C20.7213 70.6431 21.2267 69.0564 20.396 66.7724C20.2067 66.2324 20.016 65.9177 19.844 65.5084L19.9307 65.2551C20.5413 65.1724 21.3387 65.1924 21.7747 65.3511C22.5333 66.4884 24.0187 68.3057 25.8827 67.6297C26.9707 67.2417 27.516 66.2017 27.0413 64.9017C26.696 63.9431 26.0053 63.2337 25.3627 62.8604C24.9187 62.5884 24.752 62.2724 25.12 61.8897C25.3627 61.6311 25.7293 61.2964 26.1293 61.2271C27.4187 61.6924 28.904 63.0084 29.5267 64.7151C30.8427 68.3684 28.656 70.0057 27.5653 70.399C26.7787 70.683 26.0613 70.6924 25.476 70.5457C24.888 70.3564 24.1747 70.0257 23.1053 69.223C23.4067 71.9417 22.2293 73.6351 20.2693 74.3417C16.928 75.5644 13.8413 73.0591 12.488 69.3031C11.9187 67.7377 11.94 66.8377 12.1093 66.4244C12.3253 65.8831 12.956 65.2857 13.62 65.0871L13.7493 65.1084Z" fill="white"/>
<path d="M29.1777 89.6475C28.6777 89.9995 27.807 90.2901 27.2017 90.2288C26.4284 90.0155 25.5537 89.3981 24.8284 88.6355C22.5217 86.2315 21.6977 82.6528 24.8284 79.6555C26.6724 77.8875 28.727 77.5555 30.331 77.8035C31.8484 78.0261 33.2457 78.7701 34.3337 79.9035C35.9257 81.5781 35.995 83.0995 35.927 83.4595C35.5577 83.7901 34.9564 84.0168 34.5244 83.9968C34.0804 84.0128 33.895 83.6435 33.7657 83.2235C33.5337 82.4848 33.1364 81.8048 32.6177 81.2648C31.1764 79.7608 29.0177 79.9835 27.287 81.6368C24.9804 83.8381 25.7084 86.3968 27.0284 87.7768C27.7457 88.5261 28.5684 89.0595 29.151 89.3541L29.1777 89.6475Z" fill="white"/>
<path d="M41.6608 85.0185C45.4301 86.9492 45.8128 90.6652 44.3448 93.5172C43.2088 95.7145 41.5168 96.7705 40.0101 97.1065C38.6714 97.4119 37.1994 97.2225 35.7688 96.4892C32.4941 94.8025 31.3581 91.3599 33.1248 87.9372C34.0794 86.0852 35.6901 84.8065 37.5368 84.4399C38.8328 84.1372 40.3274 84.3239 41.6394 84.9945L41.6608 85.0185ZM40.6981 86.7719C39.1848 85.9932 37.2674 86.8652 36.0728 89.2079C34.6754 91.9105 35.2954 94.0119 36.8554 94.7865C38.3981 95.5785 40.2061 94.6759 41.4808 92.1985C42.6794 89.8799 42.3968 87.6545 40.7168 86.7825L40.6981 86.7719Z" fill="white"/>
<path d="M47.843 90.8127C47.9377 90.2287 47.7497 89.7141 47.2737 89.4274L47.363 88.9634C47.5577 88.6567 48.0697 88.2021 48.4604 87.9381C48.7364 87.8834 49.027 87.8514 49.3057 87.9061C50.5537 88.1247 50.9084 89.4327 50.6657 91.0314C51.787 89.3741 53.1484 88.5941 54.4937 88.8367C55.1204 88.9594 55.6444 89.3741 55.8097 89.6981C55.7697 90.1634 55.411 91.2127 54.8537 91.7674C54.5897 92.0194 54.2537 92.1527 53.8937 91.9581C53.4737 91.7421 53.175 91.6567 52.9177 91.6194C52.3964 91.5274 51.4777 91.8581 50.7897 92.9874C50.5217 93.4007 50.3844 93.7354 50.271 94.3327C49.951 96.0887 49.5057 98.5727 49.251 99.9954C49.1737 100.423 49.0764 100.586 48.555 100.561C47.6777 100.522 46.8897 100.405 46.0444 100.258C46.343 98.9581 46.6617 97.3087 47.0284 95.2727L47.843 90.8127Z" fill="white"/>
<path d="M67.5396 99.7438C67.4329 100.234 66.7196 101.033 65.3862 101.161C64.2756 101.274 63.4689 100.704 63.0929 99.7492C62.5009 100.548 61.2529 101.561 59.8409 101.7C57.9982 101.87 56.4462 100.745 56.2476 98.7052C55.9716 95.8225 59.6209 94.4238 61.3942 93.8905C61.8862 93.7572 62.2342 93.6452 62.4796 93.5785L62.4116 92.8678C62.3129 91.7932 61.5809 90.9505 60.2676 91.0732C59.3916 91.1518 58.4076 91.8532 57.8449 92.2892C57.1489 92.7745 56.6102 92.6998 56.1916 91.6572L55.9382 91.0798C56.7876 90.1532 58.8262 88.8358 60.7569 88.6505C63.2636 88.4092 65.0476 89.7505 65.3209 92.5985C65.4302 93.7638 65.5649 96.3878 65.7529 98.1612C65.7849 98.5732 66.0876 98.8745 66.6756 98.8145C66.9422 98.7932 67.2222 98.6518 67.4302 98.5478L67.5396 99.7438ZM59.1182 97.9452C59.1982 98.7652 59.7329 99.3158 60.6036 99.2398C61.5142 99.1532 62.2836 98.4918 62.6516 98.0212C62.7689 97.8585 62.8222 97.5865 62.7689 97.0892L62.5996 95.2718C60.2889 95.8452 59.0129 96.8398 59.1182 97.9145V97.9452Z" fill="white"/>
<path d="M79.3456 93.7816C79.4896 94.3722 79.4696 95.2936 79.1803 95.8282C78.7176 96.4762 77.8336 97.0882 76.8603 97.4909C73.7976 98.8042 70.1549 98.3122 68.4669 94.3216C67.4616 91.9696 67.8776 89.9349 68.6656 88.5162C69.4243 87.1696 70.6136 86.1322 72.0656 85.5176C74.1789 84.6216 75.6403 85.0869 75.9456 85.2736C76.1243 85.7469 76.1203 86.3922 75.9563 86.7896C75.8043 87.1882 75.3936 87.2509 74.9483 87.2269C74.1829 87.1696 73.4176 87.3016 72.7296 87.6002C70.8029 88.4176 70.2456 90.5122 71.1829 92.7176C72.4323 95.6576 75.0896 95.8762 76.8389 95.1282C77.7923 94.7389 78.5869 94.1429 79.0656 93.7042L79.3456 93.7816Z" fill="white"/>
<path d="M79.2362 80.516C82.3336 77.6387 85.9576 78.524 88.1416 80.8653C89.8322 82.6867 90.2456 84.6413 90.0536 86.1707C89.8949 87.528 89.2082 88.84 88.0389 89.9587C85.3482 92.46 81.7216 92.3627 79.1016 89.5453C77.6736 88.02 77.0176 86.0747 77.2882 84.208C77.4509 82.8773 78.1309 81.5507 79.2096 80.54L79.2362 80.516ZM80.5656 82.0213C79.3149 83.1947 79.4896 85.2733 81.2816 87.204C83.3562 89.428 85.5509 89.564 86.8082 88.352C88.0789 87.1693 87.8296 85.1533 85.9336 83.12C84.1589 81.2133 81.9642 80.72 80.5896 82.0173L80.5656 82.0213Z" fill="white"/>
<path d="M97.0682 72.5876C97.9749 73.0796 98.3429 74.5116 98.2936 74.9129C98.2749 75.2063 98.0562 76.1356 97.5869 77.0263C97.0376 78.0916 96.0842 79.5729 94.2549 80.2263C92.6056 80.8436 90.7602 80.4369 89.1856 79.6196C86.1536 78.0516 84.2976 74.6316 85.9642 71.4209C87.5296 68.3983 90.2042 68.3476 92.3709 69.3783C92.6842 69.5463 93.0162 69.7849 93.1856 69.9249C93.5229 70.1983 93.4202 71.4009 93.1602 72.4343C92.9456 73.1236 91.6936 75.6409 90.8829 77.0689C93.1816 78.2223 95.0562 77.0863 96.0082 75.2383C96.6336 74.0236 96.7882 73.0596 96.8149 72.6663L97.0682 72.5876ZM87.5376 72.5956C87.0376 73.5676 87.4829 75.0996 89.2242 76.1396C89.9242 74.9516 90.8736 73.0489 91.1256 72.4903C91.2269 72.2556 91.0202 72.0063 90.7736 71.8836C89.4616 71.1783 88.2029 71.3169 87.5536 72.5703L87.5376 72.5956Z" fill="white"/>
<path d="M89.136 62.1944C89.4973 60.6291 90.368 59.8811 90.6173 59.7104C91.0986 59.8317 91.6186 60.1197 91.864 60.4277C92.12 60.7291 92.1333 61.0264 91.876 61.3984C91.548 61.7851 91.304 62.3144 91.188 62.8037C91.016 63.5824 91.4906 64.1957 92.12 64.3517C92.56 64.4477 92.9453 64.2691 93.3826 63.8224C93.776 63.4571 94.8306 62.2331 95.5826 61.5464C96.46 60.7371 97.4573 60.4584 98.5733 60.7144C101.221 61.3237 101.997 63.8464 101.436 66.2637C101.115 67.6344 100.255 69.0157 99.4173 69.4437C98.8213 69.2984 98.3426 68.9131 98.124 68.6011C97.9013 68.2797 98.0146 67.9544 98.2813 67.6704C98.732 67.1384 99.1933 66.4504 99.392 65.5784C99.6053 64.6531 99.1813 63.8664 98.4426 63.6891C97.8906 63.5624 97.464 63.7877 96.852 64.4691C96.3066 65.0717 95.2973 66.0784 94.924 66.4251C94.132 67.1651 93.06 67.5077 91.8813 67.2411C89.5386 66.6997 88.6173 64.4291 89.1226 62.2224L89.136 62.1944Z" fill="white"/>
<path d="M79.1802 76.2842L78.6509 76.7056C78.7082 76.9536 78.7642 77.2376 78.7029 77.4629C78.6789 77.5762 78.6216 77.6722 78.5242 77.7509C78.2816 77.9509 77.8629 78.0616 77.5616 78.1816C77.1189 78.3336 76.3442 78.5442 75.9669 78.8309C75.2189 79.4309 75.5842 80.8856 75.9429 81.7429L76.5242 81.2722C76.3776 80.9229 76.2922 80.5162 76.5976 80.2762C77.1122 79.8682 78.1442 79.7229 78.8296 79.3709C78.9549 79.3096 79.0776 79.2536 79.1682 79.1616C79.8576 78.6229 79.6082 77.0522 79.1802 76.2842Z" fill="white"/>
<path d="M78.4719 98.7048C78.1533 98.1061 77.4146 98.0394 76.4733 98.1248L76.7253 97.2794C76.2373 97.3741 75.7853 97.3954 75.3933 97.5954L75.0106 99.0314L75.1306 99.3701C75.9199 99.0528 76.7773 99.0181 76.9946 99.4208C77.1186 99.6648 77.0266 100.051 76.0053 100.671C75.8519 100.762 75.8759 100.865 75.9199 100.93C76.0053 101.093 76.2479 101.33 76.6173 101.291C77.8439 100.783 78.9999 99.6888 78.4719 98.7048Z" fill="white"/>
<mask id="mask0_4_321" style="mask-type:luminance" maskUnits="userSpaceOnUse" x="44" y="50" width="25" height="24">
<path d="M67.2276 61.914C68.5636 60.222 69.8676 57.2314 67.2276 53.2847C64.7289 49.5394 60.5249 49.446 57.7876 52.15C57.3929 52.5407 57.0249 52.9834 56.7036 53.4874C56.3809 52.9941 56.0223 52.5514 55.6343 52.1687C52.8969 49.4594 48.7396 49.594 46.1449 53.2847C43.5409 56.982 44.8089 60.2194 46.1449 61.914L56.7036 73.5581L67.2276 61.914Z" fill="white"/>
</mask>
<g mask="url(#mask0_4_321)">
<path d="M67.2276 61.914C68.5636 60.222 69.8676 57.2314 67.2276 53.2847C64.7289 49.5394 60.5249 49.446 57.7876 52.15C57.3929 52.5407 57.0249 52.9834 56.7036 53.4874C56.3809 52.9941 56.0223 52.5514 55.6343 52.1687C52.8969 49.4594 48.7396 49.594 46.1449 53.2847C43.5409 56.982 44.8089 60.2194 46.1449 61.914L56.7036 73.5581L67.2276 61.914Z" fill="url(#paint0_linear_4_321)"/>
</g>
<mask id="mask1_4_321" style="mask-type:luminance" maskUnits="userSpaceOnUse" x="44" y="50" width="25" height="24">
<path d="M66.985 61.9342C67.5876 61.1782 68.1529 60.1716 68.3729 58.9609C68.6862 57.2502 68.2116 55.3023 66.6649 53.2276C64.2009 49.9276 60.3769 49.8142 57.8142 52.3342C57.4449 52.6995 57.0983 53.1142 56.7983 53.5836C56.493 53.1529 56.1596 52.7716 55.7996 52.4463C55.3169 51.9689 54.6983 51.7223 54.1396 51.4463C53.5063 51.1343 52.7436 50.8076 52.0663 50.7663C50.1929 50.4996 48.2156 51.3169 46.6716 53.2276C45.1009 55.1729 44.665 57.1769 44.9823 58.9342C45.2036 60.1542 45.7543 61.1849 46.3543 61.9356C46.3543 61.9356 50.8609 66.9156 51.0623 67.1476C51.2249 67.3356 56.5716 73.2409 56.6849 73.3703C56.8583 73.1703 66.985 61.9342 66.985 61.9342Z" fill="white"/>
</mask>
<g mask="url(#mask1_4_321)">
<path d="M66.985 61.9342C67.5876 61.1782 68.1529 60.1716 68.3729 58.9609C68.6862 57.2502 68.2116 55.3023 66.6649 53.2276C64.2009 49.9276 60.3769 49.8142 57.8142 52.3342C57.4449 52.6995 57.0983 53.1142 56.7983 53.5836C56.493 53.1529 56.1596 52.7716 55.7996 52.4463C55.3169 51.9689 54.6983 51.7223 54.1396 51.4463C53.5063 51.1343 52.7436 50.8076 52.0663 50.7663C50.1929 50.4996 48.2156 51.3169 46.6716 53.2276C45.1009 55.1729 44.665 57.1769 44.9823 58.9342C45.2036 60.1542 45.7543 61.1849 46.3543 61.9356C46.3543 61.9356 50.8609 66.9156 51.0623 67.1476C51.2249 67.3356 56.5716 73.2409 56.6849 73.3703C56.8583 73.1703 66.985 61.9342 66.985 61.9342Z" fill="url(#paint1_linear_4_321)"/>
</g>
<mask id="mask2_4_321" style="mask-type:luminance" maskUnits="userSpaceOnUse" x="45" y="50" width="24" height="24">
<path d="M66.7449 61.9529C67.3755 61.1676 67.9369 60.1155 68.1276 58.8755C68.4129 57.0209 67.7009 55.0716 66.1022 53.1702C63.6982 50.3116 60.2289 50.1809 57.8423 52.5182C57.4969 52.8582 57.1729 53.2435 56.8916 53.6782C56.6063 53.3142 56.2969 52.9943 55.9662 52.7236C55.5382 52.2996 54.8876 52.2249 54.3916 51.9795C53.8263 51.7009 53.0516 51.2516 52.4489 51.2142C50.6889 50.8076 48.7662 51.4969 47.1995 53.1702C45.5502 54.9302 44.9009 56.9555 45.1916 58.8515C45.3822 60.1035 45.9316 61.1756 46.5623 61.9569C46.5623 61.9596 50.7635 66.6102 51.1649 67.0729C51.4902 67.4462 56.4423 72.9249 56.6663 73.1823C57.0116 72.7849 66.7449 61.9529 66.7449 61.9529Z" fill="white"/>
</mask>
<g mask="url(#mask2_4_321)">
<path d="M66.7449 61.9529C67.3755 61.1676 67.9369 60.1155 68.1276 58.8755C68.4129 57.0209 67.7009 55.0716 66.1022 53.1702C63.6982 50.3116 60.2289 50.1809 57.8423 52.5182C57.4969 52.8582 57.1729 53.2435 56.8916 53.6782C56.6063 53.3142 56.2969 52.9943 55.9662 52.7236C55.5382 52.2996 54.8876 52.2249 54.3916 51.9795C53.8263 51.7009 53.0516 51.2516 52.4489 51.2142C50.6889 50.8076 48.7662 51.4969 47.1995 53.1702C45.5502 54.9302 44.9009 56.9555 45.1916 58.8515C45.3822 60.1035 45.9316 61.1756 46.5623 61.9569C46.5623 61.9596 50.7635 66.6102 51.1649 67.0729C51.4902 67.4462 56.4423 72.9249 56.6663 73.1823C57.0116 72.7849 66.7449 61.9529 66.7449 61.9529Z" fill="url(#paint2_linear_4_321)"/>
</g>
<mask id="mask3_4_321" style="mask-type:luminance" maskUnits="userSpaceOnUse" x="45" y="51" width="23" height="22">
<path d="M66.5023 61.9742C67.1636 61.1556 67.7182 60.0635 67.8836 58.7915C68.1396 56.7902 67.2009 54.8449 65.5396 53.1129C63.2156 50.6889 60.081 50.5489 57.8703 52.7036C57.549 53.0182 57.2476 53.3729 56.985 53.7729C56.7196 53.4742 56.4356 53.2156 56.1316 53.0022C55.7569 52.6302 55.0756 52.7276 54.641 52.5129C54.149 52.2689 53.3569 51.6955 52.8315 51.6635C51.1822 51.1155 49.3089 51.6769 47.7262 53.1129C45.9929 54.6876 45.1383 56.7329 45.3983 58.7689C45.5636 60.0516 46.1062 61.1636 46.7689 61.9782C46.7689 61.9809 50.6662 66.3049 51.2689 66.9956C51.7569 67.5582 56.3115 72.6088 56.6475 72.9942C57.1649 72.3995 66.5023 61.9742 66.5023 61.9742Z" fill="white"/>
</mask>
<g mask="url(#mask3_4_321)">
<path d="M66.5023 61.9742C67.1636 61.1556 67.7182 60.0635 67.8836 58.7915C68.1396 56.7902 67.2009 54.8449 65.5396 53.1129C63.2156 50.6889 60.081 50.5489 57.8703 52.7036C57.549 53.0182 57.2476 53.3729 56.985 53.7729C56.7196 53.4742 56.4356 53.2156 56.1316 53.0022C55.7569 52.6302 55.0756 52.7276 54.641 52.5129C54.149 52.2689 53.3569 51.6955 52.8315 51.6635C51.1822 51.1155 49.3089 51.6769 47.7262 53.1129C45.9929 54.6876 45.1383 56.7329 45.3983 58.7689C45.5636 60.0516 46.1062 61.1636 46.7689 61.9782C46.7689 61.9809 50.6662 66.3049 51.2689 66.9956C51.7569 67.5582 56.3115 72.6088 56.6475 72.9942C57.1649 72.3995 66.5023 61.9742 66.5023 61.9742Z" fill="url(#paint3_linear_4_321)"/>
</g>
<mask id="mask4_4_321" style="mask-type:luminance" maskUnits="userSpaceOnUse" x="45" y="51" width="23" height="22">
<path d="M66.2596 61.9942C66.9503 61.1449 67.4996 60.0062 67.6369 58.7049C67.8636 56.5596 66.7143 54.6223 64.9756 53.0543C62.7623 51.0543 59.9316 50.9156 57.8996 52.8876C57.6009 53.1769 57.3222 53.501 57.0769 53.8663C56.8329 53.6343 56.5715 53.4369 56.2969 53.2782C56.1169 53.0982 55.8116 53.105 55.5129 53.113C55.2823 53.1183 55.0556 53.1236 54.8916 53.0449C54.4689 52.8369 53.6649 52.1396 53.2116 52.1103C51.6756 51.4236 49.8382 51.8543 48.2542 53.0543C46.4236 54.4423 45.377 56.5116 45.6063 58.6863C45.7463 60.0009 46.2849 61.153 46.9769 61.9983C46.9769 62.0036 50.5703 65.9969 51.3703 66.9196C52.0209 67.6703 56.1809 72.2916 56.6289 72.8062C57.3169 72.0129 66.2596 61.9942 66.2596 61.9942Z" fill="white"/>
</mask>
<g mask="url(#mask4_4_321)">
<path d="M66.2596 61.9942C66.9503 61.1449 67.4996 60.0062 67.6369 58.7049C67.8636 56.5596 66.7143 54.6223 64.9756 53.0543C62.7623 51.0543 59.9316 50.9156 57.8996 52.8876C57.6009 53.1769 57.3222 53.501 57.0769 53.8663C56.8329 53.6343 56.5715 53.4369 56.2969 53.2782C56.1169 53.0982 55.8116 53.105 55.5129 53.113C55.2823 53.1183 55.0556 53.1236 54.8916 53.0449C54.4689 52.8369 53.6649 52.1396 53.2116 52.1103C51.6756 51.4236 49.8382 51.8543 48.2542 53.0543C46.4236 54.4423 45.377 56.5116 45.6063 58.6863C45.7463 60.0009 46.2849 61.153 46.9769 61.9983C46.9769 62.0036 50.5703 65.9969 51.3703 66.9196C52.0209 67.6703 56.1809 72.2916 56.6289 72.8062C57.3169 72.0129 66.2596 61.9942 66.2596 61.9942Z" fill="url(#paint4_linear_4_321)"/>
</g>
<mask id="mask5_4_321" style="mask-type:luminance" maskUnits="userSpaceOnUse" x="45" y="51" width="23" height="22">
<path d="M66.0156 62.0129C66.7369 61.1329 67.2796 59.9542 67.3916 58.6196C67.585 56.3289 66.2436 54.3995 64.4116 52.9955C62.3342 51.4049 59.7836 51.2822 57.9263 53.0716C57.6516 53.3342 57.3969 53.6315 57.1703 53.9622C56.9463 53.7928 56.7089 53.6555 56.4636 53.5555C56.3182 53.4115 56.0343 53.4755 55.7543 53.5382C55.5183 53.5929 55.2849 53.6462 55.1436 53.5768C54.7916 53.4035 53.9703 52.5836 53.5943 52.5609C52.1703 51.7329 50.3609 52.0222 48.7809 52.9955C46.8463 54.1902 45.6183 56.2862 45.8129 58.6035C45.9263 59.9475 46.461 61.1395 47.1863 62.0209C47.1863 62.0249 50.4729 65.6915 51.4729 66.8435C52.2863 67.7809 56.0489 71.9755 56.6089 72.6182C57.4702 71.6249 66.0156 62.0129 66.0156 62.0129Z" fill="white"/>
</mask>
<g mask="url(#mask5_4_321)">
<path d="M66.0156 62.0129C66.7369 61.1329 67.2796 59.9542 67.3916 58.6196C67.585 56.3289 66.2436 54.3995 64.4116 52.9955C62.3342 51.4049 59.7836 51.2822 57.9263 53.0716C57.6516 53.3342 57.3969 53.6315 57.1703 53.9622C56.9463 53.7928 56.7089 53.6555 56.4636 53.5555C56.3182 53.4115 56.0343 53.4755 55.7543 53.5382C55.5183 53.5929 55.2849 53.6462 55.1436 53.5768C54.7916 53.4035 53.9703 52.5836 53.5943 52.5609C52.1703 51.7329 50.3609 52.0222 48.7809 52.9955C46.8463 54.1902 45.6183 56.2862 45.8129 58.6035C45.9263 59.9475 46.461 61.1395 47.1863 62.0209C47.1863 62.0249 50.4729 65.6915 51.4729 66.8435C52.2863 67.7809 56.0489 71.9755 56.6089 72.6182C57.4702 71.6249 66.0156 62.0129 66.0156 62.0129Z" fill="url(#paint5_linear_4_321)"/>
</g>
<mask id="mask6_4_321" style="mask-type:luminance" maskUnits="userSpaceOnUse" x="46" y="52" width="22" height="21">
<path d="M65.7743 62.0329C66.525 61.1209 67.0583 59.8969 67.1463 58.5329C67.3037 56.0969 65.7943 54.1676 63.8503 52.9382C61.937 51.7316 59.6396 51.6542 57.953 53.2569C57.7036 53.4942 57.4703 53.7609 57.265 54.0556C57.0596 53.9542 56.8463 53.8782 56.6303 53.8329C56.5183 53.7196 56.2477 53.8382 55.9823 53.9556C55.745 54.0622 55.5117 54.1689 55.3944 54.1116C55.113 53.9716 54.277 53.0276 53.977 53.0089C52.665 52.0396 50.877 52.1809 49.3103 52.9382C47.2596 53.9316 45.8623 56.0649 46.021 58.5209C46.1103 59.8956 46.6357 61.1303 47.3917 62.0409C47.3917 62.0476 50.3743 65.3836 51.577 66.7676C52.553 67.8916 55.9183 71.6569 56.5903 72.4302C57.625 71.2382 65.7743 62.0329 65.7743 62.0329Z" fill="white"/>
</mask>
<g mask="url(#mask6_4_321)">
<path d="M65.7743 62.0329C66.525 61.1209 67.0583 59.8969 67.1463 58.5329C67.3037 56.0969 65.7943 54.1676 63.8503 52.9382C61.937 51.7316 59.6396 51.6542 57.953 53.2569C57.7036 53.4942 57.4703 53.7609 57.265 54.0556C57.0596 53.9542 56.8463 53.8782 56.6303 53.8329C56.5183 53.7196 56.2477 53.8382 55.9823 53.9556C55.745 54.0622 55.5117 54.1689 55.3944 54.1116C55.113 53.9716 54.277 53.0276 53.977 53.0089C52.665 52.0396 50.877 52.1809 49.3103 52.9382C47.2596 53.9316 45.8623 56.0649 46.021 58.5209C46.1103 59.8956 46.6357 61.1303 47.3917 62.0409C47.3917 62.0476 50.3743 65.3836 51.577 66.7676C52.553 67.8916 55.9183 71.6569 56.5903 72.4302C57.625 71.2382 65.7743 62.0329 65.7743 62.0329Z" fill="url(#paint6_linear_4_321)"/>
</g>
<mask id="mask7_4_321" style="mask-type:luminance" maskUnits="userSpaceOnUse" x="46" y="52" width="21" height="21">
<path d="M65.5329 62.0528C66.3129 61.1102 66.8342 59.8436 66.8996 58.4462C67.0209 55.8662 65.3623 53.9089 63.2876 52.8809C61.5623 52.0262 59.4862 52.0182 57.9809 53.4409C57.7569 53.6529 57.5449 53.8902 57.3569 54.1515C57.1716 54.1129 56.9849 54.0982 56.7982 54.1089C56.7142 54.0262 56.4582 54.1968 56.2049 54.3688C55.9689 54.5288 55.7356 54.6875 55.6462 54.6435C55.4329 54.5395 54.5836 53.4716 54.3569 53.4569C53.1569 52.3476 51.3849 52.3302 49.8369 52.8809C47.6662 53.6542 46.1089 55.8409 46.2289 58.4396C46.2956 59.8449 46.8129 61.1182 47.6009 62.0609C47.6009 62.0689 50.2769 65.0782 51.6782 66.6915C52.8182 68.0048 55.7876 71.3422 56.5702 72.2435C57.7769 70.8515 65.5329 62.0528 65.5329 62.0528Z" fill="white"/>
</mask>
<g mask="url(#mask7_4_321)">
<path d="M65.5329 62.0528C66.3129 61.1102 66.8342 59.8436 66.8996 58.4462C67.0209 55.8662 65.3623 53.9089 63.2876 52.8809C61.5623 52.0262 59.4862 52.0182 57.9809 53.4409C57.7569 53.6529 57.5449 53.8902 57.3569 54.1515C57.1716 54.1129 56.9849 54.0982 56.7982 54.1089C56.7142 54.0262 56.4582 54.1968 56.2049 54.3688C55.9689 54.5288 55.7356 54.6875 55.6462 54.6435C55.4329 54.5395 54.5836 53.4716 54.3569 53.4569C53.1569 52.3476 51.3849 52.3302 49.8369 52.8809C47.6662 53.6542 46.1089 55.8409 46.2289 58.4396C46.2956 59.8449 46.8129 61.1182 47.6009 62.0609C47.6009 62.0689 50.2769 65.0782 51.6782 66.6915C52.8182 68.0048 55.7876 71.3422 56.5702 72.2435C57.7769 70.8515 65.5329 62.0528 65.5329 62.0528Z" fill="url(#paint7_linear_4_321)"/>
</g>
<mask id="mask8_4_321" style="mask-type:luminance" maskUnits="userSpaceOnUse" x="46" y="52" width="21" height="21">
<path d="M65.2903 62.0729C66.0996 61.0996 66.6116 59.7876 66.6542 58.361C66.7356 55.6356 64.9516 53.6063 62.7236 52.8236C61.2022 52.2889 59.3383 52.385 58.009 53.625C57.8076 53.813 57.6209 54.0183 57.4516 54.2463C57.2849 54.2743 57.1222 54.321 56.9636 54.3876C56.9089 54.3316 56.6649 54.5556 56.4209 54.7783C56.1876 54.9929 55.957 55.2063 55.8956 55.177C55.7543 55.1076 54.889 53.9157 54.7383 53.9077C53.6516 52.657 51.8969 52.4663 50.3649 52.8236C48.0729 53.3596 46.3556 55.617 46.437 58.3557C46.4796 59.7917 46.989 61.1076 47.809 62.0823C47.809 62.0916 50.1783 64.7716 51.781 66.6156C53.0836 68.1156 55.6556 71.025 56.5516 72.0543C57.9303 70.4676 65.2903 62.0729 65.2903 62.0729Z" fill="white"/>
</mask>
<g mask="url(#mask8_4_321)">
<path d="M65.2903 62.0729C66.0996 61.0996 66.6116 59.7876 66.6542 58.361C66.7356 55.6356 64.9516 53.6063 62.7236 52.8236C61.2022 52.2889 59.3383 52.385 58.009 53.625C57.8076 53.813 57.6209 54.0183 57.4516 54.2463C57.2849 54.2743 57.1222 54.321 56.9636 54.3876C56.9089 54.3316 56.6649 54.5556 56.4209 54.7783C56.1876 54.9929 55.957 55.2063 55.8956 55.177C55.7543 55.1076 54.889 53.9157 54.7383 53.9077C53.6516 52.657 51.8969 52.4663 50.3649 52.8236C48.0729 53.3596 46.3556 55.617 46.437 58.3557C46.4796 59.7917 46.989 61.1076 47.809 62.0823C47.809 62.0916 50.1783 64.7716 51.781 66.6156C53.0836 68.1156 55.6556 71.025 56.5516 72.0543C57.9303 70.4676 65.2903 62.0729 65.2903 62.0729Z" fill="url(#paint8_linear_4_321)"/>
</g>
<mask id="mask9_4_321" style="mask-type:luminance" maskUnits="userSpaceOnUse" x="46" y="52" width="21" height="20">
<path d="M65.0476 62.0928C65.8863 61.0888 66.3849 59.7328 66.4076 58.2768C66.4476 55.4021 64.5463 53.2181 62.1596 52.7648C60.8383 52.5141 59.1863 52.7488 58.0356 53.8088C57.8596 53.9715 57.6956 54.1488 57.545 54.3408C57.3983 54.4341 57.2596 54.5408 57.1289 54.6634C57.1023 54.6354 56.8676 54.9101 56.6343 55.1848C56.405 55.4554 56.1769 55.7235 56.1463 55.7102C56.0769 55.6742 55.197 54.3595 55.121 54.3541C54.145 52.9648 52.4089 52.5901 50.8929 52.7648C48.4823 53.0421 46.6036 55.3955 46.6463 58.2728C46.6663 59.7408 47.1662 61.0955 48.0156 62.1035C48.0156 62.1141 50.0823 64.4662 51.885 66.5395C53.3503 68.2262 55.5249 70.7075 56.5329 71.8662C58.0836 70.0795 65.0476 62.0928 65.0476 62.0928Z" fill="white"/>
</mask>
<g mask="url(#mask9_4_321)">
<path d="M65.0476 62.0928C65.8863 61.0888 66.3849 59.7328 66.4076 58.2768C66.4476 55.4021 64.5463 53.2181 62.1596 52.7648C60.8383 52.5141 59.1863 52.7488 58.0356 53.8088C57.8596 53.9715 57.6956 54.1488 57.545 54.3408C57.3983 54.4341 57.2596 54.5408 57.1289 54.6634C57.1023 54.6354 56.8676 54.9101 56.6343 55.1848C56.405 55.4554 56.1769 55.7235 56.1463 55.7102C56.0769 55.6742 55.197 54.3595 55.121 54.3541C54.145 52.9648 52.4089 52.5901 50.8929 52.7648C48.4823 53.0421 46.6036 55.3955 46.6463 58.2728C46.6663 59.7408 47.1662 61.0955 48.0156 62.1035C48.0156 62.1141 50.0823 64.4662 51.885 66.5395C53.3503 68.2262 55.5249 70.7075 56.5329 71.8662C58.0836 70.0795 65.0476 62.0928 65.0476 62.0928Z" fill="url(#paint9_linear_4_321)"/>
</g>
<mask id="mask10_4_321" style="mask-type:luminance" maskUnits="userSpaceOnUse" x="46" y="52" width="21" height="20">
<path d="M64.805 62.1129C65.6743 61.0769 66.1623 59.6795 66.1623 58.1915C66.1623 55.1715 64.1183 52.7075 61.5969 52.7075C60.0783 52.7075 58.149 53.4182 57.2943 54.9408L56.3983 56.2422L55.5023 54.8035C54.6383 53.2715 52.9316 52.7075 51.4209 52.7075C48.9023 52.7075 46.853 55.1715 46.853 58.1915C46.853 59.6888 47.3423 61.0835 48.225 62.1248C48.225 62.1355 49.9849 64.1569 51.9876 66.4635C53.6156 68.3395 55.3943 70.3929 56.513 71.6795C58.2383 69.6929 64.805 62.1129 64.805 62.1129Z" fill="white"/>
</mask>
<g mask="url(#mask10_4_321)">
<path d="M64.805 62.1129C65.6743 61.0769 66.1623 59.6795 66.1623 58.1915C66.1623 55.1715 64.1183 52.7075 61.5969 52.7075C60.0783 52.7075 58.149 53.4182 57.2943 54.9408L56.3983 56.2422L55.5023 54.8035C54.6383 53.2715 52.9316 52.7075 51.4209 52.7075C48.9023 52.7075 46.853 55.1715 46.853 58.1915C46.853 59.6888 47.3423 61.0835 48.225 62.1248C48.225 62.1355 49.9849 64.1569 51.9876 66.4635C53.6156 68.3395 55.3943 70.3929 56.513 71.6795C58.2383 69.6929 64.805 62.1129 64.805 62.1129Z" fill="url(#paint10_linear_4_321)"/>
</g>
<mask id="mask11_4_321" style="mask-type:luminance" maskUnits="userSpaceOnUse" x="59" y="27" width="25" height="24">
<path d="M82.3409 38.7782C83.6769 37.0808 84.9756 34.0915 82.3409 30.1409C79.8409 26.4022 75.637 26.3089 72.8983 29.0089C72.501 29.4009 72.1356 29.8475 71.813 30.3515C71.493 29.8542 71.1316 29.4155 70.7409 29.0302C68.0036 26.3222 63.853 26.4515 61.253 30.1409C58.6516 33.8449 59.9236 37.0768 61.253 38.7782L71.813 50.4155L82.3409 38.7782Z" fill="white"/>
</mask>
<g mask="url(#mask11_4_321)">
<path d="M82.3409 38.7782C83.6769 37.0808 84.9756 34.0915 82.3409 30.1409C79.8409 26.4022 75.637 26.3089 72.8983 29.0089C72.501 29.4009 72.1356 29.8475 71.813 30.3515C71.493 29.8542 71.1316 29.4155 70.7409 29.0302C68.0036 26.3222 63.853 26.4515 61.253 30.1409C58.6516 33.8449 59.9236 37.0768 61.253 38.7782L71.813 50.4155L82.3409 38.7782Z" fill="url(#paint11_linear_4_321)"/>
</g>
<mask id="mask12_4_321" style="mask-type:luminance" maskUnits="userSpaceOnUse" x="59" y="27" width="25" height="24">
<path d="M82.0982 38.7995C82.7022 38.0395 83.2663 37.0316 83.4863 35.8196C83.7983 34.1076 83.3249 32.1582 81.7783 30.0835C79.3196 26.7862 75.4876 26.6756 72.9263 29.1929C72.5516 29.5596 72.2089 29.9756 71.9063 30.4463C71.6063 30.0156 71.2702 29.6355 70.9076 29.3062C70.4249 28.8289 69.8049 28.5822 69.2449 28.3049C68.6102 27.9916 67.8489 27.6649 67.1676 27.6222C65.2982 27.3582 63.3236 28.1715 61.7796 30.0835C60.2089 32.0315 59.7743 34.0355 60.093 35.7929C60.3143 37.0129 60.8663 38.0475 61.4623 38.7995C61.4623 38.7995 65.9689 43.7769 66.1703 44.0075C66.3329 44.1955 71.681 50.0996 71.7943 50.2276C71.965 50.0289 82.0982 38.7995 82.0982 38.7995Z" fill="white"/>
</mask>
<g mask="url(#mask12_4_321)">
<path d="M82.0982 38.7995C82.7022 38.0395 83.2663 37.0316 83.4863 35.8196C83.7983 34.1076 83.3249 32.1582 81.7783 30.0835C79.3196 26.7862 75.4876 26.6756 72.9263 29.1929C72.5516 29.5596 72.2089 29.9756 71.9063 30.4463C71.6063 30.0156 71.2702 29.6355 70.9076 29.3062C70.4249 28.8289 69.8049 28.5822 69.2449 28.3049C68.6102 27.9916 67.8489 27.6649 67.1676 27.6222C65.2982 27.3582 63.3236 28.1715 61.7796 30.0835C60.2089 32.0315 59.7743 34.0355 60.093 35.7929C60.3143 37.0129 60.8663 38.0475 61.4623 38.7995C61.4623 38.7995 65.9689 43.7769 66.1703 44.0075C66.3329 44.1955 71.681 50.0996 71.7943 50.2276C71.965 50.0289 82.0982 38.7995 82.0982 38.7995Z" fill="url(#paint12_linear_4_321)"/>
</g>
<mask id="mask13_4_321" style="mask-type:luminance" maskUnits="userSpaceOnUse" x="60" y="27" width="24" height="24">
<path d="M81.8542 38.8182C82.4889 38.0275 83.0502 36.9768 83.2422 35.7328C83.5262 33.8795 82.8129 31.9275 81.2142 30.0275C78.8129 27.1715 75.3395 27.0422 72.9529 29.3782C72.6049 29.7168 72.2849 30.1049 72.0009 30.5395C71.7195 30.1729 71.4062 29.8568 71.0742 29.5835C70.6462 29.1608 69.9942 29.0848 69.4969 28.8395C68.9329 28.5608 68.1569 28.1088 67.5529 28.0728C65.7942 27.6662 63.8729 28.3555 62.3089 30.0275C60.6596 31.7888 60.0102 33.8142 60.3022 35.7115C60.4929 36.9635 61.0422 38.0369 61.6702 38.8209C61.6702 38.8209 65.8716 43.4689 66.2742 43.9329C66.5982 44.3089 71.5529 49.7822 71.7742 50.0408C72.1196 49.6422 81.8542 38.8182 81.8542 38.8182Z" fill="white"/>
</mask>
<g mask="url(#mask13_4_321)">
<path d="M81.8542 38.8182C82.4889 38.0275 83.0502 36.9768 83.2422 35.7328C83.5262 33.8795 82.8129 31.9275 81.2142 30.0275C78.8129 27.1715 75.3395 27.0422 72.9529 29.3782C72.6049 29.7168 72.2849 30.1049 72.0009 30.5395C71.7195 30.1729 71.4062 29.8568 71.0742 29.5835C70.6462 29.1608 69.9942 29.0848 69.4969 28.8395C68.9329 28.5608 68.1569 28.1088 67.5529 28.0728C65.7942 27.6662 63.8729 28.3555 62.3089 30.0275C60.6596 31.7888 60.0102 33.8142 60.3022 35.7115C60.4929 36.9635 61.0422 38.0369 61.6702 38.8209C61.6702 38.8209 65.8716 43.4689 66.2742 43.9329C66.5982 44.3089 71.5529 49.7822 71.7742 50.0408C72.1196 49.6422 81.8542 38.8182 81.8542 38.8182Z" fill="url(#paint13_linear_4_321)"/>
</g>
<mask id="mask14_4_321" style="mask-type:luminance" maskUnits="userSpaceOnUse" x="60" y="28" width="24" height="22">
<path d="M81.6129 38.8368C82.2769 38.0181 82.8329 36.9221 82.9956 35.6501C83.2516 33.6487 82.3116 31.7022 80.6516 29.9702C78.3316 27.5488 75.1942 27.4114 72.9809 29.5621C72.6569 29.8768 72.3609 30.2328 72.0942 30.6341C71.8316 30.3341 71.5449 30.0768 71.2396 29.8608C70.8649 29.4914 70.1822 29.5875 69.7475 29.3728C69.2542 29.1275 68.4635 28.5528 67.9355 28.5222C66.2889 27.9755 64.4169 28.5355 62.8356 29.9702C61.1023 31.5462 60.2476 33.5915 60.5089 35.6301C60.6743 36.9115 61.2195 38.0248 61.8795 38.8395C61.8795 38.8448 65.7743 43.1635 66.3769 43.8568C66.8649 44.4195 71.4222 49.4688 71.7569 49.8528C72.2729 49.2568 81.6129 38.8368 81.6129 38.8368Z" fill="white"/>
</mask>
<g mask="url(#mask14_4_321)">
<path d="M81.6129 38.8368C82.2769 38.0181 82.8329 36.9221 82.9956 35.6501C83.2516 33.6487 82.3116 31.7022 80.6516 29.9702C78.3316 27.5488 75.1942 27.4114 72.9809 29.5621C72.6569 29.8768 72.3609 30.2328 72.0942 30.6341C71.8316 30.3341 71.5449 30.0768 71.2396 29.8608C70.8649 29.4914 70.1822 29.5875 69.7475 29.3728C69.2542 29.1275 68.4635 28.5528 67.9355 28.5222C66.2889 27.9755 64.4169 28.5355 62.8356 29.9702C61.1023 31.5462 60.2476 33.5915 60.5089 35.6301C60.6743 36.9115 61.2195 38.0248 61.8795 38.8395C61.8795 38.8448 65.7743 43.1635 66.3769 43.8568C66.8649 44.4195 71.4222 49.4688 71.7569 49.8528C72.2729 49.2568 81.6129 38.8368 81.6129 38.8368Z" fill="url(#paint14_linear_4_321)"/>
</g>
<mask id="mask15_4_321" style="mask-type:luminance" maskUnits="userSpaceOnUse" x="60" y="28" width="23" height="22">
<path d="M81.3702 38.8556C82.0636 38.0062 82.6142 36.8675 82.7515 35.5622C82.9755 33.4169 81.8262 31.4809 80.0902 29.9116C77.8769 27.9156 75.0449 27.7782 73.0102 29.7462C72.7102 30.0355 72.4342 30.3622 72.1875 30.7276C71.9449 30.4929 71.6809 30.2969 71.4049 30.1382C71.2249 29.9582 70.9195 29.9662 70.6222 29.9742C70.3902 29.9796 70.1635 29.9862 70.0009 29.9062C69.5769 29.6955 68.7716 28.9982 68.3182 28.9715C66.7822 28.2849 64.9462 28.7116 63.3649 29.9116C61.5355 31.3009 60.4875 33.3688 60.7168 35.5462C60.8542 36.8595 61.3956 38.0142 62.0889 38.8609C62.0889 38.8649 65.6769 42.8569 66.4795 43.7809C67.1302 44.5302 71.2929 49.1515 71.7382 49.6662C72.4249 48.8702 81.3702 38.8556 81.3702 38.8556Z" fill="white"/>
</mask>
<g mask="url(#mask15_4_321)">
<path d="M81.3702 38.8556C82.0636 38.0062 82.6142 36.8675 82.7515 35.5622C82.9755 33.4169 81.8262 31.4809 80.0902 29.9116C77.8769 27.9156 75.0449 27.7782 73.0102 29.7462C72.7102 30.0355 72.4342 30.3622 72.1875 30.7276C71.9449 30.4929 71.6809 30.2969 71.4049 30.1382C71.2249 29.9582 70.9195 29.9662 70.6222 29.9742C70.3902 29.9796 70.1635 29.9862 70.0009 29.9062C69.5769 29.6955 68.7716 28.9982 68.3182 28.9715C66.7822 28.2849 64.9462 28.7116 63.3649 29.9116C61.5355 31.3009 60.4875 33.3688 60.7168 35.5462C60.8542 36.8595 61.3956 38.0142 62.0889 38.8609C62.0889 38.8649 65.6769 42.8569 66.4795 43.7809C67.1302 44.5302 71.2929 49.1515 71.7382 49.6662C72.4249 48.8702 81.3702 38.8556 81.3702 38.8556Z" fill="url(#paint15_linear_4_321)"/>
</g>
<mask id="mask16_4_321" style="mask-type:luminance" maskUnits="userSpaceOnUse" x="60" y="28" width="23" height="22">
<path d="M81.1263 38.877C81.8516 37.9943 82.393 36.8129 82.5036 35.4783C82.697 33.1849 81.3543 31.257 79.5263 29.8556C77.4503 28.2636 74.901 28.1489 73.037 29.9316C72.761 30.1956 72.5076 30.4916 72.2823 30.8223C72.0583 30.6529 71.8183 30.5183 71.5717 30.4156C71.4277 30.2716 71.1436 30.3356 70.8623 30.3996C70.6263 30.4542 70.3943 30.5089 70.2503 30.4382C69.8996 30.2649 69.0783 29.441 68.701 29.4183C67.277 28.593 65.469 28.881 63.8917 29.8556C61.9583 31.0503 60.7303 33.145 60.9263 35.4636C61.0383 36.809 61.5716 38.0022 62.2956 38.8822C62.2956 38.8862 65.5796 42.5489 66.5836 43.7049C67.3943 44.6422 71.1623 48.8343 71.7196 49.4783C72.5783 48.4836 81.1263 38.877 81.1263 38.877Z" fill="white"/>
</mask>
<g mask="url(#mask16_4_321)">
<path d="M81.1263 38.877C81.8516 37.9943 82.393 36.8129 82.5036 35.4783C82.697 33.1849 81.3543 31.257 79.5263 29.8556C77.4503 28.2636 74.901 28.1489 73.037 29.9316C72.761 30.1956 72.5076 30.4916 72.2823 30.8223C72.0583 30.6529 71.8183 30.5183 71.5717 30.4156C71.4277 30.2716 71.1436 30.3356 70.8623 30.3996C70.6263 30.4542 70.3943 30.5089 70.2503 30.4382C69.8996 30.2649 69.0783 29.441 68.701 29.4183C67.277 28.593 65.469 28.881 63.8917 29.8556C61.9583 31.0503 60.7303 33.145 60.9263 35.4636C61.0383 36.809 61.5716 38.0022 62.2956 38.8822C62.2956 38.8862 65.5796 42.5489 66.5836 43.7049C67.3943 44.6422 71.1623 48.8343 71.7196 49.4783C72.5783 48.4836 81.1263 38.877 81.1263 38.877Z" fill="url(#paint16_linear_4_321)"/>
</g>
<mask id="mask17_4_321" style="mask-type:luminance" maskUnits="userSpaceOnUse" x="61" y="28" width="22" height="22">
<path d="M80.8849 38.8954C81.6383 37.9834 82.1715 36.7581 82.2582 35.3915C82.4155 32.9555 80.9036 31.0234 78.9622 29.7994C77.0529 28.5914 74.7529 28.5168 73.0662 30.1141C72.8129 30.3528 72.5809 30.6195 72.3756 30.9155C72.1702 30.8128 71.9556 30.7381 71.7383 30.6914C71.6263 30.5794 71.3569 30.6981 71.0902 30.8167C70.8542 30.9234 70.6209 31.0288 70.5023 30.9715C70.2209 30.8328 69.3849 29.8861 69.0836 29.8674C67.7716 28.8994 65.9836 29.0407 64.4196 29.7994C62.3716 30.7901 60.9742 32.9221 61.1329 35.3808C61.2222 36.7568 61.7475 37.9915 62.5049 38.9008C62.5049 38.9088 65.4823 42.2421 66.6863 43.6288C67.6609 44.7541 71.0316 48.5195 71.7009 49.2901C72.7329 48.0968 80.8849 38.8954 80.8849 38.8954Z" fill="white"/>
</mask>
<g mask="url(#mask17_4_321)">
<path d="M80.8849 38.8954C81.6383 37.9834 82.1715 36.7581 82.2582 35.3915C82.4155 32.9555 80.9036 31.0234 78.9622 29.7994C77.0529 28.5914 74.7529 28.5168 73.0662 30.1141C72.8129 30.3528 72.5809 30.6195 72.3756 30.9155C72.1702 30.8128 71.9556 30.7381 71.7383 30.6914C71.6263 30.5794 71.3569 30.6981 71.0902 30.8167C70.8542 30.9234 70.6209 31.0288 70.5023 30.9715C70.2209 30.8328 69.3849 29.8861 69.0836 29.8674C67.7716 28.8994 65.9836 29.0407 64.4196 29.7994C62.3716 30.7901 60.9742 32.9221 61.1329 35.3808C61.2222 36.7568 61.7475 37.9915 62.5049 38.9008C62.5049 38.9088 65.4823 42.2421 66.6863 43.6288C67.6609 44.7541 71.0316 48.5195 71.7009 49.2901C72.7329 48.0968 80.8849 38.8954 80.8849 38.8954Z" fill="url(#paint17_linear_4_321)"/>
</g>
<mask id="mask18_4_321" style="mask-type:luminance" maskUnits="userSpaceOnUse" x="61" y="29" width="22" height="21">
<path d="M80.6422 38.9142C81.4249 37.9715 81.9489 36.7022 82.0129 35.3062C82.1329 32.7248 80.4742 30.7689 78.3996 29.7409C76.6782 28.8889 74.6009 28.8795 73.0915 30.2982C72.8649 30.5115 72.6569 30.7488 72.4689 31.0115C72.2836 30.9715 72.0929 30.9582 71.9049 30.9688C71.8223 30.8862 71.5662 31.0582 71.3129 31.2289C71.0782 31.3889 70.8449 31.5488 70.7542 31.5035C70.5422 31.3995 69.6915 30.3288 69.4662 30.3168C68.2662 29.2088 66.4929 29.1889 64.9476 29.7409C62.7809 30.5169 61.2182 32.6995 61.3409 35.2982C61.4062 36.7049 61.9235 37.9795 62.7129 38.9222C62.7129 38.9302 65.3849 41.9328 66.7903 43.5528C67.9263 44.8662 70.9009 48.2022 71.6822 49.1035C72.8849 47.7102 80.6422 38.9142 80.6422 38.9142Z" fill="white"/>
</mask>
<g mask="url(#mask18_4_321)">
<path d="M80.6422 38.9142C81.4249 37.9715 81.9489 36.7022 82.0129 35.3062C82.1329 32.7248 80.4742 30.7689 78.3996 29.7409C76.6782 28.8889 74.6009 28.8795 73.0915 30.2982C72.8649 30.5115 72.6569 30.7488 72.4689 31.0115C72.2836 30.9715 72.0929 30.9582 71.9049 30.9688C71.8223 30.8862 71.5662 31.0582 71.3129 31.2289C71.0782 31.3889 70.8449 31.5488 70.7542 31.5035C70.5422 31.3995 69.6915 30.3288 69.4662 30.3168C68.2662 29.2088 66.4929 29.1889 64.9476 29.7409C62.7809 30.5169 61.2182 32.6995 61.3409 35.2982C61.4062 36.7049 61.9235 37.9795 62.7129 38.9222C62.7129 38.9302 65.3849 41.9328 66.7903 43.5528C67.9263 44.8662 70.9009 48.2022 71.6822 49.1035C72.8849 47.7102 80.6422 38.9142 80.6422 38.9142Z" fill="url(#paint18_linear_4_321)"/>
</g>
<mask id="mask19_4_321" style="mask-type:luminance" maskUnits="userSpaceOnUse" x="61" y="29" width="21" height="20">
<path d="M80.3996 38.9328C81.2129 37.9608 81.7236 36.6462 81.7676 35.2208C81.8489 32.4915 80.0609 30.4635 77.8382 29.6835C76.3182 29.1502 74.4516 29.2475 73.1196 30.4835C72.9182 30.6715 72.7316 30.8781 72.5636 31.1048C72.3956 31.1315 72.2303 31.1795 72.0716 31.2462C72.017 31.1915 71.773 31.4155 71.5303 31.6382C71.297 31.8528 71.0663 32.0675 71.0063 32.0381C70.8636 31.9675 69.9982 30.7742 69.8489 30.7662C68.7622 29.5168 67.0036 29.3262 65.4756 29.6835C63.1863 30.2195 61.4663 32.4755 61.5489 35.2155C61.5916 36.6528 62.0996 37.9688 62.9223 38.9435C62.9223 38.9528 65.2876 41.6262 66.8943 43.4782C68.1916 44.9782 70.7716 47.8862 71.6649 48.9155C73.0382 47.3248 80.3996 38.9328 80.3996 38.9328Z" fill="white"/>
</mask>
<g mask="url(#mask19_4_321)">
<path d="M80.3996 38.9328C81.2129 37.9608 81.7236 36.6462 81.7676 35.2208C81.8489 32.4915 80.0609 30.4635 77.8382 29.6835C76.3182 29.1502 74.4516 29.2475 73.1196 30.4835C72.9182 30.6715 72.7316 30.8781 72.5636 31.1048C72.3956 31.1315 72.2303 31.1795 72.0716 31.2462C72.017 31.1915 71.773 31.4155 71.5303 31.6382C71.297 31.8528 71.0663 32.0675 71.0063 32.0381C70.8636 31.9675 69.9982 30.7742 69.8489 30.7662C68.7622 29.5168 67.0036 29.3262 65.4756 29.6835C63.1863 30.2195 61.4663 32.4755 61.5489 35.2155C61.5916 36.6528 62.0996 37.9688 62.9223 38.9435C62.9223 38.9528 65.2876 41.6262 66.8943 43.4782C68.1916 44.9782 70.7716 47.8862 71.6649 48.9155C73.0382 47.3248 80.3996 38.9328 80.3996 38.9328Z" fill="url(#paint19_linear_4_321)"/>
</g>
<mask id="mask20_4_321" style="mask-type:luminance" maskUnits="userSpaceOnUse" x="61" y="29" width="21" height="20">
<path d="M80.1556 38.9542C80.9996 37.9488 81.5022 36.5915 81.5222 35.1355C81.5649 32.2608 79.6569 30.0795 77.2743 29.6261C75.9503 29.3755 74.305 29.6142 73.149 30.6662C72.9716 30.8302 72.8063 31.0075 72.6569 31.1995C72.5076 31.2902 72.3676 31.3995 72.2383 31.5222C72.2116 31.4955 71.9783 31.7702 71.7463 32.0448C71.517 32.3155 71.2889 32.5848 71.2569 32.5715C71.1863 32.5355 70.3089 31.2182 70.2329 31.2142C69.2543 29.8235 67.5169 29.4515 66.0036 29.6261C63.5956 29.9048 61.7156 32.2528 61.7569 35.1328C61.7783 36.6008 62.2756 37.9581 63.1316 38.9621C63.1316 38.9741 65.189 41.3195 66.9956 43.4009C68.4583 45.0889 70.6409 47.5715 71.6463 48.7275C73.1916 46.9368 80.1556 38.9542 80.1556 38.9542Z" fill="white"/>
</mask>
<g mask="url(#mask20_4_321)">
<path d="M80.1556 38.9542C80.9996 37.9488 81.5022 36.5915 81.5222 35.1355C81.5649 32.2608 79.6569 30.0795 77.2743 29.6261C75.9503 29.3755 74.305 29.6142 73.149 30.6662C72.9716 30.8302 72.8063 31.0075 72.6569 31.1995C72.5076 31.2902 72.3676 31.3995 72.2383 31.5222C72.2116 31.4955 71.9783 31.7702 71.7463 32.0448C71.517 32.3155 71.2889 32.5848 71.2569 32.5715C71.1863 32.5355 70.3089 31.2182 70.2329 31.2142C69.2543 29.8235 67.5169 29.4515 66.0036 29.6261C63.5956 29.9048 61.7156 32.2528 61.7569 35.1328C61.7783 36.6008 62.2756 37.9581 63.1316 38.9621C63.1316 38.9741 65.189 41.3195 66.9956 43.4009C68.4583 45.0889 70.6409 47.5715 71.6463 48.7275C73.1916 46.9368 80.1556 38.9542 80.1556 38.9542Z" fill="url(#paint20_linear_4_321)"/>
</g>
<mask id="mask21_4_321" style="mask-type:luminance" maskUnits="userSpaceOnUse" x="61" y="29" width="21" height="20">
<path d="M79.9129 38.9727C80.7862 37.9367 81.2769 36.5368 81.2769 35.0501C81.2769 32.0301 79.2262 29.5701 76.7116 29.5701C75.1916 29.5701 73.2623 30.2781 72.4049 31.7994L71.5089 33.1047L70.6142 31.6621C69.7489 30.1341 68.0396 29.5701 66.5316 29.5701C64.0169 29.5701 61.9635 32.0301 61.9635 35.0501C61.9635 36.5501 62.4515 37.9461 63.3382 38.9834C63.3382 38.9941 65.0916 41.0128 67.0996 43.3248C68.7236 45.2008 70.5116 47.2541 71.6276 48.5408C73.3449 46.5514 79.9129 38.9727 79.9129 38.9727Z" fill="white"/>
</mask>
<g mask="url(#mask21_4_321)">
<path d="M79.9129 38.9727C80.7862 37.9367 81.2769 36.5368 81.2769 35.0501C81.2769 32.0301 79.2262 29.5701 76.7116 29.5701C75.1916 29.5701 73.2623 30.2781 72.4049 31.7994L71.5089 33.1047L70.6142 31.6621C69.7489 30.1341 68.0396 29.5701 66.5316 29.5701C64.0169 29.5701 61.9635 32.0301 61.9635 35.0501C61.9635 36.5501 62.4515 37.9461 63.3382 38.9834C63.3382 38.9941 65.0916 41.0128 67.0996 43.3248C68.7236 45.2008 70.5116 47.2541 71.6276 48.5408C73.3449 46.5514 79.9129 38.9727 79.9129 38.9727Z" fill="url(#paint21_linear_4_321)"/>
</g>
<mask id="mask22_4_321" style="mask-type:luminance" maskUnits="userSpaceOnUse" x="28" y="27" width="26" height="24">
<path d="M51.5676 38.7782C52.9049 37.0808 54.2063 34.0915 51.5676 30.1409C49.0716 26.4022 44.8663 26.3089 42.129 29.0089C41.7316 29.4009 41.365 29.8475 41.045 30.3515C40.7223 29.8542 40.3623 29.4155 39.973 29.0302C37.2356 26.3222 33.0837 26.4515 30.485 30.1409C27.8837 33.8449 29.1543 37.0768 30.485 38.7782L41.045 50.4155L51.5676 38.7782Z" fill="white"/>
</mask>
<g mask="url(#mask22_4_321)">
<path d="M51.5676 38.7782C52.9049 37.0808 54.2063 34.0915 51.5676 30.1409C49.0716 26.4022 44.8663 26.3089 42.129 29.0089C41.7316 29.4009 41.365 29.8475 41.045 30.3515C40.7223 29.8542 40.3623 29.4155 39.973 29.0302C37.2356 26.3222 33.0837 26.4515 30.485 30.1409C27.8837 33.8449 29.1543 37.0768 30.485 38.7782L41.045 50.4155L51.5676 38.7782Z" fill="url(#paint22_linear_4_321)"/>
</g>
<mask id="mask23_4_321" style="mask-type:luminance" maskUnits="userSpaceOnUse" x="29" y="27" width="24" height="24">
<path d="M51.325 38.7994C51.929 38.0381 52.4956 37.0302 52.7156 35.8208C53.0276 34.1088 52.5529 32.1595 51.0036 30.0835C48.5463 26.7875 44.7183 26.6755 42.1556 29.1928C41.7836 29.5582 41.4383 29.9755 41.1383 30.4462C40.8343 30.0155 40.5009 29.6355 40.1396 29.3061C39.6569 28.8288 39.0356 28.5808 38.4756 28.3048C37.8409 27.9915 37.0809 27.6648 36.4009 27.6221C34.5329 27.3581 32.5543 28.1715 31.0103 30.0835C29.4396 32.0301 29.0049 34.0354 29.3236 35.7928C29.5449 37.0128 30.0969 38.0474 30.6916 38.7994C30.6916 38.7994 35.201 43.7768 35.4023 44.0075C35.565 44.1955 40.9129 50.0995 41.0249 50.2275C41.1983 50.0288 51.325 38.7994 51.325 38.7994Z" fill="white"/>
</mask>
<g mask="url(#mask23_4_321)">
<path d="M51.325 38.7994C51.929 38.0381 52.4956 37.0302 52.7156 35.8208C53.0276 34.1088 52.5529 32.1595 51.0036 30.0835C48.5463 26.7875 44.7183 26.6755 42.1556 29.1928C41.7836 29.5582 41.4383 29.9755 41.1383 30.4462C40.8343 30.0155 40.5009 29.6355 40.1396 29.3061C39.6569 28.8288 39.0356 28.5808 38.4756 28.3048C37.8409 27.9915 37.0809 27.6648 36.4009 27.6221C34.5329 27.3581 32.5543 28.1715 31.0103 30.0835C29.4396 32.0301 29.0049 34.0354 29.3236 35.7928C29.5449 37.0128 30.0969 38.0474 30.6916 38.7994C30.6916 38.7994 35.201 43.7768 35.4023 44.0075C35.565 44.1955 40.9129 50.0995 41.0249 50.2275C41.1983 50.0288 51.325 38.7994 51.325 38.7994Z" fill="url(#paint23_linear_4_321)"/>
</g>
<mask id="mask24_4_321" style="mask-type:luminance" maskUnits="userSpaceOnUse" x="29" y="27" width="24" height="24">
<path d="M51.0849 38.8182C51.7169 38.0276 52.2809 36.9756 52.4702 35.7342C52.7542 33.8809 52.0422 31.9289 50.4422 30.0275C48.0409 27.1729 44.5702 27.0422 42.1836 29.3782C41.8342 29.7169 41.5116 30.1049 41.2316 30.5409C40.9476 30.1729 40.6369 29.8569 40.3049 29.5835C39.8769 29.1609 39.2262 29.0836 38.7262 28.8382C38.1622 28.5609 37.3876 28.1089 36.7836 28.0729C35.0276 27.6662 33.1062 28.3542 31.5395 30.0275C29.8902 31.7875 29.2395 33.8142 29.5329 35.7115C29.7235 36.9635 30.2729 38.0369 30.9009 38.8209C30.9009 38.8209 35.1035 43.4689 35.5049 43.9329C35.8302 44.3089 40.7836 49.7822 41.0063 50.0409C41.3516 49.6422 51.0849 38.8182 51.0849 38.8182Z" fill="white"/>
</mask>
<g mask="url(#mask24_4_321)">
<path d="M51.0849 38.8182C51.7169 38.0276 52.2809 36.9756 52.4702 35.7342C52.7542 33.8809 52.0422 31.9289 50.4422 30.0275C48.0409 27.1729 44.5702 27.0422 42.1836 29.3782C41.8342 29.7169 41.5116 30.1049 41.2316 30.5409C40.9476 30.1729 40.6369 29.8569 40.3049 29.5835C39.8769 29.1609 39.2262 29.0836 38.7262 28.8382C38.1622 28.5609 37.3876 28.1089 36.7836 28.0729C35.0276 27.6662 33.1062 28.3542 31.5395 30.0275C29.8902 31.7875 29.2395 33.8142 29.5329 35.7115C29.7235 36.9635 30.2729 38.0369 30.9009 38.8209C30.9009 38.8209 35.1035 43.4689 35.5049 43.9329C35.8302 44.3089 40.7836 49.7822 41.0063 50.0409C41.3516 49.6422 51.0849 38.8182 51.0849 38.8182Z" fill="url(#paint24_linear_4_321)"/>
</g>
<mask id="mask25_4_321" style="mask-type:luminance" maskUnits="userSpaceOnUse" x="29" y="28" width="24" height="22">
<path d="M50.8423 38.8368C51.5049 38.0168 52.0622 36.9222 52.2249 35.6502C52.4809 33.6488 51.5409 31.7036 49.8795 29.9702C47.5582 27.5502 44.4222 27.4116 42.2116 29.5609C41.8889 29.8769 41.5876 30.2328 41.3262 30.6355C41.0622 30.3355 40.7756 30.0769 40.4716 29.8609C40.0969 29.4915 39.4142 29.5862 38.9795 29.3715C38.4849 29.1275 37.6942 28.5529 37.1662 28.5222C35.5209 27.9756 33.6475 28.5356 32.0662 29.9702C30.3315 31.5462 29.4796 33.5916 29.7396 35.6302C29.9049 36.9116 30.4476 38.0249 31.1102 38.8395C31.1102 38.8449 35.0063 43.1635 35.6063 43.8569C36.0956 44.4195 40.6529 49.4689 40.9875 49.8529C41.5049 49.2569 50.8423 38.8368 50.8423 38.8368Z" fill="white"/>
</mask>
<g mask="url(#mask25_4_321)">
<path d="M50.8423 38.8368C51.5049 38.0168 52.0622 36.9222 52.2249 35.6502C52.4809 33.6488 51.5409 31.7036 49.8795 29.9702C47.5582 27.5502 44.4222 27.4116 42.2116 29.5609C41.8889 29.8769 41.5876 30.2328 41.3262 30.6355C41.0622 30.3355 40.7756 30.0769 40.4716 29.8609C40.0969 29.4915 39.4142 29.5862 38.9795 29.3715C38.4849 29.1275 37.6942 28.5529 37.1662 28.5222C35.5209 27.9756 33.6475 28.5356 32.0662 29.9702C30.3315 31.5462 29.4796 33.5916 29.7396 35.6302C29.9049 36.9116 30.4476 38.0249 31.1102 38.8395C31.1102 38.8449 35.0063 43.1635 35.6063 43.8569C36.0956 44.4195 40.6529 49.4689 40.9875 49.8529C41.5049 49.2569 50.8423 38.8368 50.8423 38.8368Z" fill="url(#paint25_linear_4_321)"/>
</g>
<mask id="mask26_4_321" style="mask-type:luminance" maskUnits="userSpaceOnUse" x="29" y="28" width="24" height="22">
<path d="M50.5983 38.8556C51.2916 38.0049 51.8423 36.8662 51.9796 35.5635C52.205 33.4182 51.0543 31.4822 49.3156 29.9116C47.105 27.9156 44.2743 27.7782 42.2409 29.7462C41.9396 30.0355 41.6623 30.3609 41.4183 30.7289C41.1743 30.4942 40.9116 30.2969 40.6369 30.1382C40.4569 29.9582 40.1516 29.9662 39.8516 29.9728C39.6209 29.9795 39.393 29.9849 39.229 29.9049C38.809 29.6956 38.001 28.9982 37.549 28.9715C36.0143 28.2849 34.1783 28.7102 32.5943 29.9116C30.7636 31.2996 29.7183 33.3688 29.9476 35.5462C30.0863 36.8595 30.6236 38.0142 31.3169 38.8609C31.3169 38.8649 34.909 42.8569 35.7103 43.7809C36.361 44.5302 40.5223 49.1515 40.969 49.6662C41.657 48.8702 50.5983 38.8556 50.5983 38.8556Z" fill="white"/>
</mask>
<g mask="url(#mask26_4_321)">
<path d="M50.5983 38.8556C51.2916 38.0049 51.8423 36.8662 51.9796 35.5635C52.205 33.4182 51.0543 31.4822 49.3156 29.9116C47.105 27.9156 44.2743 27.7782 42.2409 29.7462C41.9396 30.0355 41.6623 30.3609 41.4183 30.7289C41.1743 30.4942 40.9116 30.2969 40.6369 30.1382C40.4569 29.9582 40.1516 29.9662 39.8516 29.9728C39.6209 29.9795 39.393 29.9849 39.229 29.9049C38.809 29.6956 38.001 28.9982 37.549 28.9715C36.0143 28.2849 34.1783 28.7102 32.5943 29.9116C30.7636 31.2996 29.7183 33.3688 29.9476 35.5462C30.0863 36.8595 30.6236 38.0142 31.3169 38.8609C31.3169 38.8649 34.909 42.8569 35.7103 43.7809C36.361 44.5302 40.5223 49.1515 40.969 49.6662C41.657 48.8702 50.5983 38.8556 50.5983 38.8556Z" fill="url(#paint26_linear_4_321)"/>
</g>
<mask id="mask27_4_321" style="mask-type:luminance" maskUnits="userSpaceOnUse" x="30" y="28" width="22" height="22">
<path d="M50.3556 38.8769C51.0796 37.9942 51.6223 36.8115 51.7329 35.4782C51.9263 33.1849 50.5849 31.2596 48.7529 29.8556C46.6783 28.2662 44.1249 28.1449 42.2676 29.9302C41.9929 30.1929 41.7382 30.4915 41.5116 30.8235C41.2876 30.6528 41.0502 30.5182 40.8036 30.4155C40.6596 30.2715 40.3743 30.3355 40.0943 30.3995C39.8569 30.4528 39.6249 30.5075 39.4823 30.4369C39.1289 30.2649 38.3076 29.4409 37.9303 29.4182C36.5076 28.5929 34.7023 28.8809 33.1223 29.8556C31.1876 31.0502 29.9582 33.1449 30.1542 35.4636C30.2676 36.8089 30.7996 38.0022 31.5263 38.8822C31.5263 38.8862 34.8103 42.5489 35.8129 43.7049C36.6249 44.6422 40.3916 48.8342 40.9503 49.4782C41.8103 48.4835 50.3556 38.8769 50.3556 38.8769Z" fill="white"/>
</mask>
<g mask="url(#mask27_4_321)">
<path d="M50.3556 38.8769C51.0796 37.9942 51.6223 36.8115 51.7329 35.4782C51.9263 33.1849 50.5849 31.2596 48.7529 29.8556C46.6783 28.2662 44.1249 28.1449 42.2676 29.9302C41.9929 30.1929 41.7382 30.4915 41.5116 30.8235C41.2876 30.6528 41.0502 30.5182 40.8036 30.4155C40.6596 30.2715 40.3743 30.3355 40.0943 30.3995C39.8569 30.4528 39.6249 30.5075 39.4823 30.4369C39.1289 30.2649 38.3076 29.4409 37.9303 29.4182C36.5076 28.5929 34.7023 28.8809 33.1223 29.8556C31.1876 31.0502 29.9582 33.1449 30.1542 35.4636C30.2676 36.8089 30.7996 38.0022 31.5263 38.8822C31.5263 38.8862 34.8103 42.5489 35.8129 43.7049C36.6249 44.6422 40.3916 48.8342 40.9503 49.4782C41.8103 48.4835 50.3556 38.8769 50.3556 38.8769Z" fill="url(#paint27_linear_4_321)"/>
</g>
<mask id="mask28_4_321" style="mask-type:luminance" maskUnits="userSpaceOnUse" x="30" y="28" width="22" height="22">
<path d="M50.1142 38.8955C50.8689 37.9822 51.3995 36.7569 51.4875 35.3915C51.6435 32.9555 50.1342 31.0262 48.1902 29.7995C46.2796 28.5928 43.9769 28.5129 42.2942 30.1129C42.0449 30.3515 41.8116 30.6182 41.6062 30.9182C41.4009 30.8129 41.1875 30.7382 40.9702 30.6915C40.8582 30.5795 40.5876 30.6982 40.3222 30.8168C40.0836 30.9222 39.8502 31.0289 39.7329 30.9715C39.4515 30.8329 38.6155 29.8862 38.3129 29.8675C37.0022 28.8995 35.2169 29.0395 33.6489 29.7995C31.6009 30.7888 30.2009 32.9222 30.3609 35.3809C30.4515 36.7569 30.9742 37.9916 31.7329 38.9009C31.7329 38.9089 34.7142 42.2422 35.9169 43.6288C36.8902 44.7542 40.2595 48.5195 40.9302 49.2902C41.9649 48.0969 50.1142 38.8955 50.1142 38.8955Z" fill="white"/>
</mask>
<g mask="url(#mask28_4_321)">
<path d="M50.1142 38.8955C50.8689 37.9822 51.3995 36.7569 51.4875 35.3915C51.6435 32.9555 50.1342 31.0262 48.1902 29.7995C46.2796 28.5928 43.9769 28.5129 42.2942 30.1129C42.0449 30.3515 41.8116 30.6182 41.6062 30.9182C41.4009 30.8129 41.1875 30.7382 40.9702 30.6915C40.8582 30.5795 40.5876 30.6982 40.3222 30.8168C40.0836 30.9222 39.8502 31.0289 39.7329 30.9715C39.4515 30.8329 38.6155 29.8862 38.3129 29.8675C37.0022 28.8995 35.2169 29.0395 33.6489 29.7995C31.6009 30.7888 30.2009 32.9222 30.3609 35.3809C30.4515 36.7569 30.9742 37.9916 31.7329 38.9009C31.7329 38.9089 34.7142 42.2422 35.9169 43.6288C36.8902 44.7542 40.2595 48.5195 40.9302 49.2902C41.9649 48.0969 50.1142 38.8955 50.1142 38.8955Z" fill="url(#paint28_linear_4_321)"/>
</g>
<mask id="mask29_4_321" style="mask-type:luminance" maskUnits="userSpaceOnUse" x="30" y="29" width="22" height="21">
<path d="M49.8715 38.9141C50.6555 37.9715 51.1782 36.7008 51.2422 35.3061C51.3622 32.7248 49.7009 30.7702 47.6262 29.7409C45.9035 28.8889 43.8329 28.8848 42.3235 30.2982C42.0982 30.5102 41.8862 30.7475 41.7009 31.0129C41.5129 30.9729 41.3248 30.9582 41.1368 30.9688C41.0542 30.8862 40.7969 31.0582 40.5436 31.2288C40.3076 31.3888 40.0742 31.5488 39.9835 31.5035C39.7715 31.3995 38.9209 30.3288 38.6955 30.3168C37.4955 29.2088 35.7262 29.1875 34.1769 29.7409C32.0076 30.5142 30.4476 32.6995 30.5689 35.2982C30.6356 36.7048 31.1502 37.9795 31.9422 38.9222C31.9422 38.9302 34.6169 41.9328 36.0182 43.5528C37.1569 44.8661 40.1288 48.2022 40.9115 49.1035C42.1168 47.7102 49.8715 38.9141 49.8715 38.9141Z" fill="white"/>
</mask>
<g mask="url(#mask29_4_321)">
<path d="M49.8715 38.9141C50.6555 37.9715 51.1782 36.7008 51.2422 35.3061C51.3622 32.7248 49.7009 30.7702 47.6262 29.7409C45.9035 28.8889 43.8329 28.8848 42.3235 30.2982C42.0982 30.5102 41.8862 30.7475 41.7009 31.0129C41.5129 30.9729 41.3248 30.9582 41.1368 30.9688C41.0542 30.8862 40.7969 31.0582 40.5436 31.2288C40.3076 31.3888 40.0742 31.5488 39.9835 31.5035C39.7715 31.3995 38.9209 30.3288 38.6955 30.3168C37.4955 29.2088 35.7262 29.1875 34.1769 29.7409C32.0076 30.5142 30.4476 32.6995 30.5689 35.2982C30.6356 36.7048 31.1502 37.9795 31.9422 38.9222C31.9422 38.9302 34.6169 41.9328 36.0182 43.5528C37.1569 44.8661 40.1288 48.2022 40.9115 49.1035C42.1168 47.7102 49.8715 38.9141 49.8715 38.9141Z" fill="url(#paint29_linear_4_321)"/>
</g>
<mask id="mask30_4_321" style="mask-type:luminance" maskUnits="userSpaceOnUse" x="30" y="29" width="21" height="20">
<path d="M49.6289 38.9329C50.4436 37.9609 50.9542 36.6463 50.9969 35.2209C51.0782 32.4929 49.2889 30.4649 47.0636 29.6836C45.5449 29.1516 43.6809 29.2476 42.3503 30.4822C42.1489 30.6702 41.9623 30.8769 41.7943 31.1063C41.6263 31.1316 41.4622 31.1796 41.3035 31.2462C41.2489 31.1916 41.0049 31.4156 40.7609 31.6382C40.5276 31.8529 40.2969 32.0676 40.2356 32.0382C40.0943 31.9676 39.2289 30.7743 39.0769 30.7663C37.9902 29.5169 36.2383 29.3262 34.7036 29.6836C32.4129 30.2196 30.6929 32.4756 30.7769 35.2156C30.8196 36.6529 31.3262 37.9689 32.1502 38.9436C32.1502 38.9529 34.5182 41.6262 36.1222 43.4782C37.4222 44.9782 39.9969 47.8863 40.8929 48.9156C42.2702 47.3249 49.6289 38.9329 49.6289 38.9329Z" fill="white"/>
</mask>
<g mask="url(#mask30_4_321)">
<path d="M49.6289 38.9329C50.4436 37.9609 50.9542 36.6463 50.9969 35.2209C51.0782 32.4929 49.2889 30.4649 47.0636 29.6836C45.5449 29.1516 43.6809 29.2476 42.3503 30.4822C42.1489 30.6702 41.9623 30.8769 41.7943 31.1063C41.6263 31.1316 41.4622 31.1796 41.3035 31.2462C41.2489 31.1916 41.0049 31.4156 40.7609 31.6382C40.5276 31.8529 40.2969 32.0676 40.2356 32.0382C40.0943 31.9676 39.2289 30.7743 39.0769 30.7663C37.9902 29.5169 36.2383 29.3262 34.7036 29.6836C32.4129 30.2196 30.6929 32.4756 30.7769 35.2156C30.8196 36.6529 31.3262 37.9689 32.1502 38.9436C32.1502 38.9529 34.5182 41.6262 36.1222 43.4782C37.4222 44.9782 39.9969 47.8863 40.8929 48.9156C42.2702 47.3249 49.6289 38.9329 49.6289 38.9329Z" fill="url(#paint30_linear_4_321)"/>
</g>
<mask id="mask31_4_321" style="mask-type:luminance" maskUnits="userSpaceOnUse" x="30" y="29" width="21" height="20">
<path d="M49.3863 38.9542C50.2316 37.9489 50.7316 36.5915 50.7516 35.1355C50.7943 32.2609 48.885 30.0795 46.501 29.6262C45.1796 29.3755 43.5383 29.6195 42.3796 30.6662C42.2023 30.8289 42.0357 31.0062 41.8877 31.1996C41.7384 31.2916 41.5997 31.3996 41.469 31.5222C41.4423 31.4956 41.209 31.7702 40.9757 32.0449C40.7463 32.3155 40.517 32.5849 40.4863 32.5716C40.417 32.5356 39.5356 31.2182 39.4596 31.2142C38.4836 29.8236 36.7517 29.4515 35.2317 29.6262C32.8237 29.9048 30.941 32.2528 30.9836 35.1328C31.0063 36.6008 31.5023 37.9582 32.3583 38.9622C32.3583 38.9742 34.421 41.3196 36.225 43.4009C37.6877 45.0889 39.8677 47.5716 40.8743 48.7276C42.4237 46.9369 49.3863 38.9542 49.3863 38.9542Z" fill="white"/>
</mask>
<g mask="url(#mask31_4_321)">
<path d="M49.3863 38.9542C50.2316 37.9489 50.7316 36.5915 50.7516 35.1355C50.7943 32.2609 48.885 30.0795 46.501 29.6262C45.1796 29.3755 43.5383 29.6195 42.3796 30.6662C42.2023 30.8289 42.0357 31.0062 41.8877 31.1996C41.7384 31.2916 41.5997 31.3996 41.469 31.5222C41.4423 31.4956 41.209 31.7702 40.9757 32.0449C40.7463 32.3155 40.517 32.5849 40.4863 32.5716C40.417 32.5356 39.5356 31.2182 39.4596 31.2142C38.4836 29.8236 36.7517 29.4515 35.2317 29.6262C32.8237 29.9048 30.941 32.2528 30.9836 35.1328C31.0063 36.6008 31.5023 37.9582 32.3583 38.9622C32.3583 38.9742 34.421 41.3196 36.225 43.4009C37.6877 45.0889 39.8677 47.5716 40.8743 48.7276C42.4237 46.9369 49.3863 38.9542 49.3863 38.9542Z" fill="url(#paint31_linear_4_321)"/>
</g>
<mask id="mask32_4_321" style="mask-type:luminance" maskUnits="userSpaceOnUse" x="31" y="29" width="20" height="20">
<path d="M49.1436 38.9727C50.0182 37.9367 50.5063 36.5368 50.5063 35.0501C50.5063 32.0301 48.457 29.5701 45.937 29.5701C44.4183 29.5701 42.4903 30.2781 41.6356 31.7994L40.7383 33.1047L39.8423 31.6621C38.9783 30.1341 37.2742 29.5701 35.7582 29.5701C33.2422 29.5701 31.1916 32.0301 31.1916 35.0501C31.1916 36.5501 31.6783 37.9461 32.5663 38.9834C32.5663 38.9941 34.3236 41.0128 36.3276 43.3248C37.9542 45.2008 39.7356 47.2541 40.8543 48.5408C42.5769 46.5514 49.1436 38.9727 49.1436 38.9727Z" fill="white"/>
</mask>
<g mask="url(#mask32_4_321)">
<path d="M49.1436 38.9727C50.0182 37.9367 50.5063 36.5368 50.5063 35.0501C50.5063 32.0301 48.457 29.5701 45.937 29.5701C44.4183 29.5701 42.4903 30.2781 41.6356 31.7994L40.7383 33.1047L39.8423 31.6621C38.9783 30.1341 37.2742 29.5701 35.7582 29.5701C33.2422 29.5701 31.1916 32.0301 31.1916 35.0501C31.1916 36.5501 31.6783 37.9461 32.5663 38.9834C32.5663 38.9941 34.3236 41.0128 36.3276 43.3248C37.9542 45.2008 39.7356 47.2541 40.8543 48.5408C42.5769 46.5514 49.1436 38.9727 49.1436 38.9727Z" fill="url(#paint32_linear_4_321)"/>
</g>
<defs>
<linearGradient id="paint0_linear_4_321" x1="50.2088" y1="50.2643" x2="64.3541" y2="66.1493" gradientUnits="userSpaceOnUse">
<stop stop-color="#FFF200"/>
<stop offset="1" stop-color="#F78D11"/>
</linearGradient>
<linearGradient id="paint1_linear_4_321" x1="63.9732" y1="65.8135" x2="49.4997" y2="49.8136" gradientUnits="userSpaceOnUse">
<stop stop-color="#FEE802"/>
<stop offset="0.294479" stop-color="#FDD705"/>
<stop offset="0.760736" stop-color="#F9AD0C"/>
<stop offset="1" stop-color="#F78D11"/>
</linearGradient>
<linearGradient id="paint2_linear_4_321" x1="63.7001" y1="65.6912" x2="48.9041" y2="49.5894" gradientUnits="userSpaceOnUse">
<stop stop-color="#FDDE03"/>
<stop offset="0.294479" stop-color="#FDD904"/>
<stop offset="0.760736" stop-color="#FAB50A"/>
<stop offset="1" stop-color="#F78D11"/>
</linearGradient>
<linearGradient id="paint3_linear_4_321" x1="63.4383" y1="65.5641" x2="48.3154" y2="49.3627" gradientUnits="userSpaceOnUse">
<stop stop-color="#FCD405"/>
<stop offset="0.294479" stop-color="#FDDC04"/>
<stop offset="0.760736" stop-color="#FABC09"/>
<stop offset="1" stop-color="#F78D11"/>
</linearGradient>
<linearGradient id="paint4_linear_4_321" x1="63.1933" y1="65.4265" x2="47.724" y2="49.1115" gradientUnits="userSpaceOnUse">
<stop stop-color="#FCCA07"/>
<stop offset="0.294479" stop-color="#FDDE03"/>
<stop offset="0.760736" stop-color="#FBC408"/>
<stop offset="1" stop-color="#F78D11"/>
</linearGradient>
<linearGradient id="paint5_linear_4_321" x1="62.968" y1="65.275" x2="47.1333" y2="48.834" gradientUnits="userSpaceOnUse">
<stop stop-color="#FBC008"/>
<stop offset="0.294479" stop-color="#FEE003"/>
<stop offset="0.760736" stop-color="#FCCC06"/>
<stop offset="1" stop-color="#F78D11"/>
</linearGradient>
<linearGradient id="paint6_linear_4_321" x1="62.7613" y1="65.1095" x2="46.5485" y2="48.5373" gradientUnits="userSpaceOnUse">
<stop stop-color="#FAB60A"/>
<stop offset="0.294479" stop-color="#FEE303"/>
<stop offset="0.760736" stop-color="#FCD305"/>
<stop offset="1" stop-color="#F78D11"/>
</linearGradient>
<linearGradient id="paint7_linear_4_321" x1="62.5695" y1="64.933" x2="45.9683" y2="48.2271" gradientUnits="userSpaceOnUse">
<stop stop-color="#F9AC0C"/>
<stop offset="0.294479" stop-color="#FEE502"/>
<stop offset="0.760736" stop-color="#FDDB04"/>
<stop offset="1" stop-color="#F78D11"/>
</linearGradient>
<linearGradient id="paint8_linear_4_321" x1="62.3928" y1="64.7457" x2="45.3999" y2="47.9109" gradientUnits="userSpaceOnUse">
<stop stop-color="#F8A10E"/>
<stop offset="0.294479" stop-color="#FEE802"/>
<stop offset="0.760736" stop-color="#FEE303"/>
<stop offset="1" stop-color="#F78D11"/>
</linearGradient>
<linearGradient id="paint9_linear_4_321" x1="62.2308" y1="64.5455" x2="44.8481" y2="47.5918" gradientUnits="userSpaceOnUse">
<stop stop-color="#F7970F"/>
<stop offset="0.294479" stop-color="#FEEA01"/>
<stop offset="0.760736" stop-color="#FEEA01"/>
<stop offset="1" stop-color="#F78D11"/>
</linearGradient>
<linearGradient id="paint10_linear_4_321" x1="50.6123" y1="53.3193" x2="68.3779" y2="70.3777" gradientUnits="userSpaceOnUse">
<stop stop-color="#F78D11"/>
<stop offset="0.294479" stop-color="#FFED01"/>
<stop offset="0.760736" stop-color="#FFF200"/>
<stop offset="1" stop-color="#F78D11"/>
</linearGradient>
<linearGradient id="paint11_linear_4_321" x1="65.3165" y1="27.1224" x2="79.1929" y2="42.7056" gradientUnits="userSpaceOnUse">
<stop stop-color="#FFF200"/>
<stop offset="1" stop-color="#F78D11"/>
</linearGradient>
<linearGradient id="paint12_linear_4_321" x1="79.0842" y1="42.6697" x2="64.847" y2="26.9309" gradientUnits="userSpaceOnUse">
<stop stop-color="#FEE802"/>
<stop offset="0.294479" stop-color="#FDD705"/>
<stop offset="0.760736" stop-color="#F9AD0C"/>
<stop offset="1" stop-color="#F78D11"/>
</linearGradient>
<linearGradient id="paint13_linear_4_321" x1="78.8105" y1="42.548" x2="64.2212" y2="26.6712" gradientUnits="userSpaceOnUse">
<stop stop-color="#FDDE03"/>
<stop offset="0.294479" stop-color="#FDD904"/>
<stop offset="0.760736" stop-color="#FAB50A"/>
<stop offset="1" stop-color="#F78D11"/>
</linearGradient>
<linearGradient id="paint14_linear_4_321" x1="78.5485" y1="42.4224" x2="63.6035" y2="26.4115" gradientUnits="userSpaceOnUse">
<stop stop-color="#FCD405"/>
<stop offset="0.294479" stop-color="#FDDC04"/>
<stop offset="0.760736" stop-color="#FABC09"/>
<stop offset="1" stop-color="#F78D11"/>
</linearGradient>
<linearGradient id="paint15_linear_4_321" x1="78.3048" y1="42.2849" x2="62.9857" y2="26.1284" gradientUnits="userSpaceOnUse">
<stop stop-color="#FCCA07"/>
<stop offset="0.294479" stop-color="#FDDE03"/>
<stop offset="0.760736" stop-color="#FBC408"/>
<stop offset="1" stop-color="#F78D11"/>
</linearGradient>
<linearGradient id="paint16_linear_4_321" x1="78.0795" y1="42.1335" x2="62.3696" y2="25.8222" gradientUnits="userSpaceOnUse">
<stop stop-color="#FBC008"/>
<stop offset="0.294479" stop-color="#FEE003"/>
<stop offset="0.760736" stop-color="#FCCC06"/>
<stop offset="1" stop-color="#F78D11"/>
</linearGradient>
<linearGradient id="paint17_linear_4_321" x1="77.8726" y1="41.9692" x2="61.7571" y2="25.4964" gradientUnits="userSpaceOnUse">
<stop stop-color="#FAB60A"/>
<stop offset="0.294479" stop-color="#FEE303"/>
<stop offset="0.760736" stop-color="#FCD305"/>
<stop offset="1" stop-color="#F78D11"/>
</linearGradient>
<linearGradient id="paint18_linear_4_321" x1="77.6818" y1="41.7933" x2="61.153" y2="25.1601" gradientUnits="userSpaceOnUse">
<stop stop-color="#F9AC0C"/>
<stop offset="0.294479" stop-color="#FEE502"/>
<stop offset="0.760736" stop-color="#FDDB04"/>
<stop offset="1" stop-color="#F78D11"/>
</linearGradient>
<linearGradient id="paint19_linear_4_321" x1="77.5062" y1="41.6061" x2="60.5601" y2="24.8176" gradientUnits="userSpaceOnUse">
<stop stop-color="#F8A10E"/>
<stop offset="0.294479" stop-color="#FEE802"/>
<stop offset="0.760736" stop-color="#FEE303"/>
<stop offset="1" stop-color="#F78D11"/>
</linearGradient>
<linearGradient id="paint20_linear_4_321" x1="77.3454" y1="41.4073" x2="59.9844" y2="24.4746" gradientUnits="userSpaceOnUse">
<stop stop-color="#F7970F"/>
<stop offset="0.294479" stop-color="#FEEA01"/>
<stop offset="0.760736" stop-color="#FEEA01"/>
<stop offset="1" stop-color="#F78D11"/>
</linearGradient>
<linearGradient id="paint21_linear_4_321" x1="65.7245" y1="30.18" x2="83.4917" y2="47.24" gradientUnits="userSpaceOnUse">
<stop stop-color="#F78D11"/>
<stop offset="0.294479" stop-color="#FFED01"/>
<stop offset="0.760736" stop-color="#FFF200"/>
<stop offset="1" stop-color="#F78D11"/>
</linearGradient>
<linearGradient id="paint22_linear_4_321" x1="34.547" y1="27.1229" x2="48.6934" y2="43.0092" gradientUnits="userSpaceOnUse">
<stop stop-color="#FFF200"/>
<stop offset="1" stop-color="#F78D11"/>
</linearGradient>
<linearGradient id="paint23_linear_4_321" x1="48.3146" y1="42.6711" x2="33.8389" y2="26.6687" gradientUnits="userSpaceOnUse">
<stop stop-color="#FEE802"/>
<stop offset="0.294479" stop-color="#FDD705"/>
<stop offset="0.760736" stop-color="#F9AD0C"/>
<stop offset="1" stop-color="#F78D11"/>
</linearGradient>
<linearGradient id="paint24_linear_4_321" x1="48.0412" y1="42.5491" x2="33.244" y2="26.446" gradientUnits="userSpaceOnUse">
<stop stop-color="#FDDE03"/>
<stop offset="0.294479" stop-color="#FDD904"/>
<stop offset="0.760736" stop-color="#FAB50A"/>
<stop offset="1" stop-color="#F78D11"/>
</linearGradient>
<linearGradient id="paint25_linear_4_321" x1="47.7783" y1="42.4232" x2="32.6548" y2="26.2211" gradientUnits="userSpaceOnUse">
<stop stop-color="#FCD405"/>
<stop offset="0.294479" stop-color="#FDDC04"/>
<stop offset="0.760736" stop-color="#FABC09"/>
<stop offset="1" stop-color="#F78D11"/>
</linearGradient>
<linearGradient id="paint26_linear_4_321" x1="47.5345" y1="42.286" x2="32.0637" y2="25.9694" gradientUnits="userSpaceOnUse">
<stop stop-color="#FCCA07"/>
<stop offset="0.294479" stop-color="#FDDE03"/>
<stop offset="0.760736" stop-color="#FBC408"/>
<stop offset="1" stop-color="#F78D11"/>
</linearGradient>
<linearGradient id="paint27_linear_4_321" x1="47.3092" y1="42.1342" x2="31.4744" y2="25.6932" gradientUnits="userSpaceOnUse">
<stop stop-color="#FBC008"/>
<stop offset="0.294479" stop-color="#FEE003"/>
<stop offset="0.760736" stop-color="#FCCC06"/>
<stop offset="1" stop-color="#F78D11"/>
</linearGradient>
<linearGradient id="paint28_linear_4_321" x1="47.1013" y1="41.9697" x2="30.8872" y2="25.3961" gradientUnits="userSpaceOnUse">
<stop stop-color="#FAB60A"/>
<stop offset="0.294479" stop-color="#FEE303"/>
<stop offset="0.760736" stop-color="#FCD305"/>
<stop offset="1" stop-color="#F78D11"/>
</linearGradient>
<linearGradient id="paint29_linear_4_321" x1="46.9105" y1="41.7939" x2="30.3082" y2="25.0868" gradientUnits="userSpaceOnUse">
<stop stop-color="#F9AC0C"/>
<stop offset="0.294479" stop-color="#FEE502"/>
<stop offset="0.760736" stop-color="#FDDB04"/>
<stop offset="1" stop-color="#F78D11"/>
</linearGradient>
<linearGradient id="paint30_linear_4_321" x1="46.734" y1="41.6062" x2="29.7389" y2="24.7692" gradientUnits="userSpaceOnUse">
<stop stop-color="#F8A10E"/>
<stop offset="0.294479" stop-color="#FEE802"/>
<stop offset="0.760736" stop-color="#FEE303"/>
<stop offset="1" stop-color="#F78D11"/>
</linearGradient>
<linearGradient id="paint31_linear_4_321" x1="46.5733" y1="41.4073" x2="29.1876" y2="24.4506" gradientUnits="userSpaceOnUse">
<stop stop-color="#F7970F"/>
<stop offset="0.294479" stop-color="#FEEA01"/>
<stop offset="0.760736" stop-color="#FEEA01"/>
<stop offset="1" stop-color="#F78D11"/>
</linearGradient>
<linearGradient id="paint32_linear_4_321" x1="34.9522" y1="30.1795" x2="52.7199" y2="47.24" gradientUnits="userSpaceOnUse">
<stop stop-color="#F78D11"/>
<stop offset="0.294479" stop-color="#FFED01"/>
<stop offset="0.760736" stop-color="#FFF200"/>
<stop offset="1" stop-color="#F78D11"/>
</linearGradient>
</defs>
</svg>
