<svg width="491" height="362" viewBox="0 0 491 362" fill="none" xmlns="http://www.w3.org/2000/svg">
<circle cx="245.5" cy="176.5" r="145.5" fill="white"/>
<g filter="url(#filter0_d_125_21)">
<mask id="path-2-outside-1_125_21" maskUnits="userSpaceOnUse" x="4" y="0" width="483" height="354" fill="black">
<rect fill="white" x="4" width="483" height="354"/>
<path d="M227 15H266L290 19L294 20V22L301 23L313 27V29L322 32L327 34V36L333 38L346 47L351 52L356 55L361 60L365 65L370 70L376 77L379 82L381 83L387 94L390 98L393 105V108H395L401 126L402 129L401 131L405 132L407 136L412 141L417 146L421 153L428 163L432 168L436 174V177L439 178L443 185L447 189L454 200L457 205L461 209L464 214V216L467 217L472 226L471 231L467 235L460 239L459 240H454L450 235V233H448L444 228L443 225L439 222L436 217L427 206L422 200V197L418 195L415 190L411 186L410 184L409 195L408 196L404 221L395 246H393L392 251L388 259L382 268L374 280L370 284L365 289L360 295L353 301L346 307L340 311H338V313L329 318H327V320L315 325H313V327L298 332H294V334L274 338L266 339H227L208 336L199 334V332L189 330L180 326L166 320L163 317L156 313V311L150 309L140 300L138 299V297L134 295L129 290L120 280L113 270L107 261L105 257V254H103L98 243V240H96L92 233L86 228L81 223L77 218V216L73 214L70 209L66 205L58 195L55 191V189L51 187L48 182L44 178L39 173L36 168L34 166V163L30 161L27 156L22 151L19 147L20 142L25 137L29 135L33 131L37 132L41 137V139H43L48 145L53 150L62 160L69 168V170L73 172L76 175V177L80 179L83 183V185H85V159L88 139L89 135H91L92 126L96 114H98L100 105L109 89L112 86L116 79L125 69L131 61L136 57L137 55L142 52L150 45L156 41L171 32L186 25L196 22H199V20L219 16L227 15ZM239 38L215 41L207 43V45L200 46L188 50V52L179 55L175 57V59L170 61L165 64L155 72L149 77L144 82L142 87L138 89L135 94L130 99L128 105H126L121 116V118H119L114 132V135H112L108 153L107 166L110 163V160H112L120 144L126 133V131L137 132L140 133V135L146 139H149L146 146L142 154V156H140L135 168V170H133L128 181V183H126L121 195V197H119L114 208V210H112L110 216L112 222H114L115 229L119 239L126 252H128L129 256L133 263L137 267L144 275L154 285L158 288H160L161 291L170 297L179 302H181V304L194 309H196V311L215 316H221V318L241 320H253L272 318L278 316L297 311V309L303 308L312 304V302L317 301L324 297V295L329 293L334 290V288L338 286L349 276V274L352 273L356 267L361 262L363 256L366 255L370 246V244H372L377 233V229H379L384 210L386 205V200L383 203L381 209H379L373 219L367 229V231H365V233L354 232L348 228L344 224H342V221H344L349 212V209H351L356 200V198H358L363 189V187H365L370 178V175L373 174L378 165L383 157L384 153H386L383 142L379 128H377L376 123L372 113H370L368 107L365 102H363L362 98L355 89L344 76L339 73L335 69L323 60L318 57L307 52H305V50L287 44L278 41L254 38H239ZM386 149L387 151L388 149H386ZM105 167L103 173H105L107 167H105ZM101 175L100 180L102 178L101 175ZM97 182L96 187L99 185V182H97ZM89 190L92 193H94V191L89 190Z"/>
</mask>
<path d="M227 15H266L290 19L294 20V22L301 23L313 27V29L322 32L327 34V36L333 38L346 47L351 52L356 55L361 60L365 65L370 70L376 77L379 82L381 83L387 94L390 98L393 105V108H395L401 126L402 129L401 131L405 132L407 136L412 141L417 146L421 153L428 163L432 168L436 174V177L439 178L443 185L447 189L454 200L457 205L461 209L464 214V216L467 217L472 226L471 231L467 235L460 239L459 240H454L450 235V233H448L444 228L443 225L439 222L436 217L427 206L422 200V197L418 195L415 190L411 186L410 184L409 195L408 196L404 221L395 246H393L392 251L388 259L382 268L374 280L370 284L365 289L360 295L353 301L346 307L340 311H338V313L329 318H327V320L315 325H313V327L298 332H294V334L274 338L266 339H227L208 336L199 334V332L189 330L180 326L166 320L163 317L156 313V311L150 309L140 300L138 299V297L134 295L129 290L120 280L113 270L107 261L105 257V254H103L98 243V240H96L92 233L86 228L81 223L77 218V216L73 214L70 209L66 205L58 195L55 191V189L51 187L48 182L44 178L39 173L36 168L34 166V163L30 161L27 156L22 151L19 147L20 142L25 137L29 135L33 131L37 132L41 137V139H43L48 145L53 150L62 160L69 168V170L73 172L76 175V177L80 179L83 183V185H85V159L88 139L89 135H91L92 126L96 114H98L100 105L109 89L112 86L116 79L125 69L131 61L136 57L137 55L142 52L150 45L156 41L171 32L186 25L196 22H199V20L219 16L227 15ZM239 38L215 41L207 43V45L200 46L188 50V52L179 55L175 57V59L170 61L165 64L155 72L149 77L144 82L142 87L138 89L135 94L130 99L128 105H126L121 116V118H119L114 132V135H112L108 153L107 166L110 163V160H112L120 144L126 133V131L137 132L140 133V135L146 139H149L146 146L142 154V156H140L135 168V170H133L128 181V183H126L121 195V197H119L114 208V210H112L110 216L112 222H114L115 229L119 239L126 252H128L129 256L133 263L137 267L144 275L154 285L158 288H160L161 291L170 297L179 302H181V304L194 309H196V311L215 316H221V318L241 320H253L272 318L278 316L297 311V309L303 308L312 304V302L317 301L324 297V295L329 293L334 290V288L338 286L349 276V274L352 273L356 267L361 262L363 256L366 255L370 246V244H372L377 233V229H379L384 210L386 205V200L383 203L381 209H379L373 219L367 229V231H365V233L354 232L348 228L344 224H342V221H344L349 212V209H351L356 200V198H358L363 189V187H365L370 178V175L373 174L378 165L383 157L384 153H386L383 142L379 128H377L376 123L372 113H370L368 107L365 102H363L362 98L355 89L344 76L339 73L335 69L323 60L318 57L307 52H305V50L287 44L278 41L254 38H239ZM386 149L387 151L388 149H386ZM105 167L103 173H105L107 167H105ZM101 175L100 180L102 178L101 175ZM97 182L96 187L99 185V182H97ZM89 190L92 193H94V191L89 190Z" fill="black"/>
<path d="M108.708 169.646C106.856 165.941 102.351 164.439 98.6459 166.292C94.9411 168.144 93.4394 172.649 95.2918 176.354L108.708 169.646ZM96.2918 178.354C98.1442 182.059 102.649 183.561 106.354 181.708C110.059 179.856 111.561 175.351 109.708 171.646L96.2918 178.354ZM406.708 171.646C404.856 167.941 400.351 166.439 396.646 168.292C392.941 170.144 391.439 174.649 393.292 178.354L406.708 171.646ZM394.292 180.354C396.144 184.059 400.649 185.561 404.354 183.708C408.059 181.856 409.561 177.351 407.708 173.646L394.292 180.354ZM105.708 176.646C103.856 172.941 99.3507 171.439 95.6459 173.292C91.9411 175.144 90.4394 179.649 92.2918 183.354L105.708 176.646ZM93.2918 185.354C95.1442 189.059 99.6493 190.561 103.354 188.708C107.059 186.856 108.561 182.351 106.708 178.646L93.2918 185.354ZM413.708 176.646C411.856 172.941 407.351 171.439 403.646 173.292C399.941 175.144 398.439 179.649 400.292 183.354L413.708 176.646ZM401.292 185.354C403.144 189.059 407.649 190.561 411.354 188.708C415.059 186.856 416.561 182.351 414.708 178.646L401.292 185.354ZM101.708 183.646C99.8558 179.941 95.3507 178.439 91.6459 180.292C87.9411 182.144 86.4394 186.649 88.2918 190.354L101.708 183.646ZM89.2918 192.354C91.1442 196.059 95.6493 197.561 99.3541 195.708C103.059 193.856 104.561 189.351 102.708 185.646L89.2918 192.354ZM100.708 185.646C98.8558 181.941 94.3507 180.439 90.6459 182.292C86.9411 184.144 85.4394 188.649 87.2918 192.354L100.708 185.646ZM88.2918 194.354C90.1442 198.059 94.6493 199.561 98.3541 197.708C102.059 195.856 103.561 191.351 101.708 187.646L88.2918 194.354ZM392.708 193.646C390.856 189.941 386.351 188.439 382.646 190.292C378.941 192.144 377.439 196.649 379.292 200.354L392.708 193.646ZM380.292 202.354C382.144 206.059 386.649 207.561 390.354 205.708C394.059 203.856 395.561 199.351 393.708 195.646L380.292 202.354ZM95.2918 176.354L96.2918 178.354L109.708 171.646L108.708 169.646L95.2918 176.354ZM393.292 178.354L394.292 180.354L407.708 173.646L406.708 171.646L393.292 178.354ZM92.2918 183.354L93.2918 185.354L106.708 178.646L105.708 176.646L92.2918 183.354ZM400.292 183.354L401.292 185.354L414.708 178.646L413.708 176.646L400.292 183.354ZM88.2918 190.354L89.2918 192.354L102.708 185.646L101.708 183.646L88.2918 190.354ZM87.2918 192.354L88.2918 194.354L101.708 187.646L100.708 185.646L87.2918 192.354ZM379.292 200.354L380.292 202.354L393.708 195.646L392.708 193.646L379.292 200.354ZM227 15V0C226.378 0 225.757 0.0386853 225.139 0.115832L227 15ZM266 15L268.466 0.204091C267.651 0.0682626 266.826 0 266 0V15ZM290 19L293.638 4.44786C293.251 4.35104 292.86 4.26972 292.466 4.20409L290 19ZM294 20H309C309 13.117 304.316 7.11724 297.638 5.44786L294 20ZM294 22H279C279 29.4648 284.489 35.7936 291.879 36.8492L294 22ZM301 23L305.743 8.76975C304.89 8.48519 304.012 8.27802 303.121 8.15076L301 23ZM313 27H328C328 20.5435 323.869 14.8115 317.743 12.7698L313 27ZM313 29H298C298 35.4565 302.131 41.1885 308.257 43.2302L313 29ZM322 32L327.571 18.0728C327.298 17.9637 327.022 17.8627 326.743 17.7698L322 32ZM327 34H342C342 27.8664 338.266 22.3508 332.571 20.0728L327 34ZM327 36H312C312 42.4565 316.131 48.1885 322.257 50.2302L327 36ZM333 38L341.538 25.6671C340.37 24.8581 339.092 24.2192 337.743 23.7698L333 38ZM346 47L356.607 36.3934C355.97 35.7571 355.278 35.1793 354.538 34.6671L346 47ZM351 52L340.393 62.6066C341.261 63.4738 342.231 64.2314 343.283 64.8624L351 52ZM356 55L366.607 44.3934C365.739 43.5262 364.769 42.7686 363.717 42.1376L356 55ZM361 60L372.713 50.6296C372.367 50.1974 371.998 49.7847 371.607 49.3934L361 60ZM365 65L353.287 74.3704C353.633 74.8026 354.002 75.2153 354.393 75.6066L365 65ZM370 70L381.389 60.2381C381.139 59.9466 380.878 59.6649 380.607 59.3934L370 70ZM376 77L388.862 69.2826C388.429 68.561 387.937 67.8771 387.389 67.2381L376 77ZM379 82L366.138 89.7174C367.605 92.1637 369.74 94.1406 372.292 95.4164L379 82ZM381 83L394.168 75.8172C392.702 73.1286 390.447 70.9532 387.708 69.5836L381 83ZM387 94L373.832 101.183C374.177 101.816 374.567 102.423 375 103L387 94ZM390 98L403.787 92.0912C403.317 90.9933 402.717 89.9556 402 89L390 98ZM393 105H408C408 102.969 407.587 100.958 406.787 99.0912L393 105ZM393 108H378C378 116.284 384.716 123 393 123V108ZM395 108L409.23 103.257C407.189 97.1315 401.456 93 395 93V108ZM402 129L415.416 135.708C417.196 132.15 417.488 128.031 416.23 124.257L402 129ZM401 131L387.584 124.292C385.549 128.361 385.471 133.134 387.372 137.268C389.273 141.401 392.948 144.449 397.362 145.552L401 131ZM405 132L418.416 125.292C416.458 121.375 412.886 118.51 408.638 117.448L405 132ZM407 136L393.584 142.708C394.305 144.15 395.253 145.467 396.393 146.607L407 136ZM417 146L430.024 138.558C429.362 137.4 428.549 136.336 427.607 135.393L417 146ZM421 153L407.976 160.442C408.204 160.84 408.449 161.227 408.712 161.602L421 153ZM428 163L415.712 171.602C415.895 171.864 416.087 172.12 416.287 172.37L428 163ZM432 168L444.481 159.679C444.24 159.319 443.984 158.968 443.713 158.63L432 168ZM436 174H451C451 171.039 450.123 168.144 448.481 165.679L436 174ZM436 177H421C421 183.456 425.131 189.189 431.257 191.23L436 177ZM439 178L452.024 170.558C450.193 167.354 447.245 164.937 443.743 163.77L439 178ZM443 185L429.976 192.442C430.638 193.6 431.451 194.664 432.393 195.607L443 185ZM447 189L459.655 180.947C459.067 180.024 458.38 179.167 457.607 178.393L447 189ZM454 200L466.862 192.283C466.795 192.17 466.726 192.058 466.655 191.947L454 200ZM457 205L444.138 212.717C444.769 213.769 445.526 214.739 446.393 215.607L457 205ZM461 209L473.862 201.283C473.231 200.231 472.474 199.261 471.607 198.393L461 209ZM464 214H479C479 211.281 478.261 208.614 476.862 206.283L464 214ZM464 216H449C449 222.456 453.131 228.189 459.257 230.23L464 216ZM467 217L480.112 209.715C478.29 206.435 475.304 203.957 471.743 202.77L467 217ZM472 226L486.709 228.942C487.407 225.452 486.841 221.827 485.112 218.715L472 226ZM471 231L481.607 241.607C483.701 239.513 485.128 236.846 485.709 233.942L471 231ZM467 235L474.442 248.024C475.6 247.362 476.664 246.549 477.607 245.607L467 235ZM460 239L452.558 225.976C451.4 226.638 450.336 227.451 449.393 228.393L460 239ZM459 240V255C462.978 255 466.794 253.42 469.607 250.607L459 240ZM454 240L442.287 249.37C445.134 252.929 449.443 255 454 255V240ZM450 235H435C435 238.406 436.159 241.711 438.287 244.37L450 235ZM450 233H465C465 224.716 458.284 218 450 218V233ZM448 233L436.287 242.37C439.134 245.929 443.443 248 448 248V233ZM444 228L429.77 232.743C430.329 234.422 431.182 235.989 432.287 237.37L444 228ZM443 225L457.23 220.257C456.265 217.362 454.441 214.831 452 213L443 225ZM439 222L426.138 229.717C427.136 231.381 428.448 232.836 430 234L439 222ZM436 217L448.862 209.283C448.488 208.659 448.07 208.064 447.609 207.501L436 217ZM427 206L438.609 196.501C438.581 196.467 438.552 196.432 438.523 196.397L427 206ZM422 200H407C407 203.509 408.23 206.907 410.477 209.603L422 200ZM422 197H437C437 191.318 433.79 186.124 428.708 183.584L422 197ZM418 195L405.138 202.717C406.605 205.164 408.74 207.141 411.292 208.416L418 195ZM415 190L427.862 182.283C427.231 181.231 426.474 180.261 425.607 179.393L415 190ZM411 186L397.584 192.708C398.305 194.15 399.253 195.467 400.393 196.607L411 186ZM410 184L423.416 177.292C420.418 171.296 413.806 168.017 407.219 169.26C400.631 170.503 395.669 175.966 395.062 182.642L410 184ZM409 195L419.607 205.607C422.088 203.125 423.621 199.853 423.938 196.358L409 195ZM408 196L397.393 185.393C395.159 187.628 393.688 190.51 393.188 193.63L408 196ZM404 221L418.113 226.081C418.43 225.201 418.664 224.293 418.812 223.37L404 221ZM395 246V261C401.325 261 406.971 257.032 409.113 251.081L395 246ZM393 246V231C385.85 231 379.694 236.047 378.291 243.058L393 246ZM392 251L405.416 257.708C406.013 256.516 406.447 255.249 406.709 253.942L392 251ZM388 259L400.481 267.321C400.826 266.803 401.138 266.265 401.416 265.708L388 259ZM382 268L394.481 276.321L382 268ZM374 280L384.607 290.607C385.305 289.908 385.933 289.142 386.481 288.321L374 280ZM365 289L354.393 278.393C354.073 278.714 353.767 279.049 353.477 279.397L365 289ZM360 295L369.762 306.389C370.398 305.844 370.987 305.246 371.523 304.603L360 295ZM346 307L354.321 319.481C354.822 319.146 355.304 318.781 355.762 318.389L346 307ZM340 311V326C342.961 326 345.856 325.123 348.321 323.481L340 311ZM338 311V296C329.716 296 323 302.716 323 311H338ZM338 313L345.285 326.112C350.047 323.467 353 318.448 353 313H338ZM329 318V333C331.549 333 334.056 332.35 336.285 331.112L329 318ZM327 318V303C318.716 303 312 309.716 312 318H327ZM327 320L332.769 333.846C338.359 331.517 342 326.056 342 320H327ZM315 325V340C316.98 340 318.941 339.608 320.769 338.846L315 325ZM313 325V310C304.716 310 298 316.716 298 325H313ZM313 327L317.743 341.23C323.869 339.189 328 333.456 328 327H313ZM298 332V347C299.612 347 301.214 346.74 302.743 346.23L298 332ZM294 332V317C285.716 317 279 323.716 279 332H294ZM294 334L296.942 348.709C303.953 347.306 309 341.15 309 334H294ZM274 338L275.861 352.884C276.223 352.839 276.584 352.78 276.942 352.709L274 338ZM266 339V354C266.622 354 267.243 353.961 267.861 353.884L266 339ZM227 339L224.661 353.816C225.434 353.939 226.217 354 227 354V339ZM208 336L204.746 350.643C205.049 350.71 205.354 350.768 205.661 350.816L208 336ZM199 334H184C184 341.03 188.883 347.118 195.746 348.643L199 334ZM199 332H214C214 324.85 208.953 318.694 201.942 317.291L199 332ZM189 330L182.908 343.707C183.918 344.156 184.974 344.492 186.058 344.709L189 330ZM180 326L186.092 312.293C186.031 312.266 185.97 312.239 185.909 312.213L180 326ZM166 320L155.393 330.607C156.743 331.956 158.337 333.035 160.091 333.787L166 320ZM163 317L173.607 306.393C172.664 305.451 171.6 304.638 170.442 303.976L163 317ZM156 313H141C141 318.383 143.884 323.353 148.558 326.024L156 313ZM156 311H171C171 304.544 166.869 298.811 160.743 296.77L156 311ZM150 309L139.966 320.149C141.499 321.529 143.3 322.578 145.257 323.23L150 309ZM140 300L150.034 288.851C149.033 287.949 147.914 287.186 146.708 286.584L140 300ZM138 299H123C123 304.682 126.21 309.876 131.292 312.416L138 299ZM138 297H153C153 291.318 149.79 286.124 144.708 283.584L138 297ZM134 295L123.393 305.607C124.533 306.747 125.85 307.695 127.292 308.416L134 295ZM129 290L117.851 300.034C118.026 300.23 118.207 300.421 118.393 300.607L129 290ZM120 280L107.712 288.602C108.062 289.102 108.442 289.581 108.851 290.034L120 280ZM113 270L100.519 278.321C100.582 278.415 100.646 278.509 100.712 278.602L113 270ZM107 261L93.5836 267.708C93.8617 268.265 94.1742 268.803 94.5192 269.321L107 261ZM105 257H90C90 259.329 90.5422 261.625 91.5836 263.708L105 257ZM105 254H120C120 245.716 113.284 239 105 239V254ZM103 254L89.3445 260.207C91.7786 265.562 97.1178 269 103 269V254ZM98 243H83C83 245.141 83.4584 247.258 84.3445 249.207L98 243ZM98 240H113C113 231.716 106.284 225 98 225V240ZM96 240L82.9764 247.442C85.647 252.116 90.6171 255 96 255V240ZM92 233L105.024 225.558C104.136 224.004 102.977 222.622 101.603 221.477L92 233ZM86 228L75.3934 238.607C75.714 238.927 76.0489 239.233 76.3972 239.523L86 228ZM81 223L69.287 232.37C69.6327 232.803 70.0021 233.215 70.3934 233.607L81 223ZM77 218H62C62 221.406 63.1592 224.711 65.287 227.37L77 218ZM77 216H92C92 210.318 88.79 205.124 83.7082 202.584L77 216ZM73 214L60.1376 221.717C61.6053 224.164 63.7402 226.141 66.2918 227.416L73 214ZM70 209L82.8624 201.283C82.2314 200.231 81.4738 199.261 80.6066 198.393L70 209ZM66 205L54.287 214.37C54.6327 214.803 55.0021 215.215 55.3934 215.607L66 205ZM58 195L46 204C46.0937 204.125 46.1894 204.248 46.287 204.37L58 195ZM55 191H40C40 194.246 41.0527 197.404 43 200L55 191ZM55 189H70C70 183.318 66.79 178.124 61.7082 175.584L55 189ZM51 187L38.1376 194.717C39.6053 197.164 41.7402 199.141 44.2918 200.416L51 187ZM48 182L60.8624 174.283C60.2314 173.231 59.4738 172.261 58.6066 171.393L48 182ZM39 173L26.1376 180.717C26.7686 181.769 27.5262 182.739 28.3934 183.607L39 173ZM36 168L48.8624 160.283C48.2314 159.231 47.4738 158.261 46.6066 157.393L36 168ZM34 166H19C19 169.978 20.5804 173.794 23.3934 176.607L34 166ZM34 163H49C49 157.318 45.79 152.124 40.7082 149.584L34 163ZM30 161L17.1376 168.717C18.6053 171.164 20.7402 173.141 23.2918 174.416L30 161ZM27 156L39.8624 148.283C39.2314 147.231 38.4738 146.261 37.6066 145.393L27 156ZM22 151L10 160C10.4259 160.568 10.8915 161.105 11.3934 161.607L22 151ZM19 147L4.29129 144.058C3.45436 148.243 4.43948 152.586 7 156L19 147ZM20 142L9.3934 131.393C7.29939 133.487 5.87206 136.154 5.29129 139.058L20 142ZM25 137L18.2918 123.584C16.8498 124.305 15.5334 125.253 14.3934 126.393L25 137ZM29 135L35.7082 148.416C37.1502 147.695 38.4666 146.747 39.6066 145.607L29 135ZM33 131L36.638 116.448C31.5264 115.17 26.1191 116.668 22.3934 120.393L33 131ZM37 132L48.713 122.63C46.6613 120.065 43.8244 118.244 40.638 117.448L37 132ZM41 137H56C56 133.594 54.8408 130.289 52.713 127.63L41 137ZM41 139H26C26 147.284 32.7157 154 41 154V139ZM43 139L54.5233 129.397C51.6734 125.977 47.4517 124 43 124V139ZM48 145L36.4767 154.603C36.7669 154.951 37.0728 155.286 37.3934 155.607L48 145ZM53 150L64.1494 139.966C63.9735 139.77 63.7925 139.579 63.6066 139.393L53 150ZM62 160L73.2887 150.122C73.2426 150.07 73.1962 150.018 73.1494 149.966L62 160ZM69 168H84C84 164.367 82.6812 160.857 80.2887 158.122L69 168ZM69 170H54C54 175.682 57.21 180.876 62.2918 183.416L69 170ZM73 172L83.6066 161.393C82.4666 160.253 81.1502 159.305 79.7082 158.584L73 172ZM76 175H91C91 171.022 89.4196 167.206 86.6066 164.393L76 175ZM76 177H61C61 182.682 64.21 187.876 69.2918 190.416L76 177ZM80 179L92 170C90.6028 168.137 88.791 166.625 86.7082 165.584L80 179ZM83 183H98C98 179.754 96.9473 176.596 95 174L83 183ZM83 185H68C68 193.284 74.7157 200 83 200V185ZM85 185V200C93.2843 200 100 193.284 100 185H85ZM85 159L70.166 156.775C70.0555 157.511 70 158.255 70 159H85ZM88 139L73.4479 135.362C73.3313 135.828 73.2372 136.3 73.166 136.775L88 139ZM89 135V120C82.117 120 76.1172 124.684 74.4479 131.362L89 135ZM91 135V150C98.6432 150 105.064 144.253 105.908 136.656L91 135ZM92 126L77.7698 121.257C77.4357 122.259 77.2084 123.294 77.0917 124.344L92 126ZM96 114V99C89.5435 99 83.8115 103.131 81.7698 109.257L96 114ZM98 114V129C105.03 129 111.118 124.117 112.643 117.254L98 114ZM100 105L86.9264 97.6461C86.2051 98.9284 85.6764 100.31 85.3572 101.746L100 105ZM109 89L98.3934 78.3934C97.4267 79.3601 96.5966 80.4545 95.9264 81.6461L109 89ZM112 86L122.607 96.6066C123.549 95.6639 124.362 94.5997 125.024 93.4421L112 86ZM116 79L104.851 68.9655C104.135 69.7604 103.507 70.6294 102.976 71.5579L116 79ZM125 69L136.149 79.0345C136.448 78.7025 136.732 78.3573 137 78L125 69ZM131 61L121.63 49.287C120.642 50.0769 119.759 50.9884 119 52L131 61ZM136 57L145.37 68.713C147.065 67.3571 148.446 65.6496 149.416 63.7082L136 57ZM137 55L129.283 42.1376C126.836 43.6053 124.859 45.7402 123.584 48.2918L137 55ZM142 52L149.717 64.8624C150.483 64.4031 151.206 63.8765 151.878 63.2887L142 52ZM150 45L141.679 32.5192C141.135 32.8822 140.615 33.2804 140.122 33.7113L150 45ZM156 41L148.283 28.1376C148.079 28.26 147.877 28.3873 147.679 28.5192L156 41ZM171 32L164.657 18.4073C164.186 18.6268 163.728 18.8705 163.283 19.1376L171 32ZM186 25L181.69 10.6326C180.994 10.8413 180.315 11.1002 179.657 11.4073L186 25ZM196 22V7C194.54 7 193.088 7.21312 191.69 7.63261L196 22ZM199 22V37C207.284 37 214 30.2843 214 22L199 22ZM199 20L196.058 5.29129C189.047 6.69356 184 12.8498 184 20L199 20ZM219 16L217.139 1.11583C216.777 1.16113 216.416 1.21966 216.058 1.29129L219 16ZM239 38V23C238.378 23 237.757 23.0387 237.139 23.1158L239 38ZM215 41L213.139 26.1158C212.541 26.1907 211.947 26.3015 211.362 26.4479L215 41ZM207 43L203.362 28.4479C196.684 30.1172 192 36.117 192 43L207 43ZM207 45L209.121 59.8492C216.511 58.7936 222 52.4648 222 45H207ZM200 46L197.879 31.1508C196.988 31.278 196.11 31.4852 195.257 31.7698L200 46ZM188 50L183.257 35.7698C177.131 37.8115 173 43.5435 173 50H188ZM188 52L192.743 66.2302C198.869 64.1885 203 58.4565 203 52H188ZM179 55L174.257 40.7698C173.583 40.9942 172.927 41.2662 172.292 41.5836L179 55ZM175 57L168.292 43.5836C163.21 46.1245 160 51.3184 160 57H175ZM175 59L180.571 72.9272C186.266 70.6492 190 65.1336 190 59H175ZM170 61L164.429 47.0728C163.686 47.37 162.969 47.726 162.283 48.1376L170 61ZM165 64L157.283 51.1376C156.706 51.4833 156.154 51.8673 155.63 52.287L165 64ZM155 72L145.63 60.287C145.551 60.3494 145.474 60.4127 145.397 60.4767L155 72ZM149 77L139.397 65.4767C139.049 65.7669 138.714 66.0728 138.393 66.3934L149 77ZM144 82L133.393 71.3934C131.957 72.8298 130.827 74.543 130.073 76.4291L144 82ZM142 87L148.708 100.416C151.994 98.7735 154.563 95.9818 155.927 92.5709L142 87ZM138 89L131.292 75.5836C128.74 76.8594 126.605 78.8363 125.138 81.2826L138 89ZM135 94L145.607 104.607C146.474 103.739 147.231 102.769 147.862 101.717L135 94ZM130 99L119.393 88.3934C117.747 90.04 116.506 92.0474 115.77 94.2566L130 99ZM128 105V120C134.456 120 140.189 115.869 142.23 109.743L128 105ZM126 105V90C120.118 90 114.779 93.438 112.345 98.793L126 105ZM121 116L107.345 109.793C106.458 111.742 106 113.859 106 116H121ZM121 118V133C129.284 133 136 126.284 136 118H121ZM119 118V103C112.661 103 107.006 106.985 104.874 112.955L119 118ZM114 132L99.8739 126.955C99.2956 128.574 99 130.281 99 132H114ZM114 135V150C122.284 150 129 143.284 129 135H114ZM112 135V120C104.97 120 98.8823 124.883 97.3572 131.746L112 135ZM108 153L93.3572 149.746C93.2032 150.439 93.0986 151.142 93.0442 151.85L108 153ZM107 166L92.0442 164.85C91.5627 171.108 95.0293 177.005 100.732 179.628C106.435 182.251 113.168 181.045 117.607 176.607L107 166ZM110 163L120.607 173.607C123.42 170.794 125 166.978 125 163H110ZM110 160V145C101.716 145 95 151.716 95 160H110ZM112 160V175C117.682 175 122.876 171.79 125.416 166.708L112 160ZM120 144L106.832 136.817C106.746 136.974 106.663 137.132 106.584 137.292L120 144ZM126 133L139.168 140.183C140.37 137.979 141 135.51 141 133H126ZM126 131L127.358 116.062C123.161 115.68 118.997 117.082 115.885 119.924C112.773 122.766 111 126.786 111 131H126ZM137 132L141.743 117.77C140.646 117.404 139.51 117.166 138.358 117.062L137 132ZM140 133H155C155 126.544 150.869 120.811 144.743 118.77L140 133ZM140 135H125C125 140.015 127.507 144.699 131.679 147.481L140 135ZM146 139L137.679 151.481C140.144 153.123 143.039 154 146 154V139ZM149 139L162.787 144.909C164.773 140.274 164.298 134.952 161.523 130.743C158.747 126.533 154.042 124 149 124V139ZM146 146L159.416 152.708C159.548 152.445 159.671 152.179 159.787 151.909L146 146ZM142 154L128.584 147.292C127.542 149.375 127 151.671 127 154H142ZM142 156V171C150.284 171 157 164.284 157 156H142ZM140 156V141C133.944 141 128.483 144.641 126.154 150.231L140 156ZM135 168L121.154 162.231C120.392 164.059 120 166.02 120 168H135ZM135 170V185C143.284 185 150 178.284 150 170H135ZM133 170V155C127.118 155 121.779 158.438 119.345 163.793L133 170ZM128 181L114.345 174.793C113.458 176.742 113 178.859 113 181H128ZM128 183V198C136.284 198 143 191.284 143 183H128ZM126 183V168C119.944 168 114.483 171.641 112.154 177.231L126 183ZM121 195L107.154 189.231C106.392 191.059 106 193.02 106 195H121ZM121 197V212C129.284 212 136 205.284 136 197H121ZM119 197V182C113.118 182 107.779 185.438 105.345 190.793L119 197ZM114 208L100.345 201.793C99.4584 203.742 99 205.859 99 208H114ZM114 210V225C122.284 225 129 218.284 129 210H114ZM112 210V195C105.544 195 99.8115 199.131 97.7698 205.257L112 210ZM110 216L95.7698 211.257C94.7434 214.336 94.7434 217.664 95.7698 220.743L110 216ZM112 222L97.7698 226.743C99.8115 232.869 105.544 237 112 237V222ZM114 222L128.849 219.879C127.794 212.489 121.465 207 114 207V222ZM115 229L100.151 231.121C100.32 232.304 100.629 233.462 101.073 234.571L115 229ZM119 239L105.073 244.571C105.284 245.098 105.524 245.612 105.793 246.111L119 239ZM126 252L112.793 259.111C115.409 263.97 120.482 267 126 267V252ZM128 252L142.552 248.362C140.883 241.684 134.883 237 128 237V252ZM129 256L114.448 259.638C114.781 260.97 115.295 262.25 115.976 263.442L129 256ZM133 263L119.976 270.442C120.638 271.6 121.451 272.664 122.393 273.607L133 263ZM137 267L148.289 257.122C148.069 256.872 147.842 256.629 147.607 256.393L137 267ZM144 275L132.711 284.878C132.931 285.128 133.158 285.371 133.393 285.607L144 275ZM154 285L143.393 295.607C143.895 296.108 144.432 296.574 145 297L154 285ZM158 288L149 300C151.596 301.947 154.754 303 158 303V288ZM160 288L174.23 283.257C172.189 277.131 166.456 273 160 273V288ZM161 291L146.77 295.743C147.825 298.908 149.904 301.63 152.679 303.481L161 291ZM170 297L161.679 309.481C162.016 309.705 162.362 309.916 162.715 310.112L170 297ZM179 302L171.715 315.112C173.944 316.35 176.451 317 179 317V302ZM181 302H196C196 293.716 189.284 287 181 287V302ZM181 304H166C166 310.207 169.822 315.772 175.615 318L181 304ZM194 309L188.615 323C190.334 323.661 192.159 324 194 324V309ZM196 309H211C211 300.716 204.284 294 196 294V309ZM196 311H181C181 317.814 185.593 323.772 192.183 325.506L196 311ZM215 316L211.183 330.506C212.429 330.834 213.712 331 215 331V316ZM221 316H236C236 307.716 229.284 301 221 301V316ZM221 318H206C206 325.706 211.839 332.159 219.507 332.926L221 318ZM241 320L239.507 334.926C240.003 334.975 240.502 335 241 335V320ZM253 320V335C253.525 335 254.049 334.972 254.57 334.918L253 320ZM272 318L273.57 332.918C274.65 332.804 275.714 332.573 276.743 332.23L272 318ZM278 316L274.183 301.494C273.871 301.576 273.562 301.668 273.257 301.77L278 316ZM297 311L300.817 325.506C307.407 323.772 312 317.814 312 311H297ZM297 309L294.534 294.204C287.301 295.41 282 301.667 282 309H297ZM303 308L305.466 322.796C306.716 322.588 307.934 322.222 309.092 321.707L303 308ZM312 304L318.092 317.707C323.509 315.3 327 309.928 327 304H312ZM312 302L309.058 287.291C302.047 288.694 297 294.85 297 302H312ZM317 301L319.942 315.709C321.523 315.393 323.042 314.824 324.442 314.024L317 301ZM324 297L331.442 310.024C336.116 307.353 339 302.383 339 297H324ZM324 295L318.429 281.073C312.734 283.351 309 288.866 309 295H324ZM329 293L334.571 306.927C335.314 306.63 336.031 306.274 336.717 305.862L329 293ZM334 290L341.717 302.862C346.236 300.152 349 295.269 349 290H334ZM334 288L327.292 274.584C322.21 277.124 319 282.318 319 288H334ZM338 286L344.708 299.416C345.936 298.802 347.074 298.023 348.09 297.099L338 286ZM349 276L359.09 287.099C362.217 284.256 364 280.226 364 276H349ZM349 274L344.257 259.77C338.131 261.811 334 267.544 334 274H349ZM352 273L356.743 287.23C359.908 286.175 362.63 284.096 364.481 281.321L352 273ZM356 267L345.393 256.393C344.695 257.092 344.067 257.858 343.519 258.679L356 267ZM361 262L371.607 272.607C373.253 270.96 374.494 268.953 375.23 266.743L361 262ZM363 256L358.257 241.77C353.778 243.263 350.263 246.778 348.77 251.257L363 256ZM366 255L370.743 269.23C374.742 267.897 377.995 264.944 379.707 261.092L366 255ZM370 246L383.707 252.092C384.56 250.174 385 248.099 385 246H370ZM370 244V229C361.716 229 355 235.716 355 244H370ZM372 244V259C377.882 259 383.221 255.562 385.655 250.207L372 244ZM377 233L390.655 239.207C391.542 237.258 392 235.141 392 233H377ZM377 229V214C368.716 214 362 220.716 362 229H377ZM379 229V244C385.814 244 391.772 239.407 393.506 232.817L379 229ZM384 210L370.073 204.429C369.844 205.001 369.651 205.587 369.494 206.183L384 210ZM386 205L399.927 210.571C400.636 208.799 401 206.908 401 205H386ZM386 200H401C401 193.933 397.345 188.464 391.74 186.142C386.135 183.82 379.683 185.103 375.393 189.393L386 200ZM383 203L372.393 192.393C370.747 194.04 369.506 196.047 368.77 198.257L383 203ZM381 209V224C387.456 224 393.189 219.869 395.23 213.743L381 209ZM379 209V194C373.731 194 368.848 196.764 366.138 201.283L379 209ZM367 229L354.138 221.283C352.739 223.614 352 226.281 352 229H367ZM367 231V246C375.284 246 382 239.284 382 231H367ZM365 231V216C356.716 216 350 222.716 350 231H365ZM365 233L363.642 247.938C367.839 248.32 372.003 246.918 375.115 244.076C378.227 241.234 380 237.214 380 233H365ZM354 232L345.679 244.481C347.759 245.867 350.153 246.712 352.642 246.938L354 232ZM348 228L337.393 238.607C338.092 239.305 338.858 239.933 339.679 240.481L348 228ZM344 224L354.607 213.393C351.794 210.58 347.978 209 344 209V224ZM342 224H327C327 232.284 333.716 239 342 239V224ZM342 221V206C333.716 206 327 212.716 327 221H342ZM344 221V236C349.448 236 354.467 233.047 357.112 228.285L344 221ZM349 212L362.112 219.285C363.35 217.056 364 214.549 364 212H349ZM349 209V194C340.716 194 334 200.716 334 209H349ZM351 209V224C356.448 224 361.467 221.047 364.112 216.285L351 209ZM356 200L369.112 207.285C370.35 205.056 371 202.549 371 200H356ZM356 198V183C347.716 183 341 189.716 341 198H356ZM358 198V213C363.448 213 368.467 210.047 371.112 205.285L358 198ZM363 189L376.112 196.285C377.35 194.056 378 191.549 378 189H363ZM363 187V172C354.716 172 348 178.716 348 187H363ZM365 187V202C370.448 202 375.467 199.047 378.112 194.285L365 187ZM370 178L383.112 185.285C384.35 183.056 385 180.549 385 178H370ZM370 175L365.257 160.77C359.131 162.811 355 168.544 355 175H370ZM373 174L377.743 188.23C381.304 187.043 384.29 184.565 386.112 181.285L373 174ZM378 165L365.28 157.05C365.144 157.268 365.013 157.49 364.888 157.715L378 165ZM383 157L395.72 164.95C396.553 163.618 397.171 162.162 397.552 160.638L383 157ZM384 153V138C377.117 138 371.117 142.684 369.448 149.362L384 153ZM386 153V168C390.675 168 395.083 165.82 397.921 162.105C400.758 158.39 401.702 153.564 400.471 149.053L386 153ZM383 142L397.471 138.053C397.456 137.995 397.439 137.937 397.423 137.879L383 142ZM379 128L393.423 123.879C391.583 117.44 385.697 113 379 113V128ZM377 128L362.291 130.942C363.694 137.953 369.85 143 377 143V128ZM376 123L390.709 120.058C390.529 119.16 390.267 118.28 389.927 117.429L376 123ZM372 113L385.927 107.429C383.649 101.734 378.134 98 372 98V113ZM370 113L355.77 117.743C357.811 123.869 363.544 128 370 128V113ZM368 107L382.23 102.257C381.884 101.218 381.425 100.221 380.862 99.2826L368 107ZM365 102L377.862 94.2826C375.152 89.7645 370.269 87 365 87V102ZM363 102L348.448 105.638C350.117 112.316 356.117 117 363 117V102ZM362 98L376.552 94.362C376.046 92.3364 375.122 90.4389 373.84 88.7909L362 98ZM355 89L366.84 79.7909C366.714 79.6282 366.584 79.4682 366.451 79.3109L355 89ZM344 76L355.451 66.3109C354.389 65.0556 353.127 63.9836 351.717 63.1376L344 76ZM339 73L328.393 83.6066C329.261 84.4738 330.231 85.2314 331.283 85.8624L339 73ZM335 69L345.607 58.3934C345.105 57.8915 344.568 57.4259 344 57L335 69ZM323 60L332 48C331.588 47.6907 331.159 47.4028 330.717 47.1376L323 60ZM318 57L325.717 44.1376C325.229 43.8448 324.725 43.58 324.207 43.3445L318 57ZM307 52L313.207 38.3445C311.258 37.4584 309.141 37 307 37V52ZM305 52H290C290 60.2843 296.716 67 305 67V52ZM305 50H320C320 43.5435 315.869 37.8115 309.743 35.7698L305 50ZM278 41L282.743 26.7698C281.806 26.4574 280.841 26.2384 279.861 26.1158L278 41ZM254 38L255.861 23.1158C255.243 23.0387 254.622 23 254 23V38ZM386 149V134C380.801 134 375.973 136.692 373.24 141.114C370.507 145.536 370.259 151.058 372.584 155.708L386 149ZM387 151L373.584 157.708C376.124 162.79 381.318 166 387 166C392.682 166 397.876 162.79 400.416 157.708L387 151ZM388 149L401.416 155.708C403.741 151.058 403.493 145.536 400.76 141.114C398.027 136.692 393.199 134 388 134V149ZM105 167V152C98.5435 152 92.8115 156.131 90.7698 162.257L105 167ZM103 173L88.7698 168.257C87.245 172.831 88.0121 177.859 90.8314 181.771C93.6506 185.682 98.1783 188 103 188V173ZM105 173V188C111.456 188 117.189 183.869 119.23 177.743L105 173ZM107 167L121.23 171.743C122.755 167.169 121.988 162.141 119.169 158.229C116.349 154.318 111.822 152 107 152V167ZM101 175L115.23 170.257C113.079 163.804 106.856 159.606 100.068 160.029C93.2796 160.452 87.6252 165.389 86.2913 172.058L101 175ZM100 180L85.2913 177.058C83.995 183.54 87.0943 190.106 92.9221 193.225C98.75 196.344 105.933 195.281 110.607 190.607L100 180ZM102 178L112.607 188.607C116.624 184.589 118.027 178.647 116.23 173.257L102 178ZM97 182V167C89.8498 167 83.6936 172.047 82.2913 179.058L97 182ZM96 187L81.2913 184.058C80.1015 190.007 82.6125 196.087 87.6534 199.463C92.6943 202.839 99.2725 202.846 104.321 199.481L96 187ZM99 185L107.321 197.481C111.493 194.699 114 190.015 114 185H99ZM99 182H114C114 173.716 107.284 167 99 167V182ZM89 190L91.9417 175.291C85.4601 173.995 78.8939 177.094 75.7749 182.922C72.6559 188.75 73.7194 195.933 78.3934 200.607L89 190ZM92 193L81.3934 203.607C84.2064 206.42 88.0218 208 92 208V193ZM94 193V208C102.284 208 109 201.284 109 193H94ZM94 191H109C109 183.85 103.953 177.694 96.9417 176.291L94 191ZM227 30H266V0H227V30ZM263.534 29.7959L287.534 33.7959L292.466 4.20409L268.466 0.204091L263.534 29.7959ZM286.362 33.5521L290.362 34.5521L297.638 5.44786L293.638 4.44786L286.362 33.5521ZM279 20V22H309V20H279ZM291.879 36.8492L298.879 37.8492L303.121 8.15076L296.121 7.15076L291.879 36.8492ZM296.257 37.2302L308.257 41.2302L317.743 12.7698L305.743 8.76975L296.257 37.2302ZM298 27V29H328V27H298ZM308.257 43.2302L317.257 46.2302L326.743 17.7698L317.743 14.7698L308.257 43.2302ZM316.429 45.9272L321.429 47.9272L332.571 20.0728L327.571 18.0728L316.429 45.9272ZM312 34V36H342V34H312ZM322.257 50.2302L328.257 52.2302L337.743 23.7698L331.743 21.7698L322.257 50.2302ZM324.462 50.3329L337.462 59.3329L354.538 34.6671L341.538 25.6671L324.462 50.3329ZM335.393 57.6066L340.393 62.6066L361.607 41.3934L356.607 36.3934L335.393 57.6066ZM343.283 64.8624L348.283 67.8624L363.717 42.1376L358.717 39.1376L343.283 64.8624ZM345.393 65.6066L350.393 70.6066L371.607 49.3934L366.607 44.3934L345.393 65.6066ZM349.287 69.3704L353.287 74.3704L376.713 55.6296L372.713 50.6296L349.287 69.3704ZM354.393 75.6066L359.393 80.6066L380.607 59.3934L375.607 54.3934L354.393 75.6066ZM358.611 79.7619L364.611 86.7619L387.389 67.2381L381.389 60.2381L358.611 79.7619ZM363.138 84.7174L366.138 89.7174L391.862 74.2826L388.862 69.2826L363.138 84.7174ZM372.292 95.4164L374.292 96.4164L387.708 69.5836L385.708 68.5836L372.292 95.4164ZM367.832 90.1828L373.832 101.183L400.168 86.8172L394.168 75.8172L367.832 90.1828ZM375 103L378 107L402 89L399 85L375 103ZM376.213 103.909L379.213 110.909L406.787 99.0912L403.787 92.0912L376.213 103.909ZM378 105V108H408V105H378ZM393 123H395V93H393V123ZM380.77 112.743L386.77 130.743L415.23 121.257L409.23 103.257L380.77 112.743ZM386.77 130.743L387.77 133.743L416.23 124.257L415.23 121.257L386.77 130.743ZM388.584 122.292L387.584 124.292L414.416 137.708L415.416 135.708L388.584 122.292ZM397.362 145.552L401.362 146.552L408.638 117.448L404.638 116.448L397.362 145.552ZM391.584 138.708L393.584 142.708L420.416 129.292L418.416 125.292L391.584 138.708ZM396.393 146.607L401.393 151.607L422.607 130.393L417.607 125.393L396.393 146.607ZM401.393 151.607L406.393 156.607L427.607 135.393L422.607 130.393L401.393 151.607ZM403.976 153.442L407.976 160.442L434.024 145.558L430.024 138.558L403.976 153.442ZM408.712 161.602L415.712 171.602L440.288 154.398L433.288 144.398L408.712 161.602ZM416.287 172.37L420.287 177.37L443.713 158.63L439.713 153.63L416.287 172.37ZM419.519 176.321L423.519 182.321L448.481 165.679L444.481 159.679L419.519 176.321ZM421 174V177H451V174H421ZM431.257 191.23L434.257 192.23L443.743 163.77L440.743 162.77L431.257 191.23ZM425.976 185.442L429.976 192.442L456.024 177.558L452.024 170.558L425.976 185.442ZM432.393 195.607L436.393 199.607L457.607 178.393L453.607 174.393L432.393 195.607ZM434.345 197.053L441.345 208.053L466.655 191.947L459.655 180.947L434.345 197.053ZM441.138 207.717L444.138 212.717L469.862 197.283L466.862 192.283L441.138 207.717ZM446.393 215.607L450.393 219.607L471.607 198.393L467.607 194.393L446.393 215.607ZM448.138 216.717L451.138 221.717L476.862 206.283L473.862 201.283L448.138 216.717ZM449 214V216H479V214H449ZM459.257 230.23L462.257 231.23L471.743 202.77L468.743 201.77L459.257 230.23ZM453.888 224.285L458.888 233.285L485.112 218.715L480.112 209.715L453.888 224.285ZM457.291 223.058L456.291 228.058L485.709 233.942L486.709 228.942L457.291 223.058ZM460.393 220.393L456.393 224.393L477.607 245.607L481.607 241.607L460.393 220.393ZM459.558 221.976L452.558 225.976L467.442 252.024L474.442 248.024L459.558 221.976ZM449.393 228.393L448.393 229.393L469.607 250.607L470.607 249.607L449.393 228.393ZM459 225H454V255H459V225ZM465.713 230.63L461.713 225.63L438.287 244.37L442.287 249.37L465.713 230.63ZM465 235V233H435V235H465ZM450 218H448V248H450V218ZM459.713 223.63L455.713 218.63L432.287 237.37L436.287 242.37L459.713 223.63ZM458.23 223.257L457.23 220.257L428.77 229.743L429.77 232.743L458.23 223.257ZM452 213L448 210L430 234L434 237L452 213ZM451.862 214.283L448.862 209.283L423.138 224.717L426.138 229.717L451.862 214.283ZM447.609 207.501L438.609 196.501L415.391 215.499L424.391 226.499L447.609 207.501ZM438.523 196.397L433.523 190.397L410.477 209.603L415.477 215.603L438.523 196.397ZM437 200V197H407V200H437ZM428.708 183.584L424.708 181.584L411.292 208.416L415.292 210.416L428.708 183.584ZM430.862 187.283L427.862 182.283L402.138 197.717L405.138 202.717L430.862 187.283ZM425.607 179.393L421.607 175.393L400.393 196.607L404.393 200.607L425.607 179.393ZM424.416 179.292L423.416 177.292L396.584 190.708L397.584 192.708L424.416 179.292ZM395.062 182.642L394.062 193.642L423.938 196.358L424.938 185.358L395.062 182.642ZM398.393 184.393L397.393 185.393L418.607 206.607L419.607 205.607L398.393 184.393ZM393.188 193.63L389.188 218.63L418.812 223.37L422.812 198.37L393.188 193.63ZM389.887 215.919L380.887 240.919L409.113 251.081L418.113 226.081L389.887 215.919ZM395 231H393V261H395V231ZM378.291 243.058L377.291 248.058L406.709 253.942L407.709 248.942L378.291 243.058ZM378.584 244.292L374.584 252.292L401.416 265.708L405.416 257.708L378.584 244.292ZM375.519 250.679L369.519 259.679L394.481 276.321L400.481 267.321L375.519 250.679ZM369.519 259.679L361.519 271.679L386.481 288.321L394.481 276.321L369.519 259.679ZM363.393 269.393L359.393 273.393L380.607 294.607L384.607 290.607L363.393 269.393ZM359.393 273.393L354.393 278.393L375.607 299.607L380.607 294.607L359.393 273.393ZM353.477 279.397L348.477 285.397L371.523 304.603L376.523 298.603L353.477 279.397ZM350.238 283.611L343.238 289.611L362.762 312.389L369.762 306.389L350.238 283.611ZM343.238 289.611L336.238 295.611L355.762 318.389L362.762 312.389L343.238 289.611ZM337.679 294.519L331.679 298.519L348.321 323.481L354.321 319.481L337.679 294.519ZM340 296H338V326H340V296ZM323 311V313H353V311H323ZM330.715 299.888L321.715 304.888L336.285 331.112L345.285 326.112L330.715 299.888ZM329 303H327V333H329V303ZM312 318V320H342V318H312ZM321.231 306.154L309.231 311.154L320.769 338.846L332.769 333.846L321.231 306.154ZM315 310H313V340H315V310ZM298 325V327H328V325H298ZM308.257 312.77L293.257 317.77L302.743 346.23L317.743 341.23L308.257 312.77ZM298 317H294V347H298V317ZM279 332V334H309V332H279ZM291.058 319.291L271.058 323.291L276.942 352.709L296.942 348.709L291.058 319.291ZM272.139 323.116L264.139 324.116L267.861 353.884L275.861 352.884L272.139 323.116ZM266 324H227V354H266V324ZM229.339 324.184L210.339 321.184L205.661 350.816L224.661 353.816L229.339 324.184ZM211.254 321.357L202.254 319.357L195.746 348.643L204.746 350.643L211.254 321.357ZM214 334V332H184V334H214ZM201.942 317.291L191.942 315.291L186.058 344.709L196.058 346.709L201.942 317.291ZM195.092 316.293L186.092 312.293L173.908 339.707L182.908 343.707L195.092 316.293ZM185.909 312.213L171.909 306.213L160.091 333.787L174.091 339.787L185.909 312.213ZM176.607 309.393L173.607 306.393L152.393 327.607L155.393 330.607L176.607 309.393ZM170.442 303.976L163.442 299.976L148.558 326.024L155.558 330.024L170.442 303.976ZM171 313V311H141V313H171ZM160.743 296.77L154.743 294.77L145.257 323.23L151.257 325.23L160.743 296.77ZM160.034 297.851L150.034 288.851L129.966 311.149L139.966 320.149L160.034 297.851ZM146.708 286.584L144.708 285.584L131.292 312.416L133.292 313.416L146.708 286.584ZM153 299V297H123V299H153ZM144.708 283.584L140.708 281.584L127.292 308.416L131.292 310.416L144.708 283.584ZM144.607 284.393L139.607 279.393L118.393 300.607L123.393 305.607L144.607 284.393ZM140.149 279.966L131.149 269.966L108.851 290.034L117.851 300.034L140.149 279.966ZM132.288 271.398L125.288 261.398L100.712 278.602L107.712 288.602L132.288 271.398ZM125.481 261.679L119.481 252.679L94.5192 269.321L100.519 278.321L125.481 261.679ZM120.416 254.292L118.416 250.292L91.5836 263.708L93.5836 267.708L120.416 254.292ZM120 257V254H90V257H120ZM105 239H103V269H105V239ZM116.655 247.793L111.655 236.793L84.3445 249.207L89.3445 260.207L116.655 247.793ZM113 243V240H83V243H113ZM98 225H96V255H98V225ZM109.024 232.558L105.024 225.558L78.9764 240.442L82.9764 247.442L109.024 232.558ZM101.603 221.477L95.6028 216.477L76.3972 239.523L82.3972 244.523L101.603 221.477ZM96.6066 217.393L91.6066 212.393L70.3934 233.607L75.3934 238.607L96.6066 217.393ZM92.713 213.63L88.713 208.63L65.287 227.37L69.287 232.37L92.713 213.63ZM92 218V216H62V218H92ZM83.7082 202.584L79.7082 200.584L66.2918 227.416L70.2918 229.416L83.7082 202.584ZM85.8624 206.283L82.8624 201.283L57.1376 216.717L60.1376 221.717L85.8624 206.283ZM80.6066 198.393L76.6066 194.393L55.3934 215.607L59.3934 219.607L80.6066 198.393ZM77.713 195.63L69.713 185.63L46.287 204.37L54.287 214.37L77.713 195.63ZM70 186L67 182L43 200L46 204L70 186ZM70 191V189H40V191H70ZM61.7082 175.584L57.7082 173.584L44.2918 200.416L48.2918 202.416L61.7082 175.584ZM63.8624 179.283L60.8624 174.283L35.1376 189.717L38.1376 194.717L63.8624 179.283ZM58.6066 171.393L54.6066 167.393L33.3934 188.607L37.3934 192.607L58.6066 171.393ZM54.6066 167.393L49.6066 162.393L28.3934 183.607L33.3934 188.607L54.6066 167.393ZM51.8624 165.283L48.8624 160.283L23.1376 175.717L26.1376 180.717L51.8624 165.283ZM46.6066 157.393L44.6066 155.393L23.3934 176.607L25.3934 178.607L46.6066 157.393ZM49 166V163H19V166H49ZM40.7082 149.584L36.7082 147.584L23.2918 174.416L27.2918 176.416L40.7082 149.584ZM42.8624 153.283L39.8624 148.283L14.1376 163.717L17.1376 168.717L42.8624 153.283ZM37.6066 145.393L32.6066 140.393L11.3934 161.607L16.3934 166.607L37.6066 145.393ZM34 142L31 138L7 156L10 160L34 142ZM33.7087 149.942L34.7087 144.942L5.29129 139.058L4.29129 144.058L33.7087 149.942ZM30.6066 152.607L35.6066 147.607L14.3934 126.393L9.3934 131.393L30.6066 152.607ZM31.7082 150.416L35.7082 148.416L22.2918 121.584L18.2918 123.584L31.7082 150.416ZM39.6066 145.607L43.6066 141.607L22.3934 120.393L18.3934 124.393L39.6066 145.607ZM29.362 145.552L33.362 146.552L40.638 117.448L36.638 116.448L29.362 145.552ZM25.287 141.37L29.287 146.37L52.713 127.63L48.713 122.63L25.287 141.37ZM26 137V139H56V137H26ZM41 154H43V124H41V154ZM31.4767 148.603L36.4767 154.603L59.5233 135.397L54.5233 129.397L31.4767 148.603ZM37.3934 155.607L42.3934 160.607L63.6066 139.393L58.6066 134.393L37.3934 155.607ZM41.8506 160.034L50.8506 170.034L73.1494 149.966L64.1494 139.966L41.8506 160.034ZM50.7113 169.878L57.7113 177.878L80.2887 158.122L73.2887 150.122L50.7113 169.878ZM54 168V170H84V168H54ZM62.2918 183.416L66.2918 185.416L79.7082 158.584L75.7082 156.584L62.2918 183.416ZM62.3934 182.607L65.3934 185.607L86.6066 164.393L83.6066 161.393L62.3934 182.607ZM61 175V177H91V175H61ZM69.2918 190.416L73.2918 192.416L86.7082 165.584L82.7082 163.584L69.2918 190.416ZM68 188L71 192L95 174L92 170L68 188ZM68 183V185H98V183H68ZM83 200H85V170H83V200ZM100 185V159H70V185H100ZM99.834 161.225L102.834 141.225L73.166 136.775L70.166 156.775L99.834 161.225ZM102.552 142.638L103.552 138.638L74.4479 131.362L73.4479 135.362L102.552 142.638ZM89 150H91V120H89V150ZM105.908 136.656L106.908 127.656L77.0917 124.344L76.0917 133.344L105.908 136.656ZM106.23 130.743L110.23 118.743L81.7698 109.257L77.7698 121.257L106.23 130.743ZM96 129H98V99H96V129ZM112.643 117.254L114.643 108.254L85.3572 101.746L83.3572 110.746L112.643 117.254ZM113.074 112.354L122.074 96.3539L95.9264 81.6461L86.9264 97.6461L113.074 112.354ZM119.607 99.6066L122.607 96.6066L101.393 75.3934L98.3934 78.3934L119.607 99.6066ZM125.024 93.4421L129.024 86.4421L102.976 71.5579L98.9764 78.5579L125.024 93.4421ZM127.149 89.0345L136.149 79.0345L113.851 58.9655L104.851 68.9655L127.149 89.0345ZM137 78L143 70L119 52L113 60L137 78ZM140.37 72.713L145.37 68.713L126.63 45.287L121.63 49.287L140.37 72.713ZM149.416 63.7082L150.416 61.7082L123.584 48.2918L122.584 50.2918L149.416 63.7082ZM144.717 67.8624L149.717 64.8624L134.283 39.1376L129.283 42.1376L144.717 67.8624ZM151.878 63.2887L159.878 56.2887L140.122 33.7113L132.122 40.7113L151.878 63.2887ZM158.321 57.4808L164.321 53.4808L147.679 28.5192L141.679 32.5192L158.321 57.4808ZM163.717 53.8624L178.717 44.8624L163.283 19.1376L148.283 28.1376L163.717 53.8624ZM177.343 45.5927L192.343 38.5927L179.657 11.4073L164.657 18.4073L177.343 45.5927ZM190.31 39.3674L200.31 36.3674L191.69 7.63261L181.69 10.6326L190.31 39.3674ZM196 37H199V7H196V37ZM214 22V20H184V22H214ZM201.942 34.7087L221.942 30.7087L216.058 1.29129L196.058 5.29129L201.942 34.7087ZM220.861 30.8842L228.861 29.8842L225.139 0.115832L217.139 1.11583L220.861 30.8842ZM237.139 23.1158L213.139 26.1158L216.861 55.8842L240.861 52.8842L237.139 23.1158ZM211.362 26.4479L203.362 28.4479L210.638 57.5521L218.638 55.5521L211.362 26.4479ZM192 43V45H222V43H192ZM204.879 30.1508L197.879 31.1508L202.121 60.8492L209.121 59.8492L204.879 30.1508ZM195.257 31.7698L183.257 35.7698L192.743 64.2302L204.743 60.2302L195.257 31.7698ZM173 50V52H203V50H173ZM183.257 37.7698L174.257 40.7698L183.743 69.2302L192.743 66.2302L183.257 37.7698ZM172.292 41.5836L168.292 43.5836L181.708 70.4164L185.708 68.4164L172.292 41.5836ZM160 57V59H190V57H160ZM169.429 45.0728L164.429 47.0728L175.571 74.9272L180.571 72.9272L169.429 45.0728ZM162.283 48.1376L157.283 51.1376L172.717 76.8624L177.717 73.8624L162.283 48.1376ZM155.63 52.287L145.63 60.287L164.37 83.713L174.37 75.713L155.63 52.287ZM145.397 60.4767L139.397 65.4767L158.603 88.5233L164.603 83.5233L145.397 60.4767ZM138.393 66.3934L133.393 71.3934L154.607 92.6066L159.607 87.6066L138.393 66.3934ZM130.073 76.4291L128.073 81.4291L155.927 92.5709L157.927 87.5709L130.073 76.4291ZM135.292 73.5836L131.292 75.5836L144.708 102.416L148.708 100.416L135.292 73.5836ZM125.138 81.2826L122.138 86.2826L147.862 101.717L150.862 96.7174L125.138 81.2826ZM124.393 83.3934L119.393 88.3934L140.607 109.607L145.607 104.607L124.393 83.3934ZM115.77 94.2566L113.77 100.257L142.23 109.743L144.23 103.743L115.77 94.2566ZM128 90H126V120H128V90ZM112.345 98.793L107.345 109.793L134.655 122.207L139.655 111.207L112.345 98.793ZM106 116V118H136V116H106ZM121 103H119V133H121V103ZM104.874 112.955L99.8739 126.955L128.126 137.045L133.126 123.045L104.874 112.955ZM99 132V135H129V132H99ZM114 120H112V150H114V120ZM97.3572 131.746L93.3572 149.746L122.643 156.254L126.643 138.254L97.3572 131.746ZM93.0442 151.85L92.0442 164.85L121.956 167.15L122.956 154.15L93.0442 151.85ZM117.607 176.607L120.607 173.607L99.3934 152.393L96.3934 155.393L117.607 176.607ZM125 163V160H95V163H125ZM110 175H112V145H110V175ZM125.416 166.708L133.416 150.708L106.584 137.292L98.5836 153.292L125.416 166.708ZM133.168 151.183L139.168 140.183L112.832 125.817L106.832 136.817L133.168 151.183ZM141 133V131H111V133H141ZM124.642 145.938L135.642 146.938L138.358 117.062L127.358 116.062L124.642 145.938ZM132.257 146.23L135.257 147.23L144.743 118.77L141.743 117.77L132.257 146.23ZM125 133V135H155V133H125ZM131.679 147.481L137.679 151.481L154.321 126.519L148.321 122.519L131.679 147.481ZM146 154H149V124H146V154ZM135.213 133.091L132.213 140.091L159.787 151.909L162.787 144.909L135.213 133.091ZM132.584 139.292L128.584 147.292L155.416 160.708L159.416 152.708L132.584 139.292ZM127 154V156H157V154H127ZM142 141H140V171H142V141ZM126.154 150.231L121.154 162.231L148.846 173.769L153.846 161.769L126.154 150.231ZM120 168V170H150V168H120ZM135 155H133V185H135V155ZM119.345 163.793L114.345 174.793L141.655 187.207L146.655 176.207L119.345 163.793ZM113 181V183H143V181H113ZM128 168H126V198H128V168ZM112.154 177.231L107.154 189.231L134.846 200.769L139.846 188.769L112.154 177.231ZM106 195V197H136V195H106ZM121 182H119V212H121V182ZM105.345 190.793L100.345 201.793L127.655 214.207L132.655 203.207L105.345 190.793ZM99 208V210H129V208H99ZM114 195H112V225H114V195ZM97.7698 205.257L95.7698 211.257L124.23 220.743L126.23 214.743L97.7698 205.257ZM95.7698 220.743L97.7698 226.743L126.23 217.257L124.23 211.257L95.7698 220.743ZM112 237H114V207H112V237ZM99.1508 224.121L100.151 231.121L129.849 226.879L128.849 219.879L99.1508 224.121ZM101.073 234.571L105.073 244.571L132.927 233.429L128.927 223.429L101.073 234.571ZM105.793 246.111L112.793 259.111L139.207 244.889L132.207 231.889L105.793 246.111ZM126 267H128V237H126V267ZM113.448 255.638L114.448 259.638L143.552 252.362L142.552 248.362L113.448 255.638ZM115.976 263.442L119.976 270.442L146.024 255.558L142.024 248.558L115.976 263.442ZM122.393 273.607L126.393 277.607L147.607 256.393L143.607 252.393L122.393 273.607ZM125.711 276.878L132.711 284.878L155.289 265.122L148.289 257.122L125.711 276.878ZM133.393 285.607L143.393 295.607L164.607 274.393L154.607 264.393L133.393 285.607ZM145 297L149 300L167 276L163 273L145 297ZM158 303H160V273H158V303ZM145.77 292.743L146.77 295.743L175.23 286.257L174.23 283.257L145.77 292.743ZM152.679 303.481L161.679 309.481L178.321 284.519L169.321 278.519L152.679 303.481ZM162.715 310.112L171.715 315.112L186.285 288.888L177.285 283.888L162.715 310.112ZM179 317H181V287H179V317ZM166 302V304H196V302H166ZM175.615 318L188.615 323L199.385 295L186.385 290L175.615 318ZM194 324H196V294H194V324ZM181 309V311H211V309H181ZM192.183 325.506L211.183 330.506L218.817 301.494L199.817 296.494L192.183 325.506ZM215 331H221V301H215V331ZM206 316V318H236V316H206ZM219.507 332.926L239.507 334.926L242.493 305.074L222.493 303.074L219.507 332.926ZM241 335H253V305H241V335ZM254.57 334.918L273.57 332.918L270.43 303.082L251.43 305.082L254.57 334.918ZM276.743 332.23L282.743 330.23L273.257 301.77L267.257 303.77L276.743 332.23ZM281.817 330.506L300.817 325.506L293.183 296.494L274.183 301.494L281.817 330.506ZM312 311V309H282V311H312ZM299.466 323.796L305.466 322.796L300.534 293.204L294.534 294.204L299.466 323.796ZM309.092 321.707L318.092 317.707L305.908 290.293L296.908 294.293L309.092 321.707ZM327 304V302H297V304H327ZM314.942 316.709L319.942 315.709L314.058 286.291L309.058 287.291L314.942 316.709ZM324.442 314.024L331.442 310.024L316.558 283.976L309.558 287.976L324.442 314.024ZM339 297V295H309V297H339ZM329.571 308.927L334.571 306.927L323.429 279.073L318.429 281.073L329.571 308.927ZM336.717 305.862L341.717 302.862L326.283 277.138L321.283 280.138L336.717 305.862ZM349 290V288H319V290H349ZM340.708 301.416L344.708 299.416L331.292 272.584L327.292 274.584L340.708 301.416ZM348.09 297.099L359.09 287.099L338.91 264.901L327.91 274.901L348.09 297.099ZM364 276V274H334V276H364ZM353.743 288.23L356.743 287.23L347.257 258.77L344.257 259.77L353.743 288.23ZM364.481 281.321L368.481 275.321L343.519 258.679L339.519 264.679L364.481 281.321ZM366.607 277.607L371.607 272.607L350.393 251.393L345.393 256.393L366.607 277.607ZM375.23 266.743L377.23 260.743L348.77 251.257L346.77 257.257L375.23 266.743ZM367.743 270.23L370.743 269.23L361.257 240.77L358.257 241.77L367.743 270.23ZM379.707 261.092L383.707 252.092L356.293 239.908L352.293 248.908L379.707 261.092ZM385 246V244H355V246H385ZM370 259H372V229H370V259ZM385.655 250.207L390.655 239.207L363.345 226.793L358.345 237.793L385.655 250.207ZM392 233V229H362V233H392ZM377 244H379V214H377V244ZM393.506 232.817L398.506 213.817L369.494 206.183L364.494 225.183L393.506 232.817ZM397.927 215.571L399.927 210.571L372.073 199.429L370.073 204.429L397.927 215.571ZM401 205V200H371V205H401ZM375.393 189.393L372.393 192.393L393.607 213.607L396.607 210.607L375.393 189.393ZM368.77 198.257L366.77 204.257L395.23 213.743L397.23 207.743L368.77 198.257ZM381 194H379V224H381V194ZM366.138 201.283L360.138 211.283L385.862 226.717L391.862 216.717L366.138 201.283ZM360.138 211.283L354.138 221.283L379.862 236.717L385.862 226.717L360.138 211.283ZM352 229V231H382V229H352ZM367 216H365V246H367V216ZM350 231V233H380V231H350ZM366.358 218.062L355.358 217.062L352.642 246.938L363.642 247.938L366.358 218.062ZM362.321 219.519L356.321 215.519L339.679 240.481L345.679 244.481L362.321 219.519ZM358.607 217.393L354.607 213.393L333.393 234.607L337.393 238.607L358.607 217.393ZM344 209H342V239H344V209ZM357 224V221H327V224H357ZM342 236H344V206H342V236ZM357.112 228.285L362.112 219.285L335.888 204.715L330.888 213.715L357.112 228.285ZM364 212V209H334V212H364ZM349 224H351V194H349V224ZM364.112 216.285L369.112 207.285L342.888 192.715L337.888 201.715L364.112 216.285ZM371 200V198H341V200H371ZM356 213H358V183H356V213ZM371.112 205.285L376.112 196.285L349.888 181.715L344.888 190.715L371.112 205.285ZM378 189V187H348V189H378ZM363 202H365V172H363V202ZM378.112 194.285L383.112 185.285L356.888 170.715L351.888 179.715L378.112 194.285ZM385 178V175H355V178H385ZM374.743 189.23L377.743 188.23L368.257 159.77L365.257 160.77L374.743 189.23ZM386.112 181.285L391.112 172.285L364.888 157.715L359.888 166.715L386.112 181.285ZM390.72 172.95L395.72 164.95L370.28 149.05L365.28 157.05L390.72 172.95ZM397.552 160.638L398.552 156.638L369.448 149.362L368.448 153.362L397.552 160.638ZM384 168H386V138H384V168ZM400.471 149.053L397.471 138.053L368.529 145.947L371.529 156.947L400.471 149.053ZM397.423 137.879L393.423 123.879L364.577 132.121L368.577 146.121L397.423 137.879ZM379 113H377V143H379V113ZM391.709 125.058L390.709 120.058L361.291 125.942L362.291 130.942L391.709 125.058ZM389.927 117.429L385.927 107.429L358.073 118.571L362.073 128.571L389.927 117.429ZM372 98H370V128H372V98ZM384.23 108.257L382.23 102.257L353.77 111.743L355.77 117.743L384.23 108.257ZM380.862 99.2826L377.862 94.2826L352.138 109.717L355.138 114.717L380.862 99.2826ZM365 87H363V117H365V87ZM377.552 98.362L376.552 94.362L347.448 101.638L348.448 105.638L377.552 98.362ZM373.84 88.7909L366.84 79.7909L343.16 98.2091L350.16 107.209L373.84 88.7909ZM366.451 79.3109L355.451 66.3109L332.549 85.6891L343.549 98.6891L366.451 79.3109ZM351.717 63.1376L346.717 60.1376L331.283 85.8624L336.283 88.8624L351.717 63.1376ZM349.607 62.3934L345.607 58.3934L324.393 79.6066L328.393 83.6066L349.607 62.3934ZM344 57L332 48L314 72L326 81L344 57ZM330.717 47.1376L325.717 44.1376L310.283 69.8624L315.283 72.8624L330.717 47.1376ZM324.207 43.3445L313.207 38.3445L300.793 65.6555L311.793 70.6555L324.207 43.3445ZM307 37H305V67H307V37ZM320 52V50H290V52H320ZM309.743 35.7698L291.743 29.7698L282.257 58.2302L300.257 64.2302L309.743 35.7698ZM291.743 29.7698L282.743 26.7698L273.257 55.2302L282.257 58.2302L291.743 29.7698ZM279.861 26.1158L255.861 23.1158L252.139 52.8842L276.139 55.8842L279.861 26.1158ZM254 23H239V53H254V23ZM372.584 155.708L373.584 157.708L400.416 144.292L399.416 142.292L372.584 155.708ZM400.416 157.708L401.416 155.708L374.584 142.292L373.584 144.292L400.416 157.708ZM388 134H386V164H388V134ZM90.7698 162.257L88.7698 168.257L117.23 177.743L119.23 171.743L90.7698 162.257ZM103 188H105V158H103V188ZM119.23 177.743L121.23 171.743L92.7698 162.257L90.7698 168.257L119.23 177.743ZM107 152H105V182H107V152ZM86.2913 172.058L85.2913 177.058L114.709 182.942L115.709 177.942L86.2913 172.058ZM110.607 190.607L112.607 188.607L91.3934 167.393L89.3934 169.393L110.607 190.607ZM116.23 173.257L115.23 170.257L86.7698 179.743L87.7698 182.743L116.23 173.257ZM82.2913 179.058L81.2913 184.058L110.709 189.942L111.709 184.942L82.2913 179.058ZM104.321 199.481L107.321 197.481L90.6795 172.519L87.6795 174.519L104.321 199.481ZM114 185V182H84V185H114ZM99 167H97V197H99V167ZM78.3934 200.607L81.3934 203.607L102.607 182.393L99.6066 179.393L78.3934 200.607ZM92 208H94V178H92V208ZM109 193V191H79V193H109ZM96.9417 176.291L91.9417 175.291L86.0583 204.709L91.0583 205.709L96.9417 176.291Z" fill="white" mask="url(#path-2-outside-1_125_21)"/>
</g>
<path d="M401 175L404 176L409 183V195L408 196L404 221L395 246H393L392 251L388 259L382 268L374 280L370 284L365 289L360 295L353 301L346 307L340 311H338V313L329 318H327V320L315 325H313V327L298 332H294V334L274 338L266 339H227L208 336L199 334V332L189 330L180 326L166 320L163 317L156 313V311L150 309L140 300L138 299V297L134 295L129 290L120 280L113 270L107 261L105 257V254H103L98 243V240H96L97 236L109 217L111 216L112 222H114L119 237L126 250V252H128L132 259L133 263L137 265L140 270L145 275L154 284L160 288L163 291L173 298L181 302V304L186 305L196 309V311L203 312L221 316V318L241 319H253L272 317L278 315L293 311H297V309L310 304H312V302L323 297L327 293L332 290H334V288L345 279L349 274L354 269L356 266H358L360 262L363 256L365 255L370 244H372L375 235L377 229H379L381 219L384 206L387 197L393 187L399 177H401V175Z" fill="black"/>
<path d="M400 131L405 132L407 136L412 141L417 146L421 153L428 163L432 168L436 174V177L439 178L443 185L447 189L454 200L457 205L461 209L464 214V216L467 217L472 226L471 231L467 235L460 239L459 240H454L450 235V233H448L444 228L443 225L439 222L436 217L427 206L422 200V197L418 195L415 190L411 186L408 182V180H406L402 175H400L398 180L392 190L388 197H386L385 201L381 209H379L377 215L370 225L367 231H365V233H354L347 228L344 225L342 224V221H344L346 215L349 209H351L353 203L356 198H358L360 193L363 187H365L367 181L370 175L373 172L378 164L384 153H386L388 147L400 131Z" fill="#F0CD1B"/>
<path d="M33 131L37 132L41 137V139H43L48 145L53 150L62 160L69 168V170L73 172L76 175V177L80 179L83 183V185L87 187L92 192L94 193L96 187L99 182L103 173H105L108 164L110 160H112L115 151L126 131H137L140 133V135L145 137L149 139L148 144L142 156H140L139 161L135 170H133L132 175L128 183H126L125 188L121 197H119L118 201L114 210H112L110 217L98 236H94L89 231L84 225L79 221L77 216L73 214L70 209L66 205L58 195L55 191V189L51 187L48 182L44 178L39 173L36 168L34 166V163L30 161L27 156L22 151L19 147L20 142L25 137L29 135L33 131Z" fill="#F0CC1B"/>
<path d="M310 121.5C309.506 121.5 309.013 121.549 308.529 121.646L303.529 122.646C302.875 122.776 302.242 122.994 301.646 123.292L299.988 124.121C299.067 123.72 298.054 123.5 297 123.5H270C265.858 123.5 262.5 126.858 262.5 131V239C262.5 243.142 265.858 246.5 270 246.5H297C301.104 246.5 304.445 243.202 304.499 239.099L305.455 166.473L308.859 164.431C309.308 164.161 309.723 163.849 310.099 163.5H315.901C316.191 163.769 316.505 164.017 316.84 164.24L319.84 166.24C320.555 166.717 321.347 167.068 322.181 167.276L326.181 168.276C328.342 168.816 330.631 168.368 332.429 167.053C334.227 165.737 335.346 163.691 335.485 161.468L336.485 145.468C336.495 145.312 336.5 145.156 336.5 145V131C336.5 127.485 334.059 124.441 330.627 123.679L321.627 121.679C321.093 121.56 320.547 121.5 320 121.5H310Z" fill="#EFCC1B" stroke="white" stroke-width="15" stroke-linecap="round" stroke-linejoin="round"/>
<path d="M183 123.5C178.858 123.5 175.5 126.858 175.5 131V238C175.5 242.142 178.858 245.5 183 245.5H210C214.142 245.5 217.5 242.142 217.5 238V131C217.5 126.858 214.142 123.5 210 123.5H183Z" fill="#EFCC1C" stroke="white" stroke-width="15" stroke-linecap="round" stroke-linejoin="round"/>
<path d="M199.471 71.6456C197.379 71.2272 195.207 71.7197 193.5 73L189.5 76C188.569 76.6986 187.813 77.6045 187.292 78.6459L185.836 81.5573L181.697 85.6967C181.225 86.1681 180.819 86.7002 180.488 87.279L176.488 94.279C176.088 94.9789 175.804 95.7387 175.646 96.5291L174.646 101.529C174.05 104.509 175.311 107.555 177.84 109.24L180.84 111.24C181.555 111.717 182.347 112.068 183.181 112.276L183.263 112.297C183.92 113.639 184.968 114.763 186.279 115.512L191.307 118.385C191.946 119.647 192.928 120.703 194.141 121.431L199.141 124.431C199.776 124.812 200.463 125.097 201.181 125.276L205.181 126.276C208.256 127.045 211.482 125.798 213.24 123.16L215.24 120.16C215.636 119.567 215.944 118.921 216.157 118.243C216.971 117.701 217.682 116.998 218.24 116.16L222.018 110.494L226.762 104.801C227.562 103.841 228.109 102.696 228.354 101.471L229.354 96.4709C229.886 93.8109 228.941 91.071 226.881 89.3056L219.881 83.3056C219.561 83.0317 219.22 82.7853 218.859 82.5688L215.731 80.6925L215.708 80.6459C215.125 79.4785 214.246 78.4836 213.16 77.7596L207.16 73.7596C206.345 73.2162 205.431 72.8378 204.471 72.6456L199.471 71.6456Z" fill="#F0CC1B" stroke="white" stroke-width="15" stroke-linecap="round" stroke-linejoin="round"/>
<defs>
<filter id="filter0_d_125_21" x="-0.00012207" y="0" width="491" height="362" filterUnits="userSpaceOnUse" color-interpolation-filters="sRGB">
<feFlood flood-opacity="0" result="BackgroundImageFix"/>
<feColorMatrix in="SourceAlpha" type="matrix" values="0 0 0 0 0 0 0 0 0 0 0 0 0 0 0 0 0 0 127 0" result="hardAlpha"/>
<feOffset dy="4"/>
<feGaussianBlur stdDeviation="2"/>
<feComposite in2="hardAlpha" operator="out"/>
<feColorMatrix type="matrix" values="0 0 0 0 0 0 0 0 0 0 0 0 0 0 0 0 0 0 0.25 0"/>
<feBlend mode="normal" in2="BackgroundImageFix" result="effect1_dropShadow_125_21"/>
<feBlend mode="normal" in="SourceGraphic" in2="effect1_dropShadow_125_21" result="shape"/>
</filter>
</defs>
</svg>
