<svg width="1170" height="1512" viewBox="0 0 1170 1512" fill="none" xmlns="http://www.w3.org/2000/svg">
<path d="M921.888 212.389C679.788 273.489 453.788 386.989 241.688 518.589C206.788 540.289 170.988 563.589 149.388 598.489C127.688 633.389 124.388 683.189 152.788 712.889C191.588 753.389 269.288 740.689 299.688 787.789C316.188 813.289 311.088 848.089 295.588 874.189C280.088 900.289 255.888 919.889 232.788 939.589C188.188 977.689 145.388 1019.19 116.288 1070.09C95.3879 1106.49 82.4879 1153.09 103.488 1189.39C115.588 1210.29 137.088 1224.19 159.488 1233.29C239.588 1265.59 330.288 1244.29 413.188 1220.09C526.488 1186.99 638.488 1149.29 748.688 1107.09C856.088 1065.99 963.888 1019.29 1050.69 943.789C1084.69 914.189 1117.09 875.489 1115.89 830.389C1114.59 782.189 1074.09 742.789 1029.49 724.689C984.888 706.589 935.588 704.589 887.988 697.189C862.688 693.289 836.988 687.489 815.388 673.689C793.788 659.889 776.688 636.689 776.488 610.989C776.088 568.689 817.588 539.689 854.288 518.689C877.888 505.089 901.588 491.589 925.188 477.989C955.988 460.289 987.088 442.389 1012.39 417.589C1037.69 392.789 1057.09 359.889 1058.19 324.389C1060.19 260.089 984.388 197.089 921.888 212.389Z" fill="#0E1D33"/>
<path d="M763.088 327.889C760.288 323.289 756.188 319.589 752.088 316.189C735.988 302.889 717.688 292.189 698.188 284.589C680.288 291.589 662.488 298.789 644.688 306.289C652.688 308.789 661.088 310.289 669.188 312.389C682.788 315.789 697.088 321.389 704.488 333.389C711.888 345.289 707.888 364.689 694.288 368.089C680.788 371.489 669.288 358.789 659.388 348.989C645.988 335.789 629.088 326.189 611.088 320.889C578.988 335.089 547.088 349.989 515.588 365.489C519.588 367.989 524.088 369.589 528.688 370.189C541.588 371.789 554.288 367.389 566.888 364.689C588.888 359.989 612.888 360.489 632.688 371.289C641.888 376.289 650.488 384.589 651.388 394.989C652.988 412.389 633.588 425.089 631.388 442.389C630.888 446.689 631.788 451.589 635.388 453.889C637.288 455.089 639.688 455.389 641.888 455.389C663.088 456.089 682.588 444.689 700.488 433.289C716.488 423.189 732.588 412.589 745.388 398.689C758.188 384.689 767.588 366.789 767.788 347.789C767.788 340.789 766.588 333.689 763.088 327.889Z" fill="#102847"/>
<path d="M872.088 503.889C874.088 504.189 876.088 504.489 878.088 504.889C893.788 495.889 909.388 486.889 925.088 477.989C955.888 460.289 986.988 442.389 1012.29 417.589C1015.79 414.089 1019.29 410.489 1022.49 406.689C1007.19 401.789 988.888 402.189 973.388 406.589C943.788 414.989 916.388 432.689 885.588 433.489C876.088 433.689 865.688 431.689 859.788 424.289C850.288 412.189 858.588 394.189 869.688 383.589C915.888 338.889 1001.09 347.089 1036.69 293.589C1040.59 287.689 1043.49 280.489 1044.19 273.389C1038.89 264.189 1032.19 255.589 1024.49 247.889C1021.49 247.289 1018.49 246.889 1015.49 246.689C1000.09 245.689 984.588 247.389 969.788 251.789C954.288 256.389 939.388 263.889 923.288 265.189C899.588 267.089 877.288 255.489 855.288 246.589C847.288 243.389 838.988 240.389 830.688 237.889C792.588 249.689 754.888 262.789 717.588 276.889C718.588 276.889 719.588 276.989 720.588 276.989C741.388 278.089 762.388 281.289 780.988 290.489C799.588 299.689 815.688 315.589 821.288 335.689C827.688 358.589 819.488 383.689 804.688 402.289C789.888 420.889 769.288 433.889 748.188 444.889C692.888 473.789 632.288 491.289 575.988 518.489C567.188 522.789 556.988 530.389 559.688 539.789C562.388 549.089 574.888 550.389 584.488 549.289C681.688 539.189 775.588 489.489 872.088 503.889Z" fill="#102847"/>
<path d="M858.688 770.589C907.988 766.989 958.188 749.289 991.388 712.789C957.588 704.989 922.288 702.389 887.788 697.089C862.488 693.189 836.788 687.389 815.188 673.589C793.588 659.789 776.488 636.589 776.288 610.889C776.088 592.989 783.388 577.589 794.688 563.989C751.888 566.089 708.988 572.889 667.188 582.089C576.288 601.989 487.688 632.289 395.788 646.389C382.088 648.489 367.888 650.189 354.688 645.989C341.488 641.789 329.688 630.089 329.788 616.289C329.888 601.289 342.988 589.989 355.288 581.489C425.388 532.689 506.788 503.289 582.688 463.989C588.588 460.989 594.888 457.289 597.088 451.089C600.388 441.689 592.488 432.089 584.088 426.789C556.788 409.789 521.688 414.889 490.188 421.289C443.288 430.689 396.688 441.489 350.388 453.489C313.788 474.489 277.488 496.189 241.688 518.489C206.788 540.189 170.988 563.489 149.388 598.389C127.788 633.289 124.388 683.089 152.788 712.789C191.588 753.289 269.288 740.589 299.688 787.689C316.188 813.189 311.088 847.989 295.588 874.089C280.088 900.189 255.888 919.789 232.788 939.489C188.188 977.589 145.388 1019.09 116.288 1069.99C111.588 1078.19 107.288 1086.89 103.688 1095.89C179.188 1096.09 254.988 1058.19 297.288 995.189C313.688 970.789 325.988 942.389 349.488 924.589C395.088 890.089 463.688 908.489 513.088 879.689C520.088 875.589 526.988 870.089 529.688 862.389C532.888 853.389 529.588 843.289 524.488 835.089C503.688 801.789 458.188 793.689 419.188 798.289C410.488 799.289 401.488 800.789 393.188 797.989C384.888 795.189 377.788 786.489 380.288 778.089C381.088 775.189 382.988 772.789 384.888 770.489C408.688 741.389 446.688 726.989 484.188 723.889C521.588 720.789 559.088 727.689 595.988 734.589C633.988 741.689 672.088 748.789 710.088 755.889C758.988 765.089 808.888 774.289 858.688 770.589Z" fill="#102847"/>
<path d="M1029.39 724.589C984.688 706.489 935.488 704.489 887.888 697.089C887.788 697.089 887.688 697.089 887.588 696.989C857.888 722.489 821.488 741.689 783.688 735.489C748.388 729.589 720.788 702.989 689.788 684.989C634.388 652.889 555.688 652.189 513.088 699.989C486.088 730.189 478.688 772.389 466.088 810.889C440.088 890.189 386.388 961.689 312.888 1000.99C261.788 1028.29 201.088 1038.49 144.288 1028.59C133.988 1041.69 124.588 1055.49 116.288 1069.99C95.3879 1106.39 82.4879 1152.99 103.488 1189.29C115.588 1210.19 137.088 1224.09 159.488 1233.19C239.588 1265.49 330.288 1244.19 413.188 1219.99C526.488 1186.89 638.488 1149.19 748.688 1106.99C856.088 1065.89 963.888 1019.19 1050.69 943.689C1084.69 914.089 1117.09 875.389 1115.89 830.289C1114.49 782.189 1074.09 742.689 1029.39 724.589Z" fill="#0D6373"/>
<path d="M1115.79 830.389C1114.49 782.189 1073.99 742.789 1029.39 724.689C1026.19 723.389 1022.89 722.189 1019.69 720.989C981.288 750.089 951.788 790.789 909.888 814.589C810.488 870.989 679.488 815.089 573.588 857.989C484.688 893.989 432.588 991.989 343.588 1027.79C288.588 1049.89 226.988 1045.19 167.988 1051.99C152.588 1053.79 136.788 1056.79 121.488 1061.19C119.688 1064.09 117.988 1066.99 116.288 1069.99C95.3879 1106.39 82.4879 1152.99 103.488 1189.29C115.588 1210.19 137.088 1224.09 159.488 1233.19C239.588 1265.49 330.288 1244.19 413.188 1219.99C526.488 1186.89 638.488 1149.19 748.688 1106.99C856.088 1065.89 963.888 1019.19 1050.69 943.689C1084.59 914.189 1116.99 875.389 1115.79 830.389Z" fill="#0A878F"/>
<path d="M413.088 1219.99C526.388 1186.89 638.388 1149.19 748.588 1106.99C855.988 1065.89 963.788 1019.19 1050.59 943.689C1083.39 915.089 1114.69 878.089 1115.79 834.989C1018.29 887.089 905.988 911.189 795.588 903.589C739.188 899.689 681.988 887.789 626.688 899.789C561.588 913.989 508.088 959.589 461.988 1007.69C415.888 1055.79 373.288 1108.69 317.188 1144.59C254.488 1184.79 176.688 1200.09 103.088 1188.99C103.188 1189.09 103.188 1189.19 103.288 1189.29C115.388 1210.19 136.888 1224.09 159.288 1233.19C239.488 1265.59 330.188 1244.19 413.088 1219.99ZM256.788 1294.49C202.488 1280.79 140.988 1297.89 93.688 1327.89C73.088 1340.99 51.988 1360.39 53.188 1384.79C54.488 1410.99 80.988 1428.49 106.088 1435.89C157.388 1450.89 215.388 1440.69 258.488 1409.09C276.088 1396.19 291.688 1379.09 297.888 1358.19C302.088 1343.89 303.588 1326.29 294.088 1314.69C286.588 1305.39 274.488 1297.09 256.788 1294.49Z" fill="#05B8AD"/>
<path d="M884.988 73.489C830.688 59.789 769.188 76.889 721.888 106.889C701.288 119.989 680.188 139.389 681.388 163.789C682.688 189.989 709.188 207.489 734.288 214.889C785.588 229.889 843.588 219.689 886.688 188.089C904.288 175.189 919.888 158.089 926.088 137.189C930.288 122.889 931.788 105.289 922.288 93.689C914.788 84.489 902.688 76.189 884.988 73.489Z" fill="#0E1D33"/>
<path d="M927.288 132.789C897.988 127.189 867.588 142.189 837.588 139.289C834.588 138.989 831.288 138.389 829.388 136.089C827.488 133.689 827.588 130.289 828.188 127.189C832.188 108.089 851.388 96.6889 862.188 80.4889C864.288 77.2889 866.088 73.889 866.988 70.189C817.388 63.789 763.988 80.1889 721.888 106.989C701.288 120.089 680.188 139.489 681.388 163.889C681.588 167.889 682.388 171.689 683.688 175.289C685.888 174.689 688.088 173.989 690.088 173.289C718.288 163.889 748.888 161.989 778.088 167.789C780.888 168.389 784.188 169.389 784.988 172.089C785.588 173.889 784.888 175.789 783.988 177.489C776.988 190.789 760.888 195.789 747.288 202.289C740.888 205.389 734.788 208.989 728.988 213.189C730.688 213.789 732.488 214.389 734.188 214.889C785.488 229.889 843.488 219.689 886.588 188.089C904.188 175.189 919.788 158.089 925.988 137.189C926.588 135.689 926.988 134.189 927.288 132.789Z" fill="#102847"/>
<path d="M748.588 1106.99C767.588 1099.69 786.488 1092.29 805.388 1084.59C805.388 1079.09 805.088 1073.49 804.488 1067.69L624.488 1017.09L555.488 1053.69L487.888 1197.39C575.688 1170.09 662.688 1139.89 748.588 1106.99Z" fill="#511C55"/>
<path d="M748.588 1106.99C767.588 1099.69 786.488 1092.29 805.388 1084.59C805.388 1079.09 805.088 1073.49 804.488 1067.69L780.588 1060.99L764.788 1068.49L733.388 1112.89C738.388 1110.89 743.488 1108.99 748.588 1106.99Z" fill="#3B0A3B"/>
<path d="M441.188 916.389C468.488 916.189 492.388 905.189 512.588 889.589L466.488 857.689C466.488 857.689 444.288 857.289 441.488 853.289C438.688 849.289 393.488 822.389 377.788 820.989C377.788 820.989 338.288 818.289 338.488 843.989C338.488 843.989 336.088 852.589 339.488 864.389C370.688 926.789 441.188 916.389 441.188 916.389Z" fill="#21497F"/>
<path d="M453.288 793.189C453.388 791.389 452.588 789.689 451.888 787.989C451.188 786.289 450.588 784.489 450.888 782.789C451.188 780.989 452.788 779.289 454.588 779.589C455.288 779.689 456.088 780.089 456.788 779.889C457.788 779.589 458.088 778.389 458.288 777.289C458.788 774.689 459.888 772.189 461.488 769.989C462.188 768.989 463.088 768.089 464.288 767.689C465.488 767.289 466.988 767.689 467.488 768.789C467.788 769.389 467.788 770.089 468.088 770.689C469.188 772.389 472.188 770.789 473.688 772.089C474.888 773.189 474.288 775.289 475.388 776.489C476.388 777.589 478.388 777.089 479.388 778.189C480.388 779.189 479.988 781.089 480.788 782.289C481.088 782.789 481.588 783.189 481.988 783.689C482.588 784.789 482.188 786.189 481.388 787.089C480.588 787.989 479.488 788.689 478.488 789.389C474.588 792.089 471.888 796.489 467.588 798.389C463.088 800.289 457.288 798.789 454.388 794.789" fill="#F6AE7F"/>
<path d="M534.688 528.189C534.688 528.189 490.288 646.289 539.088 706.989C573.988 750.389 542.388 856.389 543.288 869.189C544.188 881.989 605.688 913.989 637.688 891.189C669.688 868.389 732.488 818.589 732.488 818.589L660.288 573.389L534.688 528.189Z" fill="#3B0A3B"/>
<path d="M372.288 795.689L382.788 787.689L382.588 780.089C387.088 768.089 383.788 767.489 383.788 767.489C377.088 767.689 369.788 760.289 369.788 760.289C357.888 709.889 319.088 718.889 319.088 718.889C241.288 745.989 287.488 815.989 287.488 815.989C303.488 826.189 346.288 829.789 346.288 829.789C380.888 828.089 383.088 805.589 383.088 805.589L382.888 795.689H372.288Z" fill="#F6AE7F"/>
<path d="M346.388 829.789C364.888 828.889 374.188 821.989 378.788 815.789C371.888 818.589 361.288 819.789 349.688 810.689C349.688 810.689 347.888 813.489 339.088 812.889L333.488 828.289C341.088 829.289 346.388 829.789 346.388 829.789ZM618.888 687.689C618.888 687.689 639.988 706.989 636.788 751.889L698.188 742.289C698.188 742.289 686.288 654.089 655.988 637.489L618.888 687.689Z" fill="#E36655"/>
<path d="M555.488 1053.69C555.488 1053.69 629.488 901.689 626.488 795.689C626.488 795.689 639.888 709.089 728.988 727.389C739.088 729.489 747.288 736.689 750.488 746.389C765.088 790.289 806.088 926.289 804.388 1067.69C804.488 1067.69 726.488 1129.69 555.488 1053.69Z" fill="#FFD05C"/>
<path d="M732.688 774.689L621.188 857.989C611.188 914.989 589.488 974.189 573.688 1012.39C746.388 956.789 732.688 774.689 732.688 774.689Z" fill="#E7A02C"/>
<path d="M562.488 526.889C562.488 526.889 516.488 554.489 547.888 631.489C547.888 631.489 546.988 648.389 540.188 654.889C540.188 654.889 537.388 658.989 552.188 669.889L556.688 676.989L580.488 670.189L567.788 694.389L573.388 703.189C573.388 703.189 594.788 729.889 630.488 697.089C630.488 697.089 669.688 649.289 676.788 619.889C676.788 619.789 662.588 483.089 562.488 526.889Z" fill="#F6AE7F"/>
<path d="M549.488 605.189C549.488 605.189 552.888 592.889 569.788 592.989C571.788 592.989 572.588 595.489 571.088 596.689C569.788 597.689 567.988 598.589 565.488 599.089C558.988 600.189 557.788 598.489 549.488 605.189Z" fill="#3B0A3B"/>
<path d="M566.996 627.259C568.835 626.502 569.099 622.908 567.586 619.231C566.073 615.553 563.356 613.185 561.518 613.942C559.679 614.698 559.415 618.293 560.928 621.97C562.441 625.647 565.158 628.015 566.996 627.259Z" fill="#3B0A3B"/>
<path d="M365.574 768.809C366.8 768.305 366.976 765.909 365.967 763.457C364.959 761.005 363.148 759.427 361.922 759.931C360.696 760.435 360.52 762.832 361.528 765.283C362.537 767.735 364.348 769.313 365.574 768.809Z" fill="#3B0A3B"/>
<path d="M585.683 640.464C592.629 637.606 597.715 633.965 597.043 632.33C596.371 630.696 590.195 631.687 583.248 634.545C576.302 637.403 571.216 641.044 571.888 642.679C572.561 644.313 578.737 643.322 585.683 640.464Z" fill="#E36655"/>
<path d="M360.201 780.936C363.108 779.023 365.094 776.911 364.639 776.219C364.184 775.527 361.458 776.517 358.552 778.43C355.646 780.343 353.659 782.455 354.114 783.147C354.57 783.839 357.295 782.849 360.201 780.936Z" fill="#E36655"/>
<path d="M730.788 764.289C725.988 738.889 702.588 721.389 676.788 723.389C649.988 725.489 609.388 737.689 587.788 788.689C587.788 788.689 534.488 915.689 441.088 916.389C441.088 916.389 369.088 927.089 338.388 862.389C338.388 862.389 342.388 1039.69 557.688 991.689C557.688 991.689 686.988 966.389 726.988 829.689C727.188 829.689 736.588 794.789 730.788 764.289Z" fill="#FFD05C"/>
<path d="M338.488 862.389C338.488 862.389 338.988 885.089 349.488 911.989C352.688 904.789 356.788 898.189 360.888 892.789C352.388 885.089 344.588 875.289 338.488 862.389Z" fill="#F6AE7F"/>
<path d="M351.788 754.889C351.788 754.889 343.388 760.789 346.488 768.189C346.488 768.189 349.888 769.489 349.888 766.889C349.788 766.789 346.788 761.189 351.788 754.889Z" fill="#511C55"/>
<path d="M638.788 637.489C638.788 637.489 651.288 635.789 660.988 625.089L653.288 605.189L638.788 637.489Z" fill="#E36655"/>
<path d="M617.388 605.589C617.388 605.589 531.888 608.189 532.688 538.889C532.788 530.589 536.288 522.589 542.388 516.889C561.488 499.189 611.288 463.989 680.088 495.889C680.088 495.889 711.888 506.989 734.788 592.289C734.788 592.289 742.988 634.189 797.788 660.989C797.788 660.989 936.888 719.589 886.388 832.489C886.388 832.489 814.088 963.789 703.188 888.389C703.188 888.389 658.888 855.589 660.588 737.389C660.588 737.389 671.188 655.989 658.988 637.289C658.788 637.289 643.088 601.789 617.388 605.589Z" fill="#511C55"/>
<path d="M614.288 611.889C614.288 611.889 615.488 581.689 644.288 598.289C644.288 598.289 661.188 615.489 638.788 637.489L614.288 611.889Z" fill="#F6AE7F"/>
<path d="M355.688 832.189C362.388 825.289 373.788 818.589 392.488 820.989C392.488 820.989 417.488 822.289 420.888 820.489C420.888 820.489 447.188 802.989 452.188 790.689C452.188 790.689 466.488 792.389 469.188 799.389C469.188 799.389 437.888 839.089 435.888 840.689C433.888 842.289 410.288 879.589 376.588 874.989C376.588 874.989 365.888 874.089 357.388 867.289C346.488 858.589 345.988 842.289 355.688 832.189Z" fill="#305DA8"/>
<path d="M332.188 759.889C322.988 764.289 337.188 779.789 341.788 788.989C336.788 787.389 331.288 787.389 326.388 789.089C323.288 790.189 320.288 791.989 318.688 794.889C316.088 799.789 318.688 806.189 323.188 809.389C327.688 812.589 333.488 813.189 338.988 812.989C340.088 812.989 341.288 812.889 342.288 813.389C343.288 813.889 343.888 814.789 344.388 815.789C346.188 818.989 346.988 822.689 347.888 826.289C348.388 828.589 348.788 831.389 347.088 832.989C346.088 833.889 344.688 834.189 343.388 834.389C338.988 835.089 334.588 835.589 330.188 835.889C330.188 835.889 287.088 839.989 271.388 793.489C271.388 793.489 260.388 793.489 268.988 784.589C268.988 784.589 259.188 772.089 267.788 772.089C267.788 772.089 266.288 714.289 335.388 713.989C335.388 713.989 347.888 709.589 344.288 702.089C344.388 701.989 385.288 734.389 332.188 759.889Z" fill="#511C55"/>
<path d="M347.888 826.089C347.088 822.489 346.188 818.889 344.388 815.589C343.888 814.689 343.188 813.689 342.288 813.189C341.288 812.689 340.088 812.789 338.988 812.789C333.488 812.989 327.688 812.389 323.188 809.189C321.788 808.189 320.588 806.889 319.588 805.389C302.188 809.189 285.488 804.789 274.088 800.189C291.488 839.289 330.188 835.589 330.188 835.589C334.588 835.289 338.988 834.789 343.388 834.089C344.688 833.889 346.188 833.589 347.088 832.689C348.788 831.189 348.388 828.389 347.888 826.089Z" fill="#3B0A3B"/>
<path d="M416.188 722.689C418.688 718.089 418.088 712.289 415.988 707.389C413.888 702.489 410.688 698.289 407.788 693.889C402.888 686.289 399.088 677.889 396.688 669.089C395.288 663.889 394.388 658.389 396.088 653.289C398.388 646.589 405.088 641.989 412.088 641.089C419.088 640.189 426.288 642.489 432.288 646.289C437.688 640.089 445.988 634.789 453.888 637.289C458.888 638.789 462.488 643.189 464.788 647.889C471.988 662.889 466.988 681.489 456.588 694.589C446.188 707.589 431.488 716.289 416.888 724.389" fill="#BC3143"/>
<path d="M493.988 901.889C495.488 889.889 490.888 878.389 488.288 872.989C493.388 881.789 501.588 890.089 506.188 894.389C518.288 885.989 529.188 875.889 538.688 865.289C533.588 852.189 521.188 867.089 521.188 867.089C519.488 871.789 516.488 869.389 516.488 869.389C509.188 856.389 482.788 841.389 482.788 841.389C461.488 831.089 444.488 871.089 444.488 871.089C439.588 876.289 441.888 907.989 442.688 916.389C461.388 915.889 478.588 910.389 493.988 901.889Z" fill="#305DA8"/>
<path d="M717.688 543.989C717.188 542.789 716.588 541.689 716.088 540.589C621.188 554.989 559.088 541.289 533.188 533.289C532.788 535.189 532.588 537.089 532.588 538.989C532.488 544.489 532.988 549.489 533.888 554.089C601.388 572.989 679.488 555.289 717.688 543.989ZM328.688 714.089C324.888 714.289 321.188 714.789 317.888 715.389C316.388 739.589 311.988 781.189 299.088 793.689C299.088 793.689 322.588 778.989 328.688 714.089Z" fill="#602466"/>
<path d="M562.774 620.074C563.189 619.922 563.202 618.916 562.804 617.827C562.406 616.738 561.747 615.978 561.332 616.129C560.917 616.281 560.903 617.287 561.301 618.376C561.7 619.466 562.359 620.226 562.774 620.074Z" fill="#602466"/>
<path d="M364.588 763.073C364.822 762.925 364.651 762.238 364.207 761.538C363.763 760.839 363.215 760.392 362.981 760.54C362.748 760.688 362.919 761.375 363.363 762.074C363.807 762.774 364.355 763.221 364.588 763.073Z" fill="#602466"/>
</svg>
