<svg width="567" height="361" viewBox="0 0 567 361" fill="none" xmlns="http://www.w3.org/2000/svg">
<path d="M200.012 353.072C297.511 353.072 376.548 274.034 376.548 176.536C376.548 79.0378 297.511 0 200.012 0C102.514 0 23.4767 79.0378 23.4767 176.536C23.4767 274.034 102.514 353.072 200.012 353.072Z" fill="#D9EBFF"/>
<path d="M245.604 300.826H206.075V340.354H245.604V300.826Z" fill="#A9C0FF"/>
<path d="M476.87 173.239C521.642 173.239 557.938 136.943 557.938 92.1706C557.938 47.3978 521.642 11.1023 476.87 11.1023C432.097 11.1023 395.801 47.3978 395.801 92.1706C395.801 136.943 432.097 173.239 476.87 173.239Z" fill="#D9EBFF"/>
<g opacity="0.28">
<path d="M524.437 119.054H483.225C481.811 119.054 480.665 120.2 480.665 121.614V184.665C480.665 186.078 481.811 187.225 483.225 187.225H524.437C525.851 187.225 526.997 186.078 526.997 184.665V121.614C526.997 120.2 525.851 119.054 524.437 119.054Z" fill="#6299E8"/>
</g>
<g opacity="0.19">
<path d="M495.674 295.669L489.456 328.969C488.161 335.893 484.869 342.288 479.987 347.367C475.105 352.445 468.844 355.985 461.976 357.551C459.344 358.156 456.651 358.459 453.95 358.455C452.286 358.454 450.624 358.341 448.975 358.115C447.723 357.943 446.481 357.701 445.256 357.387C442.604 356.735 440.037 355.778 437.605 354.536C432.662 352.032 428.363 348.423 425.04 343.989C421.717 339.555 419.461 334.416 418.445 328.969L412.226 295.669L495.674 295.669Z" fill="#AAAAAA"/>
</g>
<path d="M523.94 334.726H474.519C471.491 334.723 468.589 333.519 466.449 331.378C464.308 329.238 463.104 326.336 463.101 323.309V315.705C463.104 312.678 464.308 309.776 466.449 307.636C468.589 305.495 471.491 304.291 474.519 304.288H523.94C526.967 304.291 529.869 305.495 532.01 307.636C534.15 309.776 535.354 312.678 535.358 315.705V323.309C535.354 326.336 534.15 329.238 532.01 331.378C529.869 333.519 526.967 334.723 523.94 334.726ZM474.519 306.848C472.17 306.851 469.919 307.785 468.258 309.445C466.598 311.106 465.664 313.357 465.661 315.705V323.309C465.664 325.657 466.598 327.909 468.258 329.569C469.919 331.23 472.17 332.164 474.519 332.166H523.94C526.289 332.164 528.54 331.23 530.2 329.569C531.861 327.909 532.795 325.657 532.798 323.309V315.705C532.795 313.357 531.861 311.106 530.2 309.445C528.54 307.785 526.289 306.851 523.94 306.848H474.519Z" fill="#4D76B8"/>
<path d="M512.019 290.924L505.8 324.224C504.505 331.148 501.214 337.543 496.332 342.622C491.449 347.7 485.189 351.24 478.321 352.807C475.688 353.411 472.996 353.715 470.295 353.71C468.631 353.709 466.968 353.596 465.32 353.37C464.067 353.199 462.825 352.956 461.6 352.642C458.949 351.99 456.382 351.033 453.95 349.791C449.007 347.287 444.708 343.678 441.385 339.244C438.062 334.81 435.805 329.671 434.789 324.224L428.57 290.924L512.019 290.924Z" fill="#D9EBFF"/>
<path d="M444.382 342.739C447.747 346.21 451.774 348.969 456.225 350.853C460.677 352.738 465.461 353.708 470.295 353.708C475.128 353.708 479.913 352.738 484.364 350.853C488.815 348.969 492.842 346.21 496.207 342.739H444.382Z" fill="#4D76B8"/>
<path d="M429.571 296.275H511.019L512.019 290.925H428.571L429.571 296.275Z" fill="#4D76B8"/>
<g opacity="0.5">
<path d="M473.181 290.924C474.352 312.13 470.379 333.304 461.6 352.643C460.271 352.316 458.961 351.912 457.678 351.432C456.405 350.956 455.161 350.408 453.95 349.791C463.65 331.79 467.513 311.218 465.003 290.924L473.181 290.924Z" fill="white"/>
</g>
<g opacity="0.5">
<path d="M489.937 290.924C490.367 312.132 486.413 333.199 478.321 352.807C475.687 353.406 472.995 353.709 470.294 353.71C468.63 353.709 466.968 353.596 465.32 353.37C473.52 333.594 477.508 312.327 477.03 290.924H489.937Z" fill="white"/>
</g>
<path d="M61.0898 236.755H25.5952V238.462H61.0898V236.755Z" fill="#A9C0FF"/>
<path d="M59.799 226.286H24.3044V227.992H59.799V226.286Z" fill="#A9C0FF"/>
<path d="M62.3173 248.132H26.8227V249.839H62.3173V248.132Z" fill="#A9C0FF"/>
<path d="M318.839 57.4933H283.344V59.2H318.839V57.4933Z" fill="#A9C0FF"/>
<path d="M317.548 47.0242H282.054V48.7308H317.548V47.0242Z" fill="#A9C0FF"/>
<path d="M320.066 68.8704H284.572V70.5771H320.066V68.8704Z" fill="#A9C0FF"/>
<path d="M451.385 227.669C451.515 228.71 451.409 229.767 451.073 230.76C450.684 231.745 450.151 232.665 449.49 233.492C448.885 234.229 448.392 235.05 448.026 235.931C447.423 237.624 447.507 239.486 448.262 241.116C448.699 241.924 449.249 242.665 449.896 243.318C450.673 244.127 451.321 245.051 451.817 246.058C452.299 247.136 452.548 248.305 452.547 249.486C452.547 250.667 452.297 251.835 451.814 252.914C451.317 253.919 450.669 254.843 449.894 255.653C449.248 256.306 448.699 257.047 448.263 257.854C447.894 258.653 447.683 259.515 447.64 260.394C447.594 261.292 447.727 262.191 448.031 263.038C448.396 263.919 448.889 264.741 449.494 265.477C450.154 266.304 450.687 267.226 451.075 268.21C451.41 269.204 451.516 270.262 451.385 271.302C451.271 270.311 450.967 269.352 450.488 268.476C449.973 267.642 449.346 266.882 448.625 266.219C447.839 265.473 447.171 264.613 446.642 263.668C446.139 262.647 445.86 261.531 445.824 260.394C445.766 259.238 445.965 258.084 446.405 257.014C446.872 256.002 447.483 255.062 448.218 254.224C448.829 253.549 449.342 252.792 449.744 251.975C450.38 250.375 450.381 248.594 449.748 246.994C449.346 246.177 448.834 245.42 448.225 244.743C447.49 243.906 446.879 242.967 446.411 241.956C445.969 240.887 445.77 239.733 445.828 238.577C445.862 237.441 446.141 236.325 446.644 235.305C447.172 234.359 447.84 233.499 448.626 232.754C449.347 232.09 449.974 231.33 450.489 230.496C450.968 229.62 451.272 228.66 451.385 227.669Z" fill="#D9EBFF"/>
<path d="M475.708 208.568C475.838 209.609 475.731 210.665 475.396 211.659C475.007 212.644 474.473 213.564 473.813 214.391C473.208 215.127 472.715 215.949 472.349 216.83C471.745 218.522 471.83 220.384 472.585 222.015C473.022 222.823 473.572 223.564 474.218 224.216C474.996 225.026 475.644 225.95 476.14 226.957C476.621 228.035 476.87 229.203 476.87 230.385C476.869 231.566 476.62 232.734 476.137 233.813C475.639 234.818 474.992 235.741 474.217 236.552C473.571 237.205 473.022 237.946 472.585 238.753C471.833 240.384 471.75 242.245 472.354 243.937C472.719 244.818 473.211 245.639 473.816 246.376C474.476 247.203 475.01 248.125 475.398 249.109C475.733 250.103 475.839 251.161 475.708 252.201C475.594 251.21 475.289 250.25 474.81 249.375C474.295 248.541 473.669 247.781 472.947 247.118C472.162 246.372 471.493 245.512 470.964 244.566C470.462 243.546 470.183 242.43 470.147 241.293C470.089 240.137 470.287 238.983 470.728 237.913C471.195 236.901 471.805 235.961 472.54 235.123C473.151 234.448 473.665 233.69 474.067 232.873C474.702 231.274 474.704 229.493 474.071 227.892C473.669 227.076 473.156 226.318 472.547 225.642C471.812 224.805 471.201 223.866 470.733 222.855C470.292 221.786 470.093 220.632 470.15 219.476C470.185 218.34 470.463 217.224 470.967 216.204C471.494 215.258 472.163 214.398 472.948 213.653C473.67 212.989 474.297 212.229 474.811 211.395C475.29 210.519 475.594 209.559 475.708 208.568Z" fill="#D9EBFF"/>
<path d="M494.508 233.813C494.651 234.955 494.534 236.115 494.166 237.205C493.739 238.285 493.154 239.295 492.429 240.202C491.765 241.011 491.224 241.913 490.823 242.879C490.16 244.737 490.253 246.78 491.082 248.57C491.561 249.456 492.165 250.27 492.874 250.985C493.727 251.874 494.438 252.888 494.983 253.992C495.512 255.176 495.784 256.458 495.784 257.755C495.783 259.051 495.509 260.333 494.98 261.516C494.433 262.619 493.723 263.633 492.872 264.523C492.164 265.238 491.561 266.052 491.082 266.938C490.257 268.728 490.165 270.77 490.827 272.627C491.228 273.593 491.769 274.495 492.433 275.303C493.157 276.211 493.742 277.222 494.168 278.303C494.536 279.394 494.652 280.554 494.508 281.696C494.383 280.608 494.049 279.555 493.524 278.594C492.959 277.679 492.271 276.845 491.479 276.117C490.617 275.298 489.884 274.355 489.303 273.317C488.751 272.198 488.445 270.973 488.406 269.725C488.342 268.457 488.56 267.19 489.044 266.016C489.557 264.905 490.226 263.874 491.032 262.954C491.703 262.213 492.267 261.382 492.708 260.485C493.405 258.73 493.407 256.776 492.712 255.019C492.272 254.123 491.709 253.292 491.041 252.55C490.234 251.631 489.563 250.601 489.05 249.491C488.565 248.318 488.347 247.052 488.41 245.783C488.448 244.536 488.754 243.311 489.306 242.192C489.885 241.155 490.618 240.211 491.481 239.393C492.272 238.664 492.96 237.83 493.525 236.915C494.051 235.954 494.384 234.901 494.508 233.813Z" fill="#D9EBFF"/>
<path d="M566.387 352.643H22.0287V360.323H566.387V352.643Z" fill="#456BA3"/>
<path d="M225.486 71.1796C242.334 71.1796 255.991 57.522 255.991 40.6746C255.991 23.8272 242.334 10.1697 225.486 10.1697C208.639 10.1697 194.981 23.8272 194.981 40.6746C194.981 57.522 208.639 71.1796 225.486 71.1796Z" fill="white"/>
<path d="M228.83 60.7123C228.83 62.7559 227.091 63.8257 225.371 63.8257C223.651 63.8257 221.912 62.7559 221.912 60.7123C221.912 60.6334 221.927 60.5554 221.957 60.4826C221.987 60.4097 222.032 60.3436 222.087 60.2878C222.143 60.2321 222.209 60.1879 222.282 60.1577C222.355 60.1275 222.433 60.112 222.512 60.112H228.23C228.309 60.112 228.387 60.1275 228.46 60.1577C228.533 60.1879 228.599 60.2321 228.655 60.2878C228.71 60.3436 228.755 60.4097 228.785 60.4826C228.815 60.5554 228.83 60.6334 228.83 60.7123Z" fill="#92B1EF"/>
<path d="M231.659 53.7122V57.967C231.658 58.8277 231.316 59.6531 230.707 60.2617C230.099 60.8703 229.273 61.2124 228.413 61.2128H222.33C221.469 61.2124 220.643 60.8703 220.035 60.2617C219.426 59.6531 219.084 58.8277 219.083 57.967V53.7122C219.083 53.6215 219.101 53.5317 219.136 53.448C219.171 53.3642 219.221 53.2881 219.286 53.2239C219.35 53.1598 219.426 53.109 219.51 53.0743C219.593 53.0396 219.683 53.0217 219.774 53.0217H230.968C231.059 53.0217 231.149 53.0396 231.233 53.0743C231.316 53.109 231.392 53.1598 231.457 53.2239C231.521 53.2881 231.572 53.3642 231.606 53.448C231.641 53.5317 231.659 53.6215 231.659 53.7122Z" fill="#4D76B8"/>
<path d="M237.782 38.5497C237.792 41.7929 236.523 44.9092 234.25 47.2226C233.506 48.3441 233.08 49.6458 233.016 50.9899C233.016 53.733 231.259 54.3436 231.184 54.3674C231.114 54.3907 231.042 54.4026 230.968 54.4026H219.958C219.86 54.4026 219.762 54.3815 219.673 54.3408C219.272 54.1567 217.966 53.3806 217.966 51.0136V50.8601C217.966 49.4792 217.966 48.8348 217.1 47.8091C215.555 46.4297 214.379 44.6855 213.68 42.7353C212.981 40.7851 212.781 38.691 213.099 36.6438C213.416 34.5966 214.241 32.6614 215.498 31.0145C216.754 29.3676 218.403 28.0614 220.294 27.2149C222.185 26.3683 224.257 26.0084 226.323 26.1679C228.388 26.3274 230.381 27.0012 232.12 28.1279C233.858 29.2546 235.287 30.7985 236.276 32.6188C237.265 34.4391 237.783 36.478 237.782 38.5497Z" fill="#92B1EF"/>
<path d="M245.566 39.1031H240.233C240.143 39.1031 240.053 39.0853 239.969 39.0506C239.885 39.0159 239.809 38.965 239.745 38.9009C239.681 38.8368 239.63 38.7607 239.595 38.6769C239.561 38.5931 239.543 38.5033 239.543 38.4127C239.543 38.322 239.561 38.2322 239.595 38.1485C239.63 38.0647 239.681 37.9886 239.745 37.9245C239.809 37.8604 239.885 37.8095 239.969 37.7748C240.053 37.7401 240.143 37.7222 240.233 37.7222H245.566C245.749 37.7222 245.925 37.795 246.054 37.9245C246.184 38.054 246.257 38.2296 246.257 38.4127C246.257 38.5958 246.184 38.7714 246.054 38.9009C245.925 39.0304 245.749 39.1031 245.566 39.1031ZM235.496 28.3729C235.359 28.3727 235.226 28.3321 235.113 28.2562C234.999 28.1803 234.911 28.0725 234.859 27.9465C234.806 27.8204 234.793 27.6817 234.819 27.5479C234.846 27.414 234.911 27.2911 235.008 27.1945L238.847 23.3557C238.911 23.2913 238.987 23.2402 239.071 23.2053C239.155 23.1704 239.244 23.1524 239.335 23.1523C239.426 23.1522 239.516 23.17 239.6 23.2047C239.684 23.2394 239.76 23.2904 239.824 23.3546C239.889 23.4188 239.94 23.4951 239.974 23.579C240.009 23.6629 240.027 23.7529 240.027 23.8437C240.027 23.9345 240.009 24.0244 239.974 24.1083C239.939 24.1921 239.888 24.2683 239.823 24.3324L235.981 28.17C235.852 28.2991 235.678 28.3721 235.496 28.3729ZM210.739 39.1032H205.406C205.223 39.1032 205.047 39.0304 204.918 38.9009C204.788 38.7714 204.716 38.5958 204.716 38.4127C204.716 38.2296 204.788 38.054 204.918 37.9245C205.047 37.795 205.223 37.7223 205.406 37.7223H210.739C210.922 37.7223 211.098 37.795 211.227 37.9245C211.357 38.054 211.43 38.2296 211.43 38.4127C211.43 38.5958 211.357 38.7714 211.227 38.9009C211.098 39.0304 210.922 39.1032 210.739 39.1032ZM215.477 28.3729C215.386 28.3729 215.296 28.355 215.212 28.3201C215.129 28.2853 215.053 28.2343 214.989 28.17L211.15 24.3313C211.02 24.2017 210.948 24.0261 210.948 23.8429C210.948 23.6598 211.02 23.4841 211.15 23.3546C211.279 23.2251 211.455 23.1523 211.638 23.1523C211.821 23.1523 211.997 23.2251 212.126 23.3546L215.965 27.1934C216.062 27.2899 216.127 27.4128 216.154 27.5467C216.181 27.6806 216.167 27.8193 216.115 27.9454C216.063 28.0716 215.974 28.1794 215.861 28.2553C215.747 28.3312 215.614 28.3717 215.478 28.3718L215.477 28.3729Z" fill="#92B1EF"/>
<path d="M225.605 24.2374C225.422 24.2374 225.246 24.1646 225.117 24.0351C224.987 23.9057 224.914 23.7301 224.914 23.547V18.214C224.914 18.1231 224.932 18.0331 224.966 17.949C225.001 17.865 225.052 17.7886 225.116 17.7242C225.18 17.6598 225.256 17.6088 225.34 17.5739C225.424 17.5391 225.514 17.5211 225.605 17.5211C225.696 17.5211 225.786 17.5391 225.87 17.5739C225.954 17.6088 226.03 17.6598 226.094 17.7242C226.158 17.7886 226.209 17.865 226.243 17.949C226.278 18.0331 226.296 18.1231 226.295 18.214V23.547C226.295 23.6377 226.277 23.7274 226.243 23.8112C226.208 23.895 226.157 23.9711 226.093 24.0352C226.029 24.0993 225.953 24.1502 225.869 24.1849C225.785 24.2196 225.695 24.2374 225.605 24.2374Z" fill="#92B1EF"/>
<path d="M235.085 39.0524C235.025 39.0524 234.965 39.0405 234.909 39.0174C234.853 38.9942 234.802 38.9603 234.76 38.9176C234.717 38.8748 234.683 38.8241 234.66 38.7682C234.637 38.7124 234.625 38.6525 234.625 38.5921C234.622 36.1788 233.662 33.8652 231.955 32.1588C230.249 30.4523 227.935 29.4923 225.522 29.4894C225.4 29.4894 225.283 29.4409 225.197 29.3546C225.11 29.2682 225.062 29.1512 225.062 29.0291C225.062 28.907 225.11 28.7899 225.197 28.7036C225.283 28.6173 225.4 28.5688 225.522 28.5688C228.18 28.5717 230.727 29.6287 232.606 31.5078C234.486 33.3869 235.543 35.9346 235.545 38.5921C235.545 38.6525 235.534 38.7124 235.51 38.7682C235.487 38.8241 235.453 38.8748 235.411 38.9176C235.368 38.9603 235.317 38.9942 235.261 39.0174C235.205 39.0405 235.146 39.0524 235.085 39.0524Z" fill="#D9EBFF"/>
<path d="M225.486 72.4596C219.2 72.4596 213.054 70.5954 207.827 67.1028C202.6 63.6102 198.526 58.6461 196.121 52.8382C193.715 47.0302 193.085 40.6393 194.312 34.4737C195.538 28.308 198.566 22.6444 203.011 18.1992C207.456 13.754 213.119 10.7268 219.285 9.5004C225.451 8.27397 231.842 8.90343 237.65 11.3092C243.458 13.7149 248.422 17.7888 251.914 23.0158C255.407 28.2429 257.271 34.3882 257.271 40.6746C257.261 49.1016 253.91 57.1807 247.951 63.1394C241.992 69.0982 233.913 72.45 225.486 72.4596ZM225.486 11.4496C219.706 11.4496 214.056 13.1636 209.25 16.3749C204.444 19.5862 200.698 24.1505 198.486 29.4907C196.274 34.8308 195.695 40.707 196.823 46.3761C197.95 52.0452 200.734 57.2525 204.821 61.3397C208.908 65.4269 214.116 68.2103 219.785 69.338C225.454 70.4656 231.33 69.8869 236.67 67.6749C242.01 65.4629 246.574 61.7171 249.786 56.9111C252.997 52.105 254.711 46.4547 254.711 40.6745C254.702 32.9263 251.62 25.4979 246.142 20.0191C240.663 14.5403 233.234 11.4584 225.486 11.4496Z" fill="#4D76B8"/>
<path d="M206.075 337.794V303.386C206.075 302.707 205.806 302.056 205.326 301.575C204.845 301.095 204.194 300.826 203.515 300.826H196.347C195.668 300.826 195.017 301.095 194.537 301.575C194.057 302.056 193.787 302.707 193.787 303.386V350.083C193.787 350.761 194.057 351.413 194.537 351.893C195.017 352.373 195.668 352.643 196.347 352.643H243.044C243.723 352.643 244.374 352.373 244.855 351.893C245.335 351.413 245.604 350.761 245.604 350.083V342.915C245.604 342.236 245.335 341.584 244.855 341.104C244.374 340.624 243.723 340.355 243.044 340.355H208.635C208.299 340.355 207.966 340.288 207.656 340.16C207.345 340.031 207.063 339.842 206.825 339.605C206.587 339.367 206.399 339.085 206.27 338.774C206.142 338.464 206.075 338.131 206.075 337.794Z" fill="#6299E8"/>
<path d="M231.984 340.354V352.642H268.953C269.632 352.642 270.283 352.373 270.763 351.893C271.243 351.413 271.513 350.761 271.513 350.082V342.914C271.513 342.236 271.243 341.584 270.763 341.104C270.283 340.624 269.632 340.354 268.953 340.354H231.984Z" fill="#C2D5FF"/>
<path d="M318.794 136.249H101.706C98.8782 136.249 96.5859 138.541 96.5859 141.369V295.706C96.5859 298.533 98.8782 300.826 101.706 300.826H318.794C321.622 300.826 323.914 298.533 323.914 295.706V141.369C323.914 138.541 321.622 136.249 318.794 136.249Z" fill="#6299E8"/>
<path d="M318.794 302.106H101.706C100.009 302.104 98.3825 301.429 97.1827 300.229C95.9829 299.029 95.308 297.403 95.306 295.706V141.369C95.308 139.672 95.9829 138.046 97.1827 136.846C98.3825 135.646 100.009 134.971 101.706 134.969H318.794C320.491 134.971 322.118 135.646 323.317 136.846C324.517 138.046 325.192 139.672 325.194 141.369V295.706C325.192 297.403 324.517 299.029 323.317 300.229C322.118 301.429 320.491 302.104 318.794 302.106ZM101.706 137.529C100.688 137.53 99.7119 137.935 98.992 138.655C98.2721 139.375 97.8672 140.351 97.866 141.369V295.706C97.8672 296.724 98.2721 297.7 98.992 298.42C99.7119 299.14 100.688 299.545 101.706 299.546H318.794C319.812 299.545 320.788 299.14 321.508 298.42C322.228 297.7 322.633 296.724 322.634 295.706V141.369C322.633 140.351 322.228 139.375 321.508 138.655C320.788 137.935 319.812 137.53 318.794 137.529H101.706Z" fill="#4D76B8"/>
<path d="M333.051 136.249H115.963C113.136 136.249 110.843 138.541 110.843 141.369V295.706C110.843 298.533 113.136 300.826 115.963 300.826H333.051C335.879 300.826 338.171 298.533 338.171 295.706V141.369C338.171 138.541 335.879 136.249 333.051 136.249Z" fill="white"/>
<path d="M315.857 153.139H133.158C130.331 153.139 128.038 155.432 128.038 158.259V278.815C128.038 281.643 130.331 283.935 133.158 283.935H315.857C318.684 283.935 320.977 281.643 320.977 278.815V158.259C320.977 155.432 318.684 153.139 315.857 153.139Z" fill="#D9EBFF"/>
<path d="M333.051 302.106H115.964C114.267 302.104 112.64 301.429 111.44 300.229C110.24 299.029 109.565 297.403 109.564 295.706V141.369C109.565 139.672 110.24 138.046 111.44 136.846C112.64 135.646 114.267 134.971 115.964 134.969H333.051C334.748 134.971 336.375 135.646 337.575 136.846C338.775 138.046 339.45 139.672 339.451 141.369V295.706C339.45 297.403 338.775 299.029 337.575 300.229C336.375 301.429 334.748 302.104 333.051 302.106ZM115.964 137.529C114.945 137.53 113.969 137.935 113.249 138.655C112.53 139.375 112.125 140.351 112.124 141.369V295.706C112.125 296.724 112.53 297.7 113.249 298.42C113.969 299.14 114.945 299.545 115.964 299.546H333.051C334.07 299.545 335.046 299.14 335.766 298.42C336.485 297.7 336.89 296.724 336.891 295.706V141.369C336.89 140.351 336.485 139.375 335.766 138.655C335.046 137.935 334.07 137.53 333.051 137.529H115.964Z" fill="#4D76B8"/>
<path d="M315.857 153.139H133.158C131.8 153.139 130.498 153.679 129.538 154.639C128.578 155.599 128.038 156.902 128.038 158.259V172.358H320.977V158.259C320.977 156.902 320.437 155.599 319.477 154.639C318.517 153.679 317.214 153.139 315.857 153.139Z" fill="#A9C0FF"/>
<path d="M128.038 267.597V278.815C128.038 280.173 128.578 281.476 129.538 282.436C130.498 283.396 131.8 283.935 133.158 283.935H315.857C317.214 283.935 318.517 283.396 319.477 282.436C320.437 281.476 320.977 280.173 320.977 278.815V267.597H128.038Z" fill="#A9C0FF"/>
<path d="M209.83 183.522H142.246V185.229H209.83V183.522Z" fill="#456BA3"/>
<path d="M209.83 198.1H142.246V199.807H209.83V198.1Z" fill="#456BA3"/>
<path d="M307.042 212.677H142.246V214.384H307.042V212.677Z" fill="#456BA3"/>
<path d="M307.042 227.255H142.246V228.962H307.042V227.255Z" fill="#456BA3"/>
<path d="M307.042 241.833H142.246V243.539H307.042V241.833Z" fill="#456BA3"/>
<path d="M307.042 256.41H142.246V258.117H307.042V256.41Z" fill="#456BA3"/>
<g opacity="0.28">
<path d="M362.635 104.221H238.547C235.719 104.221 233.427 106.513 233.427 109.341V196.349C233.427 199.176 235.719 201.469 238.547 201.469H362.635C365.462 201.469 367.755 199.176 367.755 196.349V109.341C367.755 106.513 365.462 104.221 362.635 104.221Z" fill="#6299E8"/>
</g>
<path d="M375.537 91.5878H251.449C248.621 91.5878 246.329 93.8801 246.329 96.7078V183.716C246.329 186.544 248.621 188.836 251.449 188.836H375.537C378.365 188.836 380.657 186.544 380.657 183.716V96.7078C380.657 93.8801 378.365 91.5878 375.537 91.5878Z" fill="white"/>
<path d="M380.657 113.027H246.329V115.587H380.657V113.027Z" fill="#A9C0FF"/>
<path d="M375.537 190.116H251.449C249.752 190.114 248.125 189.439 246.926 188.239C245.726 187.039 245.051 185.413 245.049 183.716V96.7079C245.051 95.0111 245.726 93.3843 246.926 92.1845C248.125 90.9847 249.752 90.3098 251.449 90.3079H375.537C377.234 90.3098 378.86 90.9847 380.06 92.1845C381.26 93.3843 381.935 95.0111 381.937 96.7079V183.716C381.935 185.413 381.26 187.039 380.06 188.239C378.86 189.439 377.234 190.114 375.537 190.116ZM251.449 92.8679C250.431 92.869 249.455 93.274 248.735 93.9939C248.015 94.7138 247.61 95.6898 247.609 96.7079V183.716C247.61 184.734 248.015 185.71 248.735 186.43C249.455 187.15 250.431 187.555 251.449 187.556H375.537C376.555 187.555 377.531 187.15 378.251 186.43C378.971 185.71 379.376 184.734 379.377 183.716V96.7079C379.376 95.6898 378.971 94.7138 378.251 93.9939C377.531 93.274 376.555 92.869 375.537 92.8679H251.449Z" fill="#4D76B8"/>
<path d="M302.626 121.414H263.283C262.34 121.414 261.576 122.178 261.576 123.12V162.464C261.576 163.406 262.34 164.17 263.283 164.17H302.626C303.569 164.17 304.333 163.406 304.333 162.464V123.12C304.333 122.178 303.569 121.414 302.626 121.414Z" fill="#D9EBFF"/>
<path d="M360.324 121.414H312.128C311.185 121.414 310.421 122.178 310.421 123.12V131.033C310.421 131.975 311.185 132.739 312.128 132.739H360.324C361.267 132.739 362.031 131.975 362.031 131.033V123.12C362.031 122.178 361.267 121.414 360.324 121.414Z" fill="#A9C0FF"/>
<path d="M323.506 173.29H297.336C296.394 173.29 295.63 174.054 295.63 174.997V178.075C295.63 179.018 296.394 179.782 297.336 179.782H323.506C324.448 179.782 325.212 179.018 325.212 178.075V174.997C325.212 174.054 324.448 173.29 323.506 173.29Z" fill="#A9C0FF"/>
<path d="M360.324 137.129H312.128C311.185 137.129 310.421 137.893 310.421 138.836V146.748C310.421 147.691 311.185 148.455 312.128 148.455H360.324C361.267 148.455 362.031 147.691 362.031 146.748V138.836C362.031 137.893 361.267 137.129 360.324 137.129Z" fill="#A9C0FF"/>
<path d="M360.324 152.845H312.128C311.185 152.845 310.421 153.609 310.421 154.551V162.464C310.421 163.406 311.185 164.17 312.128 164.17H360.324C361.267 164.17 362.031 163.406 362.031 162.464V154.551C362.031 153.609 361.267 152.845 360.324 152.845Z" fill="#A9C0FF"/>
<g opacity="0.28">
<path d="M172.887 61.0918H48.7995C45.9718 61.0918 43.6795 63.3841 43.6795 66.2118V153.22C43.6795 156.048 45.9718 158.34 48.7995 158.34H172.887C175.715 158.34 178.007 156.048 178.007 153.22V66.2118C178.007 63.3841 175.715 61.0918 172.887 61.0918Z" fill="#6299E8"/>
</g>
<path d="M153.497 48.459H29.4092C26.5815 48.459 24.2892 50.7513 24.2892 53.579V140.587C24.2892 143.415 26.5815 145.707 29.4092 145.707H153.497C156.325 145.707 158.617 143.415 158.617 140.587V53.579C158.617 50.7513 156.325 48.459 153.497 48.459Z" fill="white"/>
<path d="M158.617 69.8987H24.2894V72.4587H158.617V69.8987Z" fill="#A9C0FF"/>
<path d="M153.497 146.987H29.4094C27.7126 146.985 26.0858 146.31 24.8859 145.111C23.6861 143.911 23.0112 142.284 23.0094 140.587V53.5792C23.0112 51.8824 23.6861 50.2556 24.8859 49.0557C26.0858 47.8559 27.7126 47.181 29.4094 47.1792H153.497C155.194 47.181 156.821 47.8559 158.021 49.0557C159.221 50.2556 159.895 51.8824 159.897 53.5792V140.587C159.895 142.284 159.221 143.911 158.021 145.111C156.821 146.31 155.194 146.985 153.497 146.987ZM29.4094 49.7392C28.3913 49.7403 27.4152 50.1452 26.6953 50.8651C25.9754 51.585 25.5705 52.5611 25.5694 53.5792V140.587C25.5705 141.605 25.9754 142.581 26.6953 143.301C27.4152 144.021 28.3913 144.426 29.4094 144.427H153.497C154.515 144.426 155.491 144.021 156.211 143.301C156.931 142.581 157.336 141.605 157.337 140.587V53.5792C157.336 52.5611 156.931 51.585 156.211 50.8651C155.491 50.1452 154.515 49.7403 153.497 49.7392H29.4094Z" fill="#4D76B8"/>
<path d="M138.522 80.8449H44.3846C43.442 80.8449 42.6779 81.609 42.6779 82.5516V90.464C42.6779 91.4065 43.442 92.1706 44.3846 92.1706H138.522C139.464 92.1706 140.228 91.4065 140.228 90.464V82.5516C140.228 81.609 139.464 80.8449 138.522 80.8449Z" fill="#A9C0FF"/>
<path d="M138.522 96.5604H44.3846C43.442 96.5604 42.6779 97.3245 42.6779 98.2671V106.179C42.6779 107.122 43.442 107.886 44.3846 107.886H138.522C139.464 107.886 140.228 107.122 140.228 106.179V98.2671C140.228 97.3245 139.464 96.5604 138.522 96.5604Z" fill="#A9C0FF"/>
<path d="M140.229 115.587H42.6777V118.147H140.229V115.587Z" fill="#4D76B8"/>
<path d="M140.229 122.694H42.6777V125.254H140.229V122.694Z" fill="#4D76B8"/>
<path d="M140.229 129.8H42.6777V132.36H140.229V129.8Z" fill="#4D76B8"/>
<path d="M354.569 134.038C353.204 134.037 351.869 133.632 350.734 132.874C349.598 132.115 348.713 131.037 348.191 129.775C347.668 128.514 347.531 127.125 347.798 125.786C348.064 124.447 348.722 123.217 349.687 122.251C350.653 121.285 351.883 120.628 353.223 120.361C354.562 120.095 355.95 120.232 357.212 120.754C358.473 121.277 359.552 122.162 360.31 123.297C361.069 124.433 361.474 125.767 361.474 127.133C361.472 128.964 360.744 130.719 359.449 132.013C358.155 133.307 356.4 134.035 354.569 134.038ZM354.569 122.789C353.71 122.789 352.87 123.044 352.156 123.521C351.441 123.998 350.885 124.677 350.556 125.471C350.227 126.265 350.141 127.138 350.309 127.981C350.476 128.824 350.89 129.598 351.498 130.205C352.105 130.813 352.88 131.226 353.722 131.394C354.565 131.562 355.438 131.476 356.232 131.147C357.026 130.818 357.705 130.261 358.182 129.547C358.659 128.832 358.914 127.992 358.914 127.133C358.913 125.981 358.455 124.877 357.64 124.062C356.826 123.248 355.721 122.79 354.569 122.789Z" fill="#4D76B8"/>
<path d="M461.35 124.813C458.598 124.813 455.909 123.997 453.621 122.468C451.333 120.939 449.549 118.767 448.496 116.224C447.443 113.682 447.168 110.885 447.705 108.186C448.241 105.487 449.566 103.008 451.512 101.062C453.458 99.1163 455.937 97.7912 458.636 97.2544C461.335 96.7176 464.132 96.9931 466.674 98.0461C469.217 99.0992 471.39 100.882 472.918 103.17C474.447 105.458 475.263 108.148 475.263 110.9C475.259 114.589 473.792 118.125 471.184 120.733C468.575 123.342 465.039 124.809 461.35 124.813ZM461.35 99.5471C459.105 99.5471 456.91 100.213 455.043 101.46C453.176 102.708 451.721 104.481 450.861 106.555C450.002 108.63 449.777 110.913 450.215 113.115C450.653 115.317 451.735 117.34 453.322 118.928C454.91 120.515 456.933 121.597 459.135 122.035C461.338 122.473 463.62 122.248 465.695 121.389C467.769 120.529 469.542 119.074 470.79 117.207C472.037 115.34 472.703 113.145 472.703 110.9C472.7 107.89 471.502 105.004 469.374 102.876C467.246 100.748 464.36 99.5505 461.35 99.5471Z" fill="#4D76B8"/>
<path d="M461.35 117.996C459.947 117.996 458.575 117.58 457.408 116.8C456.241 116.021 455.331 114.912 454.794 113.616C454.257 112.319 454.116 110.892 454.39 109.516C454.664 108.139 455.34 106.875 456.332 105.882C457.325 104.89 458.589 104.214 459.966 103.94C461.342 103.666 462.769 103.807 464.066 104.344C465.362 104.881 466.471 105.791 467.25 106.958C468.03 108.125 468.446 109.496 468.446 110.9C468.444 112.781 467.696 114.585 466.366 115.915C465.035 117.246 463.232 117.994 461.35 117.996ZM461.35 106.364C460.453 106.364 459.576 106.63 458.83 107.128C458.084 107.627 457.503 108.335 457.159 109.164C456.816 109.993 456.726 110.905 456.901 111.785C457.076 112.665 457.508 113.473 458.143 114.108C458.777 114.742 459.585 115.174 460.465 115.349C461.345 115.524 462.257 115.434 463.086 115.091C463.915 114.748 464.623 114.166 465.122 113.42C465.62 112.674 465.886 111.797 465.886 110.9C465.885 109.697 465.407 108.544 464.556 107.694C463.706 106.843 462.553 106.365 461.35 106.364Z" fill="#4D76B8"/>
<path d="M424.457 136.748H421.015C419.429 136.746 417.909 136.116 416.788 134.994C415.667 133.873 415.037 132.353 415.035 130.768C415.036 130.313 414.946 129.862 414.77 129.442C414.593 129.022 414.334 128.642 414.008 128.325C413.682 128.008 413.296 127.758 412.874 127.591C412.451 127.423 411.999 127.341 411.544 127.349L360.221 128.412L360.167 125.853L411.491 124.79C412.287 124.773 413.077 124.915 413.817 125.208C414.557 125.501 415.231 125.939 415.799 126.496C416.368 127.053 416.819 127.717 417.128 128.451C417.436 129.184 417.595 129.972 417.595 130.768C417.596 131.675 417.956 132.544 418.598 133.185C419.239 133.826 420.108 134.187 421.015 134.188H424.457C425.364 134.187 426.233 133.826 426.874 133.185C427.516 132.544 427.876 131.675 427.877 130.768V115.6C427.879 114.014 428.51 112.494 429.631 111.373C430.752 110.252 432.272 109.622 433.857 109.62H449.537V112.18H433.857C432.95 112.181 432.081 112.542 431.44 113.183C430.799 113.824 430.438 114.693 430.437 115.6V130.768C430.436 132.353 429.805 133.873 428.684 134.994C427.563 136.116 426.043 136.746 424.457 136.748Z" fill="#4D76B8"/>
<path d="M535.087 111.611H492.528C491.115 111.611 489.968 112.758 489.968 114.171V177.222C489.968 178.636 491.115 179.782 492.528 179.782H535.087C536.5 179.782 537.647 178.636 537.647 177.222V114.171C537.647 112.758 536.5 111.611 535.087 111.611Z" fill="#A9C0FF"/>
<path d="M517.484 129.285H498.081V130.991H517.484V129.285Z" fill="#4D76B8"/>
<path d="M521.253 123.003H498.081V124.71H521.253V123.003Z" fill="#4D76B8"/>
<path d="M530.257 135.566H498.081V137.273H530.257V135.566Z" fill="#456BA3"/>
<path d="M517.665 156.162H510.673V172.06H517.665V156.162Z" fill="#FAFAFA"/>
<path d="M506.186 153.074H499.194V172.06H506.186V153.074Z" fill="#FAFAFA"/>
<path d="M529.144 145.697H522.153V172.06H529.144V145.697Z" fill="#FAFAFA"/>
<path d="M13.5676 182.581C13.0976 182.239 12.7032 181.803 12.4088 181.302C12.1144 180.8 11.9263 180.243 11.8563 179.666C11.7863 179.089 11.8359 178.503 12.0019 177.946C12.168 177.389 12.4469 176.872 12.8214 176.427L31.1052 154.32C31.4228 153.939 31.8734 153.694 32.3653 153.634C32.8572 153.574 33.3534 153.704 33.753 153.997L41.7215 159.823C42.1234 160.114 42.3986 160.549 42.4911 161.037C42.5835 161.525 42.4861 162.03 42.2188 162.448L26.6869 186.553C26.3772 187.043 25.9703 187.464 25.4915 187.79C25.0126 188.116 24.472 188.341 23.9029 188.45C23.3339 188.559 22.7485 188.55 22.1829 188.424C21.6173 188.298 21.0836 188.058 20.6147 187.717L13.5676 182.581Z" fill="#618AC6"/>
<path d="M13.5721 182.575C13.1021 182.233 12.7074 181.798 12.4126 181.297C12.1177 180.796 11.9289 180.24 11.8579 179.663C11.7869 179.086 11.8353 178.501 12 177.943C12.1646 177.386 12.4421 176.868 12.8152 176.422L31.1107 154.319C31.4273 153.938 31.8777 153.693 32.3693 153.634C32.8609 153.576 33.3563 153.707 33.7538 154.002L41.7207 159.817C41.934 159.975 42.1152 160.171 42.2547 160.397L39.2443 158.195C38.8442 157.905 38.3487 157.778 37.8583 157.84C37.3679 157.902 36.9194 158.148 36.6037 158.528L18.3083 180.631C17.6803 181.374 17.3285 182.311 17.3124 183.283C17.2964 184.255 17.6172 185.203 18.2203 185.965L13.5721 182.575Z" fill="#92B1EF"/>
<path d="M45.7799 153.295L41.7377 159.75L34.1662 154.122L39.005 148.406L45.7799 153.295Z" fill="#4469A0"/>
<path d="M91.1176 121.061C90.1692 114.985 87.4403 109.326 83.276 104.801C79.1118 100.276 73.6992 97.0876 67.7227 95.6387C61.7462 94.1898 55.4743 94.5456 49.7 96.6613C43.9258 98.7769 38.9086 102.557 35.2829 107.524C31.6572 112.492 29.5859 118.422 29.3309 124.567C29.0758 130.711 30.6486 136.793 33.8501 142.043C37.0517 147.294 41.7384 151.477 47.3174 154.064C52.8965 156.651 59.1173 157.525 65.1933 156.577C73.3389 155.301 80.6447 150.843 85.5057 144.184C90.3667 137.524 92.3851 129.208 91.1176 121.061ZM63.8963 148.606C59.3934 149.31 54.7829 148.663 50.6479 146.747C46.5129 144.83 43.0391 141.73 40.6657 137.84C38.2923 133.949 37.126 129.442 37.3142 124.888C37.5024 120.334 39.0366 115.939 41.723 112.257C44.4094 108.575 48.1272 105.773 52.4062 104.204C56.6853 102.636 61.3334 102.371 65.7629 103.444C70.1923 104.517 74.2041 106.879 77.2909 110.232C80.3778 113.585 82.401 117.778 83.1048 122.281C83.5721 125.271 83.446 128.324 82.7336 131.265C82.0212 134.206 80.7365 136.978 78.9528 139.422C77.1691 141.867 74.9214 143.936 72.338 145.512C69.7545 147.088 66.8861 148.139 63.8963 148.606Z" fill="#618AC6"/>
</svg>
