<svg width="521" height="521" viewBox="0 0 521 521" fill="none" xmlns="http://www.w3.org/2000/svg">
<circle cx="281" cy="262" r="239" fill="black"/>
<path d="M392.19 206.7V255.83C383.59 254.99 372.45 253.05 360.1 248.52C343.97 242.61 331.97 234.53 324.12 228.27V327.59L323.93 327.28C324.07 329.24 324.12 331.25 324.12 333.27C324.12 382.6 283.99 422.75 234.64 422.75C185.29 422.75 145.16 382.6 145.16 333.27C145.16 283.94 185.29 243.77 234.64 243.77C239.46 243.77 244.21 244.16 248.84 244.9V293.33C244.39 291.73 239.62 290.88 234.64 290.88C211.28 290.88 192.26 309.88 192.26 333.26C192.26 356.64 211.28 375.64 234.64 375.64C258 375.64 277.02 356.62 277.02 333.26C277.02 332.38 277 331.51 276.94 330.63V137.62H326.05C326.23 141.78 326.4 145.96 326.58 150.13C326.91 158.32 329.83 166.18 334.9 172.62C340.87 180.19 349.66 188.98 362.03 196C373.6 202.56 384.48 205.38 392.18 206.7H392.19Z" fill="#FF004F"/>
<path d="M375.32 166.81V215.94C366.72 215.1 355.58 213.16 343.23 208.63C327.1 202.72 315.1 194.64 307.25 188.38V287.7L307.06 287.39C307.2 289.35 307.25 291.36 307.25 293.38C307.25 342.71 267.12 382.86 217.77 382.86C168.42 382.86 128.29 342.71 128.29 293.38C128.29 244.05 168.42 203.88 217.77 203.88C222.59 203.88 227.34 204.27 231.97 205.01V253.44C227.52 251.84 222.75 250.99 217.77 250.99C194.41 250.99 175.39 269.99 175.39 293.37C175.39 316.75 194.41 335.75 217.77 335.75C241.13 335.75 260.15 316.73 260.15 293.37C260.15 292.49 260.13 291.62 260.07 290.74V97.74H309.18C309.36 101.9 309.53 106.08 309.71 110.25C310.04 118.44 312.96 126.3 318.04 132.74C324.01 140.31 332.8 149.1 345.17 156.12C356.74 162.68 367.62 165.5 375.32 166.82V166.81Z" fill="#00F7EF"/>
<path d="M386.06 188.29V237.42C377.46 236.58 366.32 234.64 353.97 230.11C337.84 224.2 325.84 216.12 317.99 209.86V309.18L317.8 308.87C317.94 310.83 317.99 312.84 317.99 314.86C317.99 364.19 277.86 404.34 228.51 404.34C179.16 404.34 139.03 364.19 139.03 314.86C139.03 265.53 179.16 225.36 228.51 225.36C233.33 225.36 238.08 225.75 242.71 226.49V274.92C238.26 273.32 233.49 272.47 228.51 272.47C205.15 272.47 186.13 291.47 186.13 314.85C186.13 338.23 205.15 357.23 228.51 357.23C251.87 357.23 270.89 338.21 270.89 314.85C270.89 313.97 270.87 313.1 270.81 312.22V119.22H319.92C320.1 123.38 320.27 127.56 320.45 131.73C320.78 139.92 323.7 147.78 328.77 154.22C334.74 161.79 343.53 170.58 355.9 177.6C367.47 184.16 378.35 186.98 386.05 188.3L386.06 188.29Z" fill="white"/>
</svg>
